<svg width="532" height="395" viewBox="0 0 532 395" fill="none" xmlns="http://www.w3.org/2000/svg">
<g filter="url(#filter0_d)">
<path d="M377 188C377 290.173 294.173 373 192 373C89.8273 373 7 290.173 7 188C7 85.8273 89.8273 3 192 3C294.173 3 377 85.8273 377 188Z" stroke="#43A498" stroke-width="6"/>
</g>
<g clip-path="url(#clip0)">
<path opacity="0.1" d="M518.394 373.728C517.917 374.078 517.427 374.414 516.933 374.746C515.108 375.972 513.204 377.074 511.232 378.044C500.873 383.222 488.111 385.749 475.677 387.466C447.792 391.326 419.319 392.074 390.966 392.809C314.367 394.805 237.564 396.792 161.16 392.198C130.974 390.383 100.112 387.329 72.7528 378.035C68.8346 376.704 64.99 375.238 61.219 373.635C53.5975 370.382 46.2762 366.43 40.187 361.721C34.4466 357.295 29.8277 352.205 27.0547 346.425C21.2701 334.377 24.3302 320.847 30.9317 309.043C33.691 304.253 36.79 299.668 40.2046 295.322C45.2915 288.675 50.9039 282.235 56.0349 275.596C74.2806 251.952 86.1854 222.091 69.3439 197.872C64.4866 190.914 57.5054 184.806 53.5621 177.543C48.5238 168.249 48.9168 157.932 50.5197 147.889C50.7228 146.624 50.9613 145.367 51.1777 144.11C53.9286 129.252 59.0509 113.239 74.9077 103.962C91.3782 94.322 114.759 94.8088 135.208 98.2566C167.002 103.621 196.331 114.823 225.947 124.941C255.563 135.058 286.583 144.3 319.153 145.3C347.908 146.185 381.455 139.604 400.539 122.524C419.085 105.936 453.925 104.674 479.05 114.695C496.272 121.573 509.143 133.961 514.57 147.889C515.667 150.678 516.459 153.578 516.933 156.538C517.373 159.233 517.521 161.968 517.374 164.695C517.299 166.022 517.153 167.372 516.933 168.678C512.738 196.177 482.53 217.864 464.169 242.428C455.197 254.427 448.86 268.837 455.029 281.775C464.439 301.488 497.164 308.494 516.933 323.171C520.626 325.812 523.901 328.996 526.647 332.616C536.207 345.681 532.67 363.314 518.394 373.728Z" fill="#43A498"/>
<path opacity="0.1" d="M261.428 388.051C327.186 388.051 380.493 386.236 380.493 383.997C380.493 381.758 327.186 379.943 261.428 379.943C195.67 379.943 142.363 381.758 142.363 383.997C142.363 386.236 195.67 388.051 261.428 388.051Z" fill="#43A498"/>
<path d="M356.025 381.297C356.025 381.297 381.636 348.78 379.654 316.457C378.819 302.887 382.153 289.379 389.602 278.018C393.146 272.635 397.175 267.591 401.64 262.947" stroke="#535461" stroke-width="2" stroke-miterlimit="10"/>
<path d="M400.505 242.565C398.694 247.089 401.604 263.483 401.604 263.483C401.604 263.483 415.023 253.661 416.834 249.142C417.265 248.067 417.48 246.917 417.467 245.759C417.455 244.6 417.215 243.455 416.761 242.389C416.307 241.324 415.648 240.358 414.822 239.548C413.996 238.737 413.018 238.098 411.946 237.666C410.873 237.234 409.726 237.018 408.57 237.031C407.414 237.043 406.271 237.284 405.208 237.739C404.145 238.194 403.182 238.854 402.373 239.682C401.564 240.511 400.927 241.49 400.496 242.565H400.505Z" fill="#43A498"/>
<path d="M376.973 262.168C377.905 266.948 389.24 279.124 389.24 279.124C389.24 279.124 395.179 263.571 394.248 258.791C393.777 256.518 392.432 254.523 390.503 253.238C388.575 251.953 386.219 251.481 383.946 251.925C381.673 252.37 379.666 253.694 378.361 255.611C377.056 257.529 376.557 259.885 376.973 262.168Z" fill="#43A498"/>
<path d="M360.419 305.188C363.629 308.844 379.543 313.598 379.543 313.598C379.543 313.598 376.836 297.168 373.626 293.513C372.863 292.643 371.936 291.933 370.899 291.423C369.862 290.913 368.734 290.612 367.581 290.539C366.428 290.465 365.272 290.62 364.179 290.994C363.086 291.369 362.076 291.955 361.209 292.72C360.342 293.485 359.634 294.414 359.125 295.454C358.616 296.494 358.316 297.623 358.242 298.779C358.169 299.935 358.323 301.094 358.697 302.19C359.07 303.285 359.655 304.297 360.419 305.166V305.188Z" fill="#43A498"/>
<path d="M355.199 340.565C357.747 344.712 372.633 352.117 372.633 352.117C372.633 352.117 372.734 335.462 370.186 331.315C369.585 330.32 368.793 329.453 367.855 328.766C366.918 328.079 365.855 327.584 364.726 327.311C363.598 327.037 362.426 326.991 361.279 327.173C360.132 327.355 359.033 327.764 358.044 328.374C357.056 328.984 356.197 329.784 355.518 330.729C354.84 331.673 354.354 332.743 354.09 333.876C353.825 335.009 353.787 336.184 353.978 337.332C354.168 338.48 354.583 339.579 355.199 340.565Z" fill="#43A498"/>
<path d="M406.055 286.905C401.556 288.75 385.182 285.944 385.182 285.944C385.182 285.944 394.897 272.427 399.383 270.582C401.534 269.737 403.931 269.774 406.056 270.684C408.18 271.595 409.862 273.307 410.738 275.45C411.614 277.594 411.614 279.996 410.738 282.139C409.862 284.282 408.18 285.994 406.055 286.905Z" fill="#43A498"/>
<path d="M399.432 328.199C394.574 328.615 379.799 321.024 379.799 321.024C379.799 321.024 393.095 311.039 397.935 310.623C399.097 310.504 400.271 310.618 401.388 310.959C402.506 311.299 403.545 311.859 404.444 312.606C405.344 313.353 406.086 314.272 406.627 315.309C407.169 316.347 407.499 317.482 407.598 318.648C407.697 319.815 407.564 320.989 407.206 322.104C406.848 323.218 406.272 324.25 405.512 325.139C404.751 326.028 403.822 326.756 402.778 327.282C401.735 327.807 400.597 328.119 399.432 328.199Z" fill="#43A498"/>
<path d="M387.474 367.453C382.771 368.679 366.919 363.704 366.919 363.704C366.919 363.704 378.338 351.612 383.041 350.382C385.275 349.866 387.621 350.244 389.582 351.436C391.542 352.628 392.96 354.54 393.536 356.764C394.111 358.988 393.798 361.35 392.662 363.346C391.527 365.343 389.659 366.816 387.456 367.453H387.474Z" fill="#43A498"/>
<path opacity="0.25" d="M400.505 242.565C398.694 247.089 401.604 263.483 401.604 263.483C401.604 263.483 415.023 253.661 416.834 249.142C417.265 248.067 417.48 246.917 417.467 245.759C417.455 244.6 417.215 243.455 416.761 242.389C416.307 241.324 415.648 240.358 414.822 239.548C413.996 238.737 413.018 238.098 411.946 237.666C410.873 237.234 409.726 237.018 408.57 237.031C407.414 237.043 406.271 237.284 405.208 237.739C404.145 238.194 403.182 238.854 402.373 239.682C401.564 240.511 400.927 241.49 400.496 242.565H400.505Z" fill="black"/>
<path opacity="0.25" d="M376.973 262.168C377.905 266.948 389.24 279.124 389.24 279.124C389.24 279.124 395.179 263.571 394.248 258.791C393.777 256.518 392.432 254.523 390.503 253.238C388.575 251.953 386.219 251.481 383.946 251.925C381.673 252.37 379.666 253.694 378.361 255.611C377.056 257.529 376.557 259.885 376.973 262.168Z" fill="black"/>
<path opacity="0.25" d="M360.419 305.188C363.629 308.844 379.543 313.598 379.543 313.598C379.543 313.598 376.836 297.168 373.626 293.513C372.863 292.643 371.936 291.933 370.899 291.423C369.862 290.913 368.734 290.612 367.581 290.539C366.428 290.465 365.272 290.62 364.179 290.994C363.086 291.369 362.076 291.955 361.209 292.72C360.342 293.485 359.634 294.414 359.125 295.454C358.616 296.494 358.316 297.623 358.242 298.779C358.169 299.935 358.323 301.094 358.697 302.19C359.07 303.285 359.655 304.297 360.419 305.166V305.188Z" fill="black"/>
<path opacity="0.25" d="M355.199 340.565C357.747 344.712 372.633 352.117 372.633 352.117C372.633 352.117 372.734 335.462 370.186 331.315C369.585 330.32 368.793 329.453 367.855 328.766C366.918 328.079 365.855 327.584 364.726 327.311C363.598 327.037 362.426 326.991 361.279 327.173C360.132 327.355 359.033 327.764 358.044 328.374C357.056 328.984 356.197 329.784 355.518 330.729C354.84 331.673 354.354 332.743 354.09 333.876C353.825 335.009 353.787 336.184 353.978 337.332C354.168 338.48 354.583 339.579 355.199 340.565Z" fill="black"/>
<path opacity="0.25" d="M406.055 286.905C401.556 288.75 385.182 285.944 385.182 285.944C385.182 285.944 394.897 272.427 399.383 270.582C401.534 269.737 403.931 269.774 406.056 270.684C408.18 271.595 409.862 273.307 410.738 275.45C411.614 277.594 411.614 279.996 410.738 282.139C409.862 284.282 408.18 285.994 406.055 286.905Z" fill="black"/>
<path opacity="0.25" d="M399.432 328.199C394.574 328.615 379.799 321.024 379.799 321.024C379.799 321.024 393.095 311.039 397.935 310.623C399.097 310.504 400.271 310.618 401.388 310.959C402.506 311.299 403.545 311.859 404.444 312.606C405.344 313.353 406.086 314.272 406.627 315.309C407.169 316.347 407.499 317.482 407.598 318.648C407.697 319.815 407.564 320.989 407.206 322.104C406.848 323.218 406.272 324.25 405.512 325.139C404.751 326.028 403.822 326.756 402.778 327.282C401.735 327.807 400.597 328.119 399.432 328.199Z" fill="black"/>
<path opacity="0.25" d="M387.474 367.453C382.771 368.679 366.919 363.704 366.919 363.704C366.919 363.704 378.338 351.612 383.041 350.382C385.275 349.866 387.621 350.244 389.582 351.436C391.542 352.628 392.96 354.54 393.536 356.764C394.111 358.988 393.798 361.35 392.662 363.346C391.527 365.343 389.659 366.816 387.456 367.453H387.474Z" fill="black"/>
<path d="M356.246 379.938C356.246 379.938 392.808 360.619 404.059 330.262C408.784 317.515 417.306 306.521 428.695 299.16C434.112 295.679 439.837 292.703 445.797 290.269" stroke="#535461" stroke-width="2" stroke-miterlimit="10"/>
<path d="M452.994 271.171C449.515 274.565 445.545 290.738 445.545 290.738C445.545 290.738 461.781 287.197 465.265 283.816C466.902 282.176 467.828 279.957 467.845 277.639C467.861 275.32 466.966 273.088 465.353 271.426C463.74 269.764 461.539 268.805 459.226 268.757C456.913 268.709 454.674 269.576 452.994 271.171Z" fill="#43A498"/>
<path d="M423.559 279.54C422.477 284.289 427.917 300.023 427.917 300.023C427.917 300.023 439.632 288.219 440.723 283.47C441.006 282.332 441.061 281.148 440.882 279.989C440.704 278.829 440.297 277.717 439.684 276.717C439.072 275.717 438.267 274.85 437.316 274.166C436.364 273.481 435.287 272.994 434.146 272.733C433.004 272.472 431.823 272.441 430.67 272.643C429.516 272.845 428.415 273.275 427.43 273.909C426.445 274.543 425.596 275.368 424.933 276.335C424.27 277.301 423.805 278.391 423.568 279.54H423.559Z" fill="#43A498"/>
<path d="M391.042 312.146C392.499 316.793 405.119 327.637 405.119 327.637C405.119 327.637 409.287 311.517 407.83 306.87C407.503 305.742 406.953 304.69 406.215 303.777C405.476 302.865 404.563 302.109 403.529 301.555C402.495 301.001 401.36 300.66 400.193 300.551C399.025 300.443 397.848 300.569 396.73 300.923C395.612 301.277 394.576 301.851 393.682 302.612C392.788 303.373 392.056 304.305 391.527 305.354C390.997 306.403 390.683 307.547 390.601 308.72C390.519 309.892 390.672 311.069 391.05 312.181L391.042 312.146Z" fill="#43A498"/>
<path d="M371.957 342.371C372.61 347.195 383.221 360.008 383.221 360.008C383.221 360.008 390.048 344.827 389.403 339.998C389.248 338.851 388.868 337.745 388.287 336.744C387.705 335.743 386.932 334.866 386.012 334.165C385.092 333.463 384.044 332.95 382.926 332.655C381.809 332.359 380.644 332.288 379.499 332.443C378.354 332.599 377.25 332.98 376.252 333.563C375.253 334.146 374.379 334.921 373.679 335.842C372.979 336.764 372.467 337.815 372.172 338.935C371.878 340.056 371.806 341.223 371.961 342.371H371.957Z" fill="#43A498"/>
<path d="M440.122 313.956C435.265 313.819 421.426 304.6 421.426 304.6C421.426 304.6 435.764 296.191 440.621 296.323C442.931 296.422 445.11 297.428 446.686 299.124C448.263 300.82 449.11 303.069 449.044 305.386C448.978 307.703 448.006 309.901 446.336 311.505C444.666 313.109 442.434 313.989 440.122 313.956Z" fill="#43A498"/>
<path d="M417.372 349.019C412.78 347.43 402.328 334.488 402.328 334.488C402.328 334.488 418.516 330.757 423.113 332.346C425.27 333.147 427.028 334.762 428.012 336.846C428.996 338.929 429.126 341.317 428.376 343.496C427.626 345.675 426.054 347.473 423.997 348.505C421.941 349.538 419.563 349.722 417.372 349.019Z" fill="#43A498"/>
<path d="M390.6 380.049C385.804 379.261 373.317 368.276 373.317 368.276C373.317 368.276 388.648 361.854 393.444 362.642C395.713 363.056 397.73 364.346 399.06 366.236C400.39 368.126 400.926 370.463 400.553 372.746C400.18 375.028 398.928 377.072 397.067 378.438C395.205 379.804 392.883 380.382 390.6 380.049Z" fill="#43A498"/>
<path d="M359.452 382.638H355.535L326.886 234.4L323.212 382.638H319.053L314.399 234.648L286.483 382.638H282.076L301.05 230.275L301.668 225.322L338.888 221.148L340.045 230.275L359.452 382.638Z" fill="#464353"/>
<path d="M280.389 191.433H256.699V206.158H280.389V191.433Z" fill="#464353"/>
<path d="M394.155 184.993L408.479 179.195H411.619C412.077 179.195 412.516 179.377 412.84 179.702C413.164 180.026 413.345 180.466 413.345 180.925V221.361C413.345 221.82 413.164 222.26 412.84 222.585C412.516 222.909 412.077 223.091 411.619 223.091H408.479L394.155 217.112V184.993Z" fill="#464353"/>
<path d="M394.155 186.834H364.866V215.271H394.155V186.834Z" fill="#464353"/>
<path d="M332.879 133.421H314.023V136.856H332.879V133.421Z" fill="#192534"/>
<path d="M345.582 137.87H292.51V176.707H345.582V137.87Z" fill="#192534"/>
<path opacity="0.1" d="M345.582 172.109H292.51V176.712H345.582V172.109Z" fill="black"/>
<path opacity="0.1" d="M365.598 186.834H364.411V215.271H365.598V186.834Z" fill="black"/>
<path opacity="0.1" d="M280.389 191.433H272.308V206.158H280.389V191.433Z" fill="black"/>
<path opacity="0.1" d="M340.045 230.275H301.05L301.668 225.322L338.888 221.148L340.045 230.275Z" fill="black"/>
<path d="M360.136 172.843H277.766C275.156 172.843 273.041 174.964 273.041 177.579V224.8C273.041 227.415 275.156 229.535 277.766 229.535H360.136C362.746 229.535 364.861 227.415 364.861 224.8V177.579C364.861 174.964 362.746 172.843 360.136 172.843Z" fill="#192534"/>
<path d="M393.877 184.993H394.155V217.112H393.877C393.269 217.112 392.686 216.87 392.256 216.439C391.826 216.008 391.585 215.424 391.585 214.815V187.29C391.585 186.681 391.826 186.096 392.256 185.665C392.686 185.235 393.269 184.993 393.877 184.993Z" fill="#192534"/>
<path d="M408.479 179.208H411.451C411.954 179.208 412.436 179.408 412.791 179.764C413.146 180.12 413.346 180.603 413.346 181.107V221.215C413.346 221.718 413.146 222.201 412.791 222.557C412.436 222.913 411.954 223.114 411.451 223.114H408.479V179.208Z" fill="#192534"/>
<path opacity="0.1" d="M260.925 191.433H256.699V206.158H260.925V191.433Z" fill="black"/>
<path d="M257.008 186.834H255.105C253.349 186.834 251.925 188.261 251.925 190.021V208.681C251.925 210.44 253.349 211.867 255.105 211.867H257.008C258.764 211.867 260.187 210.44 260.187 208.681V190.021C260.187 188.261 258.764 186.834 257.008 186.834Z" fill="#192534"/>
<path d="M292.51 164.376C307.116 164.376 318.956 152.509 318.956 137.869C318.956 123.23 307.116 111.362 292.51 111.362C277.905 111.362 266.064 123.23 266.064 137.869C266.064 152.509 277.905 164.376 292.51 164.376Z" fill="#464353"/>
<path d="M292.51 157.751C303.465 157.751 312.345 148.85 312.345 137.87C312.345 126.889 303.465 117.988 292.51 117.988C281.555 117.988 272.675 126.889 272.675 137.87C272.675 148.85 281.555 157.751 292.51 157.751Z" fill="#43A498"/>
<path d="M341.542 157.751C352.192 157.751 360.825 149.098 360.825 138.423C360.825 127.748 352.192 119.095 341.542 119.095C330.892 119.095 322.258 127.748 322.258 138.423C322.258 149.098 330.892 157.751 341.542 157.751Z" fill="#464353"/>
<path d="M341.542 152.918C349.529 152.918 356.003 146.428 356.003 138.423C356.003 130.417 349.529 123.928 341.542 123.928C333.555 123.928 327.081 130.417 327.081 138.423C327.081 146.428 333.555 152.918 341.542 152.918Z" fill="#43A498"/>
<path d="M340.045 183.824C341.447 183.824 342.584 182.685 342.584 181.279C342.584 179.874 341.447 178.734 340.045 178.734C338.643 178.734 337.506 179.874 337.506 181.279C337.506 182.685 338.643 183.824 340.045 183.824Z" fill="#43A498"/>
<path opacity="0.5" d="M348.122 183.824C349.524 183.824 350.661 182.685 350.661 181.279C350.661 179.874 349.524 178.734 348.122 178.734C346.719 178.734 345.583 179.874 345.583 181.279C345.583 182.685 346.719 183.824 348.122 183.824Z" fill="#43A498"/>
<path d="M316.165 190.06L315.984 189.702C317.104 190.075 318.179 190.571 319.19 191.18C318.748 187.334 304.031 176.535 301.381 176.535C298.732 176.535 295.787 171.949 295.787 171.949C295.787 171.949 288.134 170.768 286.955 169.515C285.776 168.263 277.828 168.993 275.916 169.435C274.004 169.878 271.059 168.254 271.059 168.254C271.059 168.254 269.438 165.598 267.38 165.598C265.323 165.598 263.119 162.642 263.119 162.642C263.119 162.642 261.198 160.871 259.432 160.57C257.666 160.269 255.458 158.357 254.425 156.875C253.391 155.392 248.243 154.662 245.302 155.104C242.361 155.547 234.408 154.502 234.408 154.502C237.645 153.024 238.427 149.474 238.427 149.474C235.53 149.324 227.917 142.915 227.917 142.915C227.917 142.915 228.231 144.986 228.593 147.877L228.103 147.244L228.036 147.297C227.881 145.235 227.859 143.165 227.97 141.1C227.97 140.941 227.997 140.782 228.005 140.618C229.891 138.963 231.289 136.822 232.048 134.428C232.808 132.034 232.9 129.478 232.315 127.035C232.236 126.698 232.143 126.371 232.037 126.048C232.6 126.283 233.196 126.432 233.803 126.49H234.117C234.482 126.493 234.844 126.418 235.178 126.27C235.512 126.121 235.811 125.904 236.055 125.632C236.138 125.527 236.211 125.414 236.272 125.295C236.287 125.273 236.3 125.249 236.311 125.225C236.364 125.116 236.408 125.003 236.444 124.888C236.456 124.847 236.467 124.806 236.475 124.764C236.497 124.674 236.515 124.582 236.528 124.49C236.528 124.415 236.528 124.335 236.528 124.255C236.528 124.176 236.528 124.14 236.528 124.083C236.51 123.402 236.36 122.732 236.086 122.109C235.623 120.967 234.956 119.838 235.004 118.603C235.004 118.502 235.026 118.404 235.04 118.307C235.163 117.338 235.671 116.439 235.976 115.505V115.465C236.02 115.328 236.055 115.191 236.086 115.054C236.101 115.013 236.112 114.972 236.122 114.93C236.154 114.768 236.177 114.604 236.188 114.439C236.188 114.439 236.188 114.416 236.188 114.403C236.303 112.553 234.814 110.938 233.128 110.19C231.618 109.517 229.891 109.335 228.509 108.419C226.932 107.379 226.067 105.578 224.901 104.086C223.206 101.917 220.552 100.298 217.836 100.607C216.163 100.798 214.644 101.678 212.979 102.019C210.449 102.546 207.773 101.78 205.256 102.369C204.645 102.471 204.088 102.784 203.684 103.254C203.515 103.491 203.406 103.766 203.366 104.055C203.33 104.323 203.33 104.593 203.366 104.861V104.883C203.394 105.138 203.44 105.391 203.503 105.64L203.542 105.795C203.542 105.848 203.565 105.896 203.578 105.95C203.591 106.003 203.635 106.158 203.662 106.259C203.71 106.432 203.75 106.605 203.794 106.782V106.844C203.834 107.025 203.874 107.206 203.905 107.392C203.976 107.776 204.023 108.163 204.046 108.552C204.15 109.647 203.914 110.748 203.37 111.703C202.266 113.474 199.922 114.257 198.902 116.103C198.661 116.548 198.51 117.037 198.46 117.541C198.442 117.709 198.434 117.877 198.438 118.046V118.112C198.438 118.258 198.438 118.404 198.478 118.555C198.476 118.59 198.476 118.625 198.478 118.661C198.5 118.792 198.53 118.922 198.566 119.05C198.566 119.095 198.588 119.134 198.601 119.174C198.65 119.326 198.709 119.474 198.778 119.617C199.25 120.604 200.142 121.418 200.328 122.489C200.328 122.52 200.328 122.551 200.35 122.587C200.451 123.392 200.12 124.18 199.948 124.972C199.925 125.069 199.908 125.166 199.895 125.264C199.895 125.295 199.895 125.326 199.895 125.357C199.895 125.388 199.895 125.49 199.895 125.561C199.895 125.632 199.895 125.636 199.895 125.676C199.895 125.716 199.895 125.796 199.895 125.853C199.893 125.894 199.893 125.936 199.895 125.977C199.895 126.035 199.895 126.092 199.895 126.145C199.895 126.198 199.895 126.225 199.895 126.265C199.895 126.305 199.922 126.375 199.939 126.428L199.97 126.539C199.991 126.592 200.015 126.644 200.041 126.694L200.089 126.791C200.122 126.845 200.157 126.897 200.195 126.946C200.212 126.971 200.229 126.995 200.248 127.017C200.309 127.088 200.377 127.152 200.451 127.207C201.061 127.65 202.01 127.535 202.509 128.093C202.565 128.16 202.613 128.234 202.651 128.314L202.677 128.367C202.713 128.445 202.742 128.527 202.761 128.61C202.831 128.943 202.831 129.287 202.761 129.62C202.584 130.505 202.209 131.31 202.01 132.178C201.97 132.355 201.944 132.536 201.922 132.718C201.922 132.802 201.922 132.881 201.9 132.961V133.014C201.9 133.089 201.9 133.169 201.9 133.244C201.9 133.32 201.9 133.284 201.9 133.306C201.9 133.417 201.9 133.532 201.926 133.643C201.953 133.753 201.926 133.749 201.953 133.798L201.979 133.926C201.979 133.984 202.01 134.041 202.028 134.099L202.068 134.209C202.09 134.271 202.121 134.333 202.147 134.395C202.16 134.424 202.175 134.452 202.191 134.479C202.236 134.57 202.289 134.656 202.35 134.736C202.885 135.462 203.763 135.705 204.691 135.71C205.216 135.707 205.74 135.647 206.254 135.533C206.369 135.803 206.488 136.073 206.616 136.334C207.256 137.626 208.095 138.809 209.102 139.839C209.102 139.976 209.075 140.109 209.058 140.251C208.956 141.26 208.833 142.344 208.691 143.437C207.548 142.911 206.664 142.707 206.316 143.088C204.836 144.716 206.316 150.337 206.316 150.337C206.316 150.337 199.096 150.337 197.33 151.962C195.563 153.586 192.327 151.962 192.327 151.962C192.327 151.962 185.703 152.705 186.145 154.038C186.586 155.37 182.612 154.038 182.612 154.038C182.612 154.038 179.813 154.334 179.963 156.251C180.113 158.167 175.693 159.057 176.28 160.389C176.867 161.721 173.631 162.602 173.631 162.602C173.631 162.602 170.394 162.456 171.573 164.372C171.573 164.372 169.807 168.515 168.336 168.798C166.866 169.081 164.949 172.494 164.949 172.494C164.949 172.494 159.279 173.529 159.536 175.304C159.792 177.079 150.819 189.777 150.819 189.777C150.819 189.777 147.874 195.863 149.936 200.302C151.998 204.741 153.468 207.698 153.91 209.322C154.352 210.947 159.703 218.099 159.659 219.431C159.659 219.847 160.984 222.087 162.79 224.928L162.26 225.477L161.099 226.676C161.099 226.676 157.416 235.847 161.832 236.29C165.563 236.661 168.243 236.931 169.603 236.56C169.824 236.508 170.034 236.416 170.222 236.29L170.275 236.25C171.882 238.626 173.021 240.286 173.021 240.286C173.021 240.286 173.18 240.052 173.463 239.649L173.904 240.282C173.904 240.282 174.258 239.777 174.858 238.954C174.664 242.977 174.637 246.943 174.637 246.943C174.637 246.943 176.554 246.646 175.671 255.52C174.787 264.394 180.969 271.64 180.969 271.64V284.807C180.969 284.807 180.969 285.139 181.031 285.692C181.195 287.582 181.733 292.039 183.323 294.987C185.385 298.828 183.323 308.889 183.323 308.889C183.323 308.889 183.186 317.094 183.681 327.327C183.681 327.606 183.712 327.894 183.725 328.177C174.796 335.657 165.219 345.571 165.219 345.571C165.688 345.702 166.134 345.904 166.543 346.168L166.009 346.854L163.576 349.86L161.695 352.188L164.675 361.389L167.93 360.115C167.93 360.115 169.696 363.182 169.325 365.262C169.269 365.638 169.117 365.993 168.884 366.293C168.771 366.444 168.693 366.618 168.654 366.802C167.802 370.135 171.356 384.506 176.995 385.13C176.995 385.13 178.907 385.763 179.521 384.037C179.817 383.205 179.813 381.824 179.15 379.58C179.15 379.58 176.17 375.977 178.099 372.096C179.23 369.825 181.097 366.784 182.449 364.638L183.005 363.753C184.219 365.289 184.966 366.276 184.966 366.276L189.302 361.602C189.395 361.801 189.487 361.996 189.584 362.181C189.909 362.833 190.284 363.457 190.706 364.049L193.647 375.738L194.835 375.473C194.808 375.756 194.791 376.057 194.773 376.358C194.676 378.456 194.773 381.178 195.74 383.121C196.464 384.608 197.687 385.643 199.683 385.595C206.528 385.427 208.515 381.713 208.515 381.713V372.419L210.868 371.892C210.868 371.892 210.696 351.471 210.091 340.083C210.091 339.83 210.064 339.587 210.051 339.348C210.051 339.313 210.051 339.277 210.051 339.246L225.166 322.954L226.328 322.49C236.042 318.643 236.192 308.734 236.192 308.734C236.192 308.734 236.192 303.263 237.367 298.678C238.541 294.093 237.517 270.276 235.309 264.363C233.101 258.45 232.364 251.785 232.364 251.785C232.364 251.785 234.572 248.687 232.364 246.106C231.74 245.334 231.221 244.483 230.818 243.575L233.693 243.101L235.349 242.827L236.232 242.676C235.79 246.589 235.715 249.594 236.762 250.311C240.003 252.524 250.892 245.133 250.892 245.133C246.918 245.133 244.71 215.403 245.518 214.664C246.326 213.925 247.532 199.027 246.476 196.372C245.421 193.716 250.181 181.859 250.181 181.859L250.914 180.77C250.914 180.77 268.286 188.37 270.198 189.826C272.11 191.282 278.146 186.285 279.175 188.219C280.203 190.153 286.681 193.035 286.681 193.035C286.681 193.035 296.25 192.065 297.279 194.433C298.308 196.801 304.494 202.347 304.494 202.347C304.498 201.047 304.576 199.748 304.728 198.456C304.856 198.762 304.98 199.072 305.112 199.386C308.045 206.339 312.924 215.142 317.446 210.407C322.568 205.025 318.669 195.075 316.165 190.06ZM185.244 221.485V221.569L185.208 221.533L185.244 221.485ZM181.817 187.369L179.945 207.158L176.267 210.977L175.825 211.447L172.023 207.3C172.023 207.3 170.107 206.414 172.023 204.786C173.94 203.157 168.787 199.474 168.787 199.474C168.787 199.474 168.636 196.819 170.553 196.075C172.469 195.332 174.968 190.454 174.968 190.454L181.888 186.914L181.817 187.369ZM206.439 288.653C206.573 288.528 206.721 288.42 206.881 288.33C207.706 287.861 208.236 288.374 208.51 289.277C208.871 290.79 208.761 292.378 208.197 293.827C207.168 296.195 209.671 305.662 209.671 305.662C209.671 305.662 206.43 307.136 205.843 309.951C205.756 310.297 205.606 310.624 205.401 310.916C205.362 310.668 205.326 310.429 205.291 310.199C205.004 308.428 204.85 307.286 204.85 307.286C204.322 305.009 204.221 302.652 204.554 300.338C205.022 297.492 205.967 291.711 206.32 289.521C206.408 288.989 206.457 288.671 206.461 288.635L206.439 288.653Z" fill="url(#paint0_linear)"/>
<path d="M226.963 144.553L227.917 143.916L230.606 149.603L229.573 150.82H226.447C226.447 150.82 226.557 147.722 226.632 147.611C226.707 147.501 226.963 144.553 226.963 144.553Z" fill="#464353"/>
<path d="M208.501 369.989V382.16C208.501 382.16 206.514 385.865 199.67 386.033C198.839 386.082 198.013 385.871 197.307 385.43C196.6 384.988 196.048 384.337 195.727 383.568C194.773 381.629 194.662 378.912 194.76 376.818C194.808 375.771 194.919 374.727 195.091 373.693L208.501 369.989Z" fill="#563D3D"/>
<path opacity="0.1" d="M208.501 369.989V373.755L194.76 376.818C194.809 375.771 194.919 374.727 195.091 373.693L208.501 369.989Z" fill="black"/>
<path d="M210.855 372.348L193.633 376.185L190.693 364.527C190.271 363.936 189.896 363.313 189.571 362.664C189.381 362.292 189.196 361.898 189.019 361.487C185.813 354.135 184.387 340.875 183.778 329.593C183.747 329.022 183.716 328.456 183.689 327.898C183.195 317.692 183.332 309.504 183.332 309.504C183.332 309.504 185.394 299.47 183.332 295.637C181.742 292.681 181.203 288.237 181.04 286.343C180.996 285.781 180.978 285.458 180.978 285.458L181.296 284.621L182.594 281.178H196.875L205.176 288.219L206.439 289.291L206.298 290.176C205.94 292.362 204.995 298.142 204.531 300.966C204.199 303.275 204.299 305.625 204.827 307.897C204.827 307.897 204.999 309.021 205.269 310.805C205.335 311.248 205.41 311.717 205.494 312.226C206.549 318.767 208.528 330.713 209.371 333.568C209.605 334.351 209.813 336.316 209.967 338.976C210.002 339.507 210.033 340.061 210.064 340.64C210.682 351.98 210.855 372.348 210.855 372.348Z" fill="#192534"/>
<path opacity="0.1" d="M208.501 382.036V382.16C208.501 382.16 206.514 385.865 199.67 386.033C198.839 386.082 198.013 385.871 197.307 385.429C196.6 384.988 196.048 384.337 195.727 383.568C198.795 384.324 203.776 384.811 208.501 382.036Z" fill="black"/>
<path d="M317.424 211.243C312.884 215.965 308.027 207.184 305.09 200.249C303.443 196.345 302.41 193.021 302.41 193.021L314.492 187.896C314.492 187.896 315.233 189.078 316.165 190.95C318.669 195.951 322.568 205.874 317.424 211.243Z" fill="#A1616A"/>
<path d="M227.984 142.105C227.79 146.487 228.118 150.876 228.959 155.18C228.959 155.18 204.382 157.835 206.59 154.002C207.883 151.754 208.722 145.819 209.19 141.282C209.53 138.069 209.681 135.559 209.681 135.559C209.681 135.559 233.229 126.119 229.697 134.085C228.642 136.462 228.151 139.277 227.984 142.105Z" fill="#A1616A"/>
<path d="M230.059 205.489L226.756 245.026L241.915 242.521L239.266 209.915L240.149 201.209L230.059 205.489Z" fill="#464353"/>
<path opacity="0.1" d="M241.915 242.583L235.331 243.672L226.751 245.088L227.356 237.874L230.059 205.551L233.499 204.091L235.936 203.06L240.149 201.271L239.266 209.977L241.915 242.583Z" fill="black"/>
<path d="M178.086 372.525C176.156 376.398 179.137 379.991 179.137 379.991C179.799 382.235 179.804 383.607 179.508 384.417C178.894 386.139 176.982 385.506 176.982 385.506C170.968 384.842 167.325 368.581 168.87 366.718C170.416 364.855 167.93 360.575 167.93 360.575L164.675 361.845L161.695 352.666L163.576 350.342L166.009 347.341L167.656 345.305L184.105 362.509C184.105 362.509 183.402 363.567 182.435 365.085C181.084 367.214 179.216 370.268 178.086 372.525Z" fill="#563D3D"/>
<path opacity="0.1" d="M210.078 340.618L189.571 362.664C185.977 355.627 184.431 341.508 183.778 329.589C187.597 326.402 191.285 323.658 194.075 322.335C194.075 322.335 203.516 315.488 205.507 312.204C206.563 318.745 208.541 330.691 209.384 333.546C209.663 334.484 209.892 337.117 210.078 340.618Z" fill="black"/>
<path opacity="0.1" d="M205.176 288.215L181.296 284.617L182.594 281.173H196.874L205.176 288.215Z" fill="black"/>
<path opacity="0.1" d="M209.998 338.954L189.037 361.486C185.813 354.135 184.387 340.875 183.778 329.593C183.747 329.022 183.716 328.456 183.689 327.898C187.544 324.676 191.276 321.905 194.075 320.568C194.075 320.568 202.884 314.182 205.282 310.787C205.348 311.23 205.424 311.699 205.507 312.208C206.563 318.749 208.541 330.695 209.384 333.55C209.618 334.329 209.813 336.294 209.998 338.954Z" fill="black"/>
<path opacity="0.1" d="M184.104 362.518C184.104 362.518 183.402 363.576 182.435 365.094C178.925 360.646 170.601 350.404 166.009 347.35L167.656 345.314L184.104 362.518Z" fill="black"/>
<path d="M237.349 299.315C236.175 303.892 236.175 309.349 236.175 309.349C236.175 309.349 236.024 319.232 226.31 323.069L225.149 323.512L184.966 366.723C184.966 366.723 170.098 347.248 165.241 346.067C165.241 346.067 184.816 325.853 194.089 321.427C194.089 321.427 205.278 313.315 205.865 310.513C206.452 307.711 209.694 306.233 209.694 306.233C209.694 306.233 207.19 296.792 208.219 294.429C208.784 292.985 208.893 291.401 208.532 289.892C208.258 289.007 207.729 288.481 206.903 288.945C206.744 289.035 206.595 289.144 206.461 289.268L181 285.431V272.317C181 272.317 174.818 265.089 175.702 256.237C176.585 247.386 174.668 247.682 174.668 247.682C174.668 247.682 174.761 232.731 176.019 231.483C177.278 230.235 189.368 224.517 189.368 224.517L227.273 231.266L228.836 238.534C228.836 238.534 230.16 244.314 232.368 246.881C234.576 249.448 232.368 252.542 232.368 252.542C232.368 252.542 233.106 259.181 235.313 265.089C237.521 270.998 238.528 294.743 237.349 299.315Z" fill="#192534"/>
<path opacity="0.1" d="M229.696 134.085C228.641 136.462 228.151 139.295 227.983 142.105C225.339 144.401 221.918 145.595 218.423 145.442C214.928 145.289 211.624 143.8 209.19 141.282C209.53 138.069 209.68 135.559 209.68 135.559C209.68 135.559 233.229 126.119 229.696 134.085Z" fill="black"/>
<path d="M232.708 131.31C232.706 134.809 231.371 138.174 228.975 140.719C226.58 143.263 223.305 144.794 219.821 144.999C216.336 145.204 212.905 144.067 210.23 141.82C207.554 139.574 205.835 136.388 205.425 132.914C205.015 129.44 205.945 125.94 208.024 123.13C210.103 120.319 213.174 118.411 216.61 117.796C220.046 117.18 223.587 117.903 226.508 119.817C229.43 121.731 231.512 124.691 232.328 128.093C232.581 129.146 232.709 130.227 232.708 131.31Z" fill="#A1616A"/>
<path opacity="0.1" d="M221.603 155.179C221.603 155.179 211.765 150.607 211.151 150.014C210.537 149.421 190.128 201.948 190.128 201.948L184.387 228.062C184.387 228.062 215.001 241.189 221.625 239.419C228.248 237.648 228.836 239.419 228.836 239.419C228.836 239.419 235.609 201.355 237.817 197.965C240.025 194.575 235.755 160.048 235.755 160.048L228.103 150.01L221.603 155.179Z" fill="black"/>
<path opacity="0.1" d="M221.603 153.409C221.603 153.409 211.765 148.837 211.151 148.244C210.537 147.651 190.128 200.178 190.128 200.178L184.387 226.291C184.387 226.291 215.001 239.419 221.625 237.648C228.248 235.878 228.836 237.648 228.836 237.648C228.836 237.648 235.609 199.585 237.817 196.195C240.025 192.804 235.755 158.277 235.755 158.277L228.103 148.239L221.603 153.409Z" fill="black"/>
<path d="M237.791 197.08C237.349 197.784 236.682 199.97 235.936 202.997C235.415 205.104 234.85 207.614 234.271 210.313C231.666 222.498 228.814 238.538 228.814 238.538C228.814 238.538 228.633 237.998 227.356 237.812C226.323 237.661 224.566 237.746 221.616 238.538C214.992 240.308 184.374 227.176 184.374 227.176L185.257 223.193L190.114 201.063C190.114 201.063 210.577 148.54 211.164 149.133C211.522 149.492 215.346 151.346 218.26 152.723C220.119 153.608 221.616 154.294 221.616 154.294L227.798 149.399L228.138 149.129L235.755 159.163C235.755 159.163 239.999 193.685 237.791 197.08Z" fill="#43A498"/>
<path opacity="0.1" d="M214.387 159.459C215.27 162.863 213.213 168.457 213.213 168.457C213.213 168.457 206.148 185.869 204.085 193.915C202.023 201.962 190.229 218.178 190.229 218.178C190.229 218.178 188.498 219.918 186.074 222.339C185.804 222.609 185.522 222.888 185.239 223.18L190.097 201.05C190.097 201.05 210.559 148.527 211.146 149.12C211.504 149.479 215.328 151.333 218.242 152.71C216.419 154.374 213.8 157.206 214.387 159.459Z" fill="black"/>
<path d="M213.504 159.459C214.387 162.863 212.329 168.457 212.329 168.457C212.329 168.457 205.264 185.869 203.202 193.915C201.14 201.962 189.346 218.178 189.346 218.178C189.346 218.178 187.615 219.918 185.191 222.339C184.904 222.627 184.603 222.923 184.307 223.224C179.574 227.947 172.919 234.568 170.84 236.502C170.535 236.79 170.327 236.976 170.239 237.037C170.051 237.164 169.842 237.256 169.621 237.307C168.261 237.679 165.58 237.409 161.849 237.037C157.433 236.595 161.116 227.451 161.116 227.451L162.278 226.251L163.337 225.154L175.366 212.748L176.249 211.814L179.927 208.012L181.799 188.272L181.843 187.799C181.843 187.799 181.296 186.546 180.453 184.634C178.205 179.46 173.789 169.475 172.173 166.249C171.988 165.872 171.842 165.594 171.732 165.421C171.732 165.399 171.709 165.377 171.696 165.359C170.517 163.443 173.754 163.589 173.754 163.589C173.754 163.589 176.995 162.703 176.403 161.376C175.812 160.048 180.232 159.163 180.086 157.246C179.94 155.33 182.735 155.033 182.735 155.033C182.735 155.033 186.71 156.361 186.268 155.033C185.826 153.706 192.45 152.966 192.45 152.966C192.45 152.966 195.687 154.591 197.453 152.966C199.219 151.342 206.465 151.346 206.465 151.346C206.465 151.346 204.986 145.739 206.465 144.114C207.945 142.49 219.037 151.346 219.037 151.346C219.037 151.346 212.621 156.06 213.504 159.459Z" fill="#464353"/>
<path opacity="0.1" d="M176.708 234.993C176.708 234.993 188.926 252.254 197.462 246.651C205.997 241.048 185.981 226.438 185.981 226.438L176.708 234.993Z" fill="black"/>
<path d="M176.708 234.108C176.708 234.108 188.926 251.369 197.462 245.766C205.997 240.162 185.981 225.552 185.981 225.552L176.708 234.108Z" fill="#A1616A"/>
<path opacity="0.1" d="M235.331 243.61C236.263 235.462 238.965 223.22 236.762 219.507C235.671 217.665 234.863 214.156 234.271 210.314C233.953 208.247 233.702 206.083 233.499 204.029C232.96 198.581 232.788 193.916 232.788 193.916C232.788 193.916 227.489 170.228 228.518 165.359C229.162 162.314 228.421 154.684 227.776 149.399L228.116 149.129L235.733 159.163C235.733 159.163 239.999 193.686 237.791 197.08C237.349 197.784 236.682 199.97 235.936 202.998L240.149 201.227L239.266 209.933L241.915 242.539L235.331 243.61Z" fill="black"/>
<path d="M227.917 143.916C227.917 143.916 235.53 150.311 238.426 150.457C238.426 150.457 237.645 153.998 234.408 155.476C234.408 155.476 242.356 156.53 245.302 156.074C248.247 155.618 253.396 156.361 254.424 157.844C255.453 159.327 257.688 161.23 259.454 161.522C261.22 161.814 263.141 163.589 263.141 163.589L250.181 182.767C250.181 182.767 245.469 194.571 246.498 197.226C247.527 199.882 246.348 214.784 245.54 215.519C244.732 216.253 246.94 245.912 250.914 245.912C250.914 245.912 240.025 253.29 236.784 251.077C233.543 248.864 240.908 224.964 237.667 219.502C234.426 214.04 233.693 193.911 233.693 193.911C233.693 193.911 228.394 170.228 229.427 165.359C230.46 160.491 227.917 143.916 227.917 143.916Z" fill="#464353"/>
<path opacity="0.1" d="M316.165 190.95C312.231 189.72 306.203 189.684 305.09 200.244C303.443 196.341 302.41 193.017 302.41 193.017L314.492 187.892C314.492 187.892 315.233 189.078 316.165 190.95Z" fill="black"/>
<path d="M255.921 162.704L263.141 163.589C263.141 163.589 265.349 166.541 267.402 166.541C269.455 166.541 271.08 169.197 271.08 169.197C271.08 169.197 274.026 170.816 275.938 170.374C277.85 169.931 285.798 169.201 286.977 170.453C288.156 171.706 295.808 172.883 295.808 172.883C295.808 172.883 298.754 177.455 301.403 177.455C304.053 177.455 318.77 188.228 319.212 192.061C319.212 192.061 304.64 182.766 304.494 203.201C304.494 203.201 298.312 197.669 297.279 195.31C296.246 192.951 286.681 193.911 286.681 193.911C286.681 193.911 280.208 191.03 279.174 189.113C278.141 187.197 272.109 192.167 270.197 190.711C268.285 189.255 250.914 181.678 250.914 181.678L245.54 171.556L255.921 162.704Z" fill="#464353"/>
<path d="M222.631 180.629C223.322 180.629 223.881 180.068 223.881 179.376C223.881 178.684 223.322 178.124 222.631 178.124C221.941 178.124 221.382 178.684 221.382 179.376C221.382 180.068 221.941 180.629 222.631 180.629Z" fill="#563D3D"/>
<path d="M221.382 206.782C222.072 206.782 222.632 206.221 222.632 205.529C222.632 204.838 222.072 204.277 221.382 204.277C220.692 204.277 220.132 204.838 220.132 205.529C220.132 206.221 220.692 206.782 221.382 206.782Z" fill="#563D3D"/>
<path d="M222.631 193.017C223.322 193.017 223.881 192.456 223.881 191.764C223.881 191.073 223.322 190.512 222.631 190.512C221.941 190.512 221.382 191.073 221.382 191.764C221.382 192.456 221.941 193.017 222.631 193.017Z" fill="#563D3D"/>
<path d="M219.024 220.547C219.714 220.547 220.274 219.986 220.274 219.294C220.274 218.602 219.714 218.042 219.024 218.042C218.334 218.042 217.774 218.602 217.774 219.294C217.774 219.986 218.334 220.547 219.024 220.547Z" fill="#563D3D"/>
<path opacity="0.1" d="M179.53 384.44C178.916 386.162 177.004 385.529 177.004 385.529C170.99 384.865 167.347 368.604 168.892 366.74C170.438 364.877 167.93 360.575 167.93 360.575L164.675 361.845L161.695 352.666L163.576 350.342C165.448 353.595 168.129 358.274 168.76 359.469C169.959 361.947 170.528 364.684 170.416 367.435C170.314 370.312 173.644 384.068 179.53 384.44Z" fill="black"/>
<path opacity="0.1" d="M232.328 128.075C232.028 127.973 231.728 127.854 231.445 127.734C230.434 127.322 229.37 126.849 228.756 125.964C228.195 125.14 228.014 123.981 227.14 123.512C226.133 122.972 224.932 123.702 223.841 123.954C222.543 124.26 221.192 123.897 219.929 123.432C218.048 122.737 215.42 121.458 213.491 122.781C211.989 123.808 212.572 125.986 212.188 127.539C211.592 129.951 209.035 131.523 208.554 133.961C208.338 135.037 208.479 136.351 207.609 137.02C207.355 137.201 207.067 137.328 206.761 137.391C205.909 135.661 205.43 133.77 205.356 131.841C205.283 129.913 205.616 127.99 206.334 126.2C207.052 124.409 208.139 122.79 209.523 121.449C210.908 120.108 212.559 119.075 214.37 118.417C216.18 117.759 218.108 117.492 220.029 117.632C221.949 117.772 223.818 118.317 225.514 119.23C227.211 120.144 228.695 121.406 229.872 122.934C231.048 124.461 231.89 126.221 232.341 128.097L232.328 128.075Z" fill="black"/>
<path d="M219.92 122.534C221.17 122.999 222.53 123.361 223.833 123.052C224.941 122.791 226.12 122.06 227.127 122.609C228.01 123.083 228.186 124.238 228.743 125.061C229.357 125.946 230.421 126.442 231.436 126.831C232.194 127.185 233.004 127.413 233.834 127.504C234.25 127.545 234.669 127.489 235.06 127.341C235.45 127.193 235.802 126.956 236.086 126.65C236.872 125.698 236.634 124.273 236.166 123.136C235.698 121.998 235.035 120.865 235.084 119.635C235.141 118.174 236.197 116.904 236.285 115.448C236.4 113.602 234.912 111.991 233.225 111.243C231.715 110.575 229.988 110.389 228.606 109.473C227.03 108.437 226.164 106.64 224.998 105.153C223.303 102.989 220.649 101.373 217.933 101.683C216.26 101.873 214.741 102.75 213.076 103.091C210.546 103.617 207.87 102.852 205.353 103.44C204.745 103.536 204.189 103.841 203.781 104.303C203.163 105.135 203.481 106.299 203.754 107.3C204.244 109.101 204.452 111.141 203.476 112.726C202.372 114.518 200.028 115.275 199.007 117.116C198.713 117.657 198.55 118.259 198.532 118.875C198.514 119.49 198.642 120.101 198.906 120.657C199.392 121.675 200.332 122.503 200.478 123.623C200.579 124.428 200.248 125.212 200.076 125.999C199.904 126.787 199.952 127.77 200.602 128.212C201.251 128.655 202.16 128.544 202.659 129.098C202.81 129.317 202.91 129.568 202.95 129.832C202.991 130.096 202.971 130.365 202.893 130.62C202.717 131.505 202.341 132.306 202.143 133.174C202.015 133.599 201.98 134.047 202.038 134.487C202.097 134.928 202.248 135.351 202.483 135.728C203.339 136.887 205.07 136.816 206.457 136.507C206.857 136.443 207.238 136.292 207.574 136.064C208.457 135.396 208.303 134.081 208.519 133.006C209 130.571 211.557 128.991 212.153 126.584C212.537 125.03 211.954 122.848 213.456 121.821C215.407 120.56 218.039 121.839 219.92 122.534Z" fill="#464353"/>
<path opacity="0.1" d="M217.774 282.647C217.774 282.647 231.635 291.499 232.077 294.894L217.774 282.647Z" fill="black"/>
<path opacity="0.1" d="M217.063 289.729C217.063 289.729 232.96 297.399 232.076 300.054L217.063 289.729Z" fill="black"/>
<path opacity="0.1" d="M216.008 296.514C216.008 296.514 224.989 301.236 225.577 304.038L216.008 296.514Z" fill="black"/>
<path opacity="0.1" d="M219.836 307.136C219.836 307.136 225.723 312.301 226.902 310.973C228.081 309.645 219.836 307.136 219.836 307.136Z" fill="black"/>
<path opacity="0.1" d="M211.592 310.385C211.592 310.385 216.18 317.758 213.972 318.201C211.765 318.644 211.592 310.385 211.592 310.385Z" fill="black"/>
<path opacity="0.1" d="M191.452 179.376C191.452 179.376 183.65 184.094 186.003 185.276C188.357 186.458 191.452 179.376 191.452 179.376Z" fill="black"/>
<path opacity="0.1" d="M191.452 161.964C191.452 161.964 183.504 176.57 187.182 175.539C190.861 174.508 191.452 161.964 191.452 161.964Z" fill="black"/>
<path opacity="0.1" d="M275.916 176.57C275.916 176.57 271.059 182.298 271.942 185.422L275.916 176.57Z" fill="black"/>
<path opacity="0.1" d="M288.598 179.376C288.598 179.376 281.307 185.864 282.376 186.604L288.598 179.376Z" fill="black"/>
<path opacity="0.1" d="M293.137 187.347C293.137 187.347 292.4 191.614 293.578 191.773L293.137 187.347Z" fill="black"/>
<path opacity="0.05" d="M213.579 277.367C211.703 279.801 211.703 284.116 210.855 285.887C210.391 286.86 209.358 288.542 208.519 289.905C208.245 289.02 207.715 288.494 206.89 288.958C206.346 284.9 205.388 277.893 205.079 276.482C204.638 274.49 209.495 269.179 209.495 269.179C209.495 269.179 214.242 270.175 215.456 272.609C216.67 275.043 215.456 274.937 213.579 277.367Z" fill="black"/>
<path opacity="0.1" d="M189.072 226.145C183.773 226.88 173.913 241.043 173.913 241.043C173.913 241.043 172.619 239.158 170.822 236.524C168.561 233.183 165.523 228.628 163.315 225.176L176.253 211.801L178.607 214.341C178.607 214.341 183.173 218.913 183.173 219.798C183.173 220.144 184.056 221.193 185.178 222.339C186.895 224.123 189.072 226.145 189.072 226.145Z" fill="black"/>
<path opacity="0.1" d="M172.173 166.249C171.988 165.873 171.842 165.594 171.731 165.421L177.437 165.802L180.461 184.621C178.205 179.461 173.789 169.476 172.173 166.249Z" fill="black"/>
<path opacity="0.1" d="M184.299 223.238C179.565 227.96 172.911 234.581 170.831 236.515C170.526 236.803 170.319 236.989 170.231 237.051C170.043 237.178 169.833 237.269 169.612 237.321C167.533 234.258 164.565 229.846 162.269 226.256L163.329 225.158L175.366 212.748L176.854 214.355C176.854 214.355 181.42 218.927 181.42 219.812C181.42 220.237 182.846 221.777 184.299 223.238Z" fill="black"/>
<path d="M178.329 165.802L171.705 165.359C171.705 165.359 169.939 169.489 168.468 169.785C166.998 170.082 165.082 173.472 165.082 173.472C165.082 173.472 159.412 174.508 159.659 176.278C159.906 178.049 150.943 190.711 150.943 190.711C150.943 190.711 147.997 196.784 150.059 201.21C152.122 205.636 153.592 208.588 154.034 210.208C154.475 211.828 159.703 218.913 159.659 220.241C159.615 221.569 173.021 241.043 173.021 241.043C173.021 241.043 182.881 226.88 188.18 226.141C188.18 226.141 182.294 220.684 182.294 219.799C182.294 218.913 177.764 214.341 177.764 214.341L172.023 208.145C172.023 208.145 170.107 207.26 172.023 205.636C173.94 204.011 168.786 200.324 168.786 200.324C168.786 200.324 168.636 197.669 170.553 196.93C172.469 196.191 174.968 191.326 174.968 191.326L181.888 187.786L178.329 165.802Z" fill="#464353"/>
<path opacity="0.1" d="M153.036 195.159C153.036 195.159 160.984 193.539 161.13 194.57C161.275 195.602 153.036 195.159 153.036 195.159Z" fill="black"/>
<path opacity="0.1" d="M159.659 203.201C159.659 203.201 166.398 204.086 166.102 205.529C165.806 206.972 159.659 203.201 159.659 203.201Z" fill="black"/>
<path opacity="0.1" d="M165.228 178.119C165.228 178.119 171.705 187.312 172.589 185.409L165.228 178.119Z" fill="black"/>
<g opacity="0.1">
<path opacity="0.1" d="M204.152 109.623C204.191 108.551 204.057 107.479 203.754 106.45C203.627 106.015 203.529 105.571 203.463 105.122C203.406 105.872 203.505 106.626 203.754 107.335C203.964 108.082 204.097 108.849 204.152 109.623Z" fill="black"/>
<path opacity="0.1" d="M235.119 119.361C235.291 118.033 236.201 116.825 236.285 115.466C236.298 115.24 236.29 115.013 236.259 114.789C236.086 116.161 235.137 117.378 235.084 118.772C235.078 118.969 235.09 119.166 235.119 119.361Z" fill="black"/>
<path opacity="0.1" d="M236.086 125.778C235.801 126.085 235.45 126.321 235.06 126.469C234.669 126.617 234.25 126.673 233.834 126.632C233.003 126.541 232.194 126.314 231.436 125.96C230.421 125.548 229.356 125.075 228.743 124.189C228.182 123.366 228.001 122.211 227.127 121.737C226.12 121.197 224.919 121.928 223.828 122.18C222.53 122.49 221.179 122.127 219.92 121.662C218.039 120.967 215.407 119.688 213.478 121.007C211.976 122.034 212.559 124.216 212.175 125.769C211.579 128.177 209.022 129.753 208.541 132.191C208.325 133.267 208.466 134.581 207.596 135.25C207.259 135.478 206.876 135.629 206.474 135.692C205.07 136.002 203.339 136.073 202.5 134.913C202.258 134.582 202.106 134.193 202.059 133.785C201.945 134.488 202.103 135.208 202.5 135.799C203.357 136.958 205.088 136.887 206.474 136.578C206.876 136.515 207.259 136.363 207.596 136.135C208.479 135.467 208.325 134.152 208.541 133.077C209.022 130.642 211.579 129.062 212.175 126.655C212.559 125.101 211.976 122.919 213.478 121.892C215.407 120.564 218.039 121.852 219.92 122.547C221.17 123.012 222.53 123.375 223.828 123.065C224.941 122.804 226.12 122.074 227.127 122.623C228.01 123.096 228.182 124.251 228.743 125.075C229.356 125.96 230.421 126.455 231.436 126.845C232.194 127.199 233.003 127.426 233.834 127.518C234.25 127.558 234.669 127.503 235.06 127.354C235.45 127.206 235.801 126.97 236.086 126.663C236.3 126.376 236.453 126.047 236.535 125.697C236.617 125.348 236.627 124.985 236.563 124.632C236.516 125.052 236.351 125.45 236.086 125.778Z" fill="black"/>
<path opacity="0.1" d="M200.478 122.755C200.332 121.636 199.392 120.808 198.906 119.79C198.723 119.407 198.607 118.995 198.562 118.573C198.477 119.292 198.596 120.021 198.906 120.675C199.378 121.662 200.27 122.476 200.456 123.543C200.501 123.283 200.508 123.018 200.478 122.755Z" fill="black"/>
<path opacity="0.1" d="M202.933 129.668C202.996 129.43 203.006 129.181 202.963 128.939C202.919 128.696 202.823 128.466 202.681 128.265C202.182 127.694 201.233 127.823 200.624 127.38C200.462 127.252 200.328 127.093 200.228 126.912C200.129 126.731 200.067 126.532 200.045 126.327C199.948 127.048 200.045 127.845 200.624 128.265C201.202 128.686 202.182 128.597 202.681 129.15C202.806 129.3 202.892 129.478 202.933 129.668Z" fill="black"/>
</g>
<path d="M98.1131 358.897C98.1131 358.897 79.8498 357.791 82.0002 370.622C82.0002 370.622 81.5587 372.888 83.6252 373.919C83.6252 373.919 83.6561 372.968 85.4975 373.291C86.1524 373.4 86.8179 373.431 87.4801 373.384C88.3763 373.322 89.2285 372.971 89.9088 372.383C89.9088 372.383 95.0442 370.254 97.0401 361.845C97.0401 361.845 98.515 360.008 98.4576 359.539L95.3666 360.867C95.3666 360.867 96.4219 363.08 95.5918 364.948C95.5918 364.948 95.4902 360.964 94.8985 361.04C94.7793 361.062 93.2956 361.814 93.2956 361.814C93.2956 361.814 95.1105 365.696 93.7372 368.519C93.7372 368.519 94.2582 363.735 92.726 362.093L90.5579 363.363C90.5579 363.363 92.6774 367.373 91.2379 370.648C91.2379 370.648 91.6088 365.629 90.1031 363.673L88.1337 365.209C88.1337 365.209 90.1251 369.161 88.9108 371.879C88.9108 371.879 88.7518 366.032 87.7097 365.594C87.7097 365.594 85.9876 367.112 85.7271 367.736C85.7271 367.736 87.0871 370.609 86.2437 372.122C86.2437 372.122 85.7271 368.227 85.2988 368.21C85.2988 368.21 83.5855 370.79 83.4089 372.556C83.4089 372.556 83.4839 369.927 84.8837 367.962C83.8959 368.151 82.9845 368.625 82.2608 369.325C82.2608 369.325 82.5257 367.502 85.3076 367.342C85.3076 367.342 86.725 365.386 87.1048 365.266C87.1048 365.266 84.3361 365.036 82.6626 365.78C82.6626 365.78 84.1374 364.063 87.6082 364.842L89.5511 363.253C89.5511 363.253 85.9126 362.757 84.3671 363.306C84.3671 363.306 86.1333 361.783 90.0766 362.894L92.1873 361.628C92.1873 361.628 89.0963 360.956 87.2328 361.186C87.2328 361.186 89.1846 360.132 92.8055 361.274L94.3201 360.593C94.3201 360.593 92.046 360.15 91.3792 360.075C90.7124 360 90.6771 359.818 90.6771 359.818C92.1172 359.579 93.595 359.745 94.9471 360.296C94.9471 360.296 98.1705 359.097 98.1131 358.897Z" fill="#43A498"/>
<path opacity="0.1" d="M85.5327 377.23C92.6733 377.23 98.4619 376.249 98.4619 375.039C98.4619 373.829 92.6733 372.848 85.5327 372.848C78.3921 372.848 72.6035 373.829 72.6035 375.039C72.6035 376.249 78.3921 377.23 85.5327 377.23Z" fill="#43A498"/>
</g>
<defs>
<filter id="filter0_d" x="0" y="0" width="384" height="384" filterUnits="userSpaceOnUse" color-interpolation-filters="sRGB">
<feFlood flood-opacity="0" result="BackgroundImageFix"/>
<feColorMatrix in="SourceAlpha" type="matrix" values="0 0 0 0 0 0 0 0 0 0 0 0 0 0 0 0 0 0 127 0"/>
<feOffset dy="4"/>
<feGaussianBlur stdDeviation="2"/>
<feColorMatrix type="matrix" values="0 0 0 0 0 0 0 0 0 0 0 0 0 0 0 0 0 0 0.25 0"/>
<feBlend mode="normal" in2="BackgroundImageFix" result="effect1_dropShadow"/>
<feBlend mode="normal" in="SourceGraphic" in2="effect1_dropShadow" result="shape"/>
</filter>
<linearGradient id="paint0_linear" x1="234.642" y1="385.644" x2="234.642" y2="100.554" gradientUnits="userSpaceOnUse">
<stop stop-color="#808080" stop-opacity="0.25"/>
<stop offset="0.54" stop-color="#808080" stop-opacity="0.12"/>
<stop offset="1" stop-color="#808080" stop-opacity="0.1"/>
</linearGradient>
<clipPath id="clip0">
<rect width="508" height="299" fill="white" transform="translate(24 96)"/>
</clipPath>
</defs>
</svg>
