<svg width="455" height="384" viewBox="0 0 455 384" fill="none" xmlns="http://www.w3.org/2000/svg">
<g filter="url(#filter0_d)">
<path d="M377 188C377 290.173 294.173 373 192 373C89.8273 373 7 290.173 7 188C7 85.8273 89.8273 3 192 3C294.173 3 377 85.8273 377 188Z" stroke="#43A498" stroke-width="6"/>
</g>
<g clip-path="url(#clip0)">
<path opacity="0.1" d="M421.264 277.035C420.774 278.091 420.285 279.133 419.798 280.16C419.037 281.756 418.287 283.321 417.546 284.856C417.216 285.535 416.887 286.203 416.566 286.87C412.932 294.289 409.539 300.851 406.657 306.247C404.042 311.137 400.16 315.234 395.416 318.108C390.672 320.983 385.242 322.531 379.695 322.588L315.616 323.285H314.94L309.447 323.344L304.749 323.395L290.34 323.551H289.757L282.422 323.631H282.198L236.986 324.121L196.629 324.543L191.935 324.594L162.779 324.911H162.745L143.837 325.113H143.634L83.8444 325.759L65.9583 325.953C62.1413 325.997 58.3405 325.453 54.6891 324.34C48.335 322.422 42.6245 318.809 38.172 313.89C30.4902 305.432 24.8915 295.564 21.1309 284.856C20.5872 283.31 20.0802 281.745 19.6098 280.16C6.59129 236.182 22.4619 179.444 51.0257 141.475C52.2229 139.888 53.4398 138.339 54.6764 136.831L54.706 136.797C63.4906 126.021 73.34 117.018 83.8317 110.617C102.424 99.2542 123.022 96.0535 143.283 105.592C160.426 113.666 176.432 117.462 191.947 118.492C193.515 118.593 195.082 118.669 196.642 118.716C232.232 119.835 265.588 107.019 304.757 98.7475C306.316 98.4182 307.88 98.093 309.456 97.7848C337.398 92.2279 368.396 89.2975 405.258 95.4582C409.088 96.0834 412.867 96.9866 416.566 98.1606C418.191 98.6842 419.757 99.2472 421.264 99.8496C438.859 107.003 448.455 120.219 452.532 136.78C452.918 138.317 453.252 139.881 453.534 141.471C460.763 181.306 439.59 237.812 421.264 277.035Z" fill="#43A498"/>
<g opacity="0.1">
<path opacity="0.1" d="M83.8316 110.617V325.806L65.9454 326C62.1285 326.043 58.3276 325.499 54.6763 324.387V136.797H54.7058C63.4905 126.008 73.3399 117.006 83.8316 110.617Z" fill="#43A498"/>
<path opacity="0.1" d="M453.555 141.475H51.0259C52.2231 139.888 53.44 138.34 54.6766 136.831V136.797H452.554C452.94 138.325 453.273 139.885 453.555 141.475Z" fill="#43A498"/>
<path opacity="0.1" d="M421.264 99.8538V280.156H419.798C419.037 281.752 418.287 283.317 417.546 284.851C417.216 285.531 416.887 286.198 416.565 286.866V98.1479C418.191 98.6715 419.757 99.2402 421.264 99.8538Z" fill="#43A498"/>
<path opacity="0.1" d="M309.456 97.7722V323.361L304.757 323.412V98.735C306.317 98.4056 307.88 98.0805 309.456 97.7722Z" fill="#43A498"/>
<path opacity="0.1" d="M196.642 118.703V324.585L191.947 324.636V118.479C193.515 118.581 195.083 118.64 196.642 118.703Z" fill="#43A498"/>
<path opacity="0.1" d="M419.798 280.16C419.038 281.756 418.287 283.321 417.546 284.856H21.131C20.5873 283.31 20.0803 281.745 19.6099 280.16H419.798Z" fill="#43A498"/>
</g>
<path d="M112.438 204.248H104.41V228.595H112.438V204.248Z" fill="#3F3D56"/>
<path d="M328.496 202.981H320.467V228.738H328.496V202.981Z" fill="#3F3D56"/>
<path d="M379.695 317.336V322.825L315.502 323.416L314.818 323.429L290.42 323.652L289.837 323.661L282.422 323.724H282.202L236.999 324.142L162.796 324.831H162.733L143.866 325.008L143.664 325.012L59.8315 325.781V319.447L79.5431 307.624L119.093 307.294L119.938 307.29L120.217 307.286L121.062 307.273L140.051 307.117L140.9 307.113L141.171 307.109L142.016 307.104L148.105 307.054L148.265 307.049L163.286 306.923H163.409L280.622 305.935L283.491 305.914H283.778L285.967 305.892L301.876 305.762L302.721 305.749L303.502 305.74H303.908L308.856 305.702L309.836 305.69L311.15 305.681L315.27 305.643L321.807 305.588L322.652 305.58L324.122 305.572H324.397L355.965 305.301L379.695 317.336Z" fill="#65617D"/>
<path opacity="0.2" d="M379.695 317.336V322.825L315.502 323.416L314.818 323.429L290.42 323.652L289.837 323.661L282.422 323.724H282.202L236.999 324.142L162.796 324.831H162.733L143.866 325.008L143.664 325.012L59.8315 325.781V319.447L79.5431 307.624L119.093 307.294L119.938 307.29L120.217 307.286L121.062 307.273L140.051 307.117L140.9 307.113L141.171 307.109L142.016 307.104L148.105 307.054L148.265 307.049L163.286 306.923H163.409L280.622 305.935L283.491 305.914H283.778L285.967 305.892L301.876 305.762L302.721 305.749L303.502 305.74H303.908L308.856 305.702L309.836 305.69L311.15 305.681L315.27 305.643L321.807 305.588L322.652 305.58L324.122 305.572H324.397L355.965 305.301L379.695 317.336Z" fill="black"/>
<path d="M140.114 296.227V306.568C140.115 307.058 139.976 307.538 139.714 307.952C139.452 308.366 139.078 308.697 138.635 308.907C138.306 309.067 137.945 309.153 137.579 309.161L122.832 309.473C122.439 309.483 122.048 309.4 121.692 309.232C121.241 309.026 120.859 308.695 120.592 308.278C120.324 307.861 120.183 307.376 120.183 306.88V296.227H140.114Z" fill="#3F3D56"/>
<path opacity="0.1" d="M140.114 296.227V306.568C140.115 307.058 139.976 307.538 139.714 307.952C139.452 308.366 139.078 308.697 138.635 308.907C138.306 309.067 137.945 309.153 137.579 309.161L122.832 309.473C122.439 309.483 122.048 309.4 121.692 309.232C121.241 309.026 120.859 308.695 120.592 308.278C120.324 307.861 120.183 307.376 120.183 306.88V296.227H140.114Z" fill="black"/>
<path d="M140.959 296.227V306.568C140.959 307.058 140.82 307.538 140.559 307.952C140.297 308.366 139.923 308.697 139.48 308.907C139.151 309.067 138.79 309.153 138.424 309.161L123.677 309.473C123.283 309.483 122.893 309.4 122.536 309.232C122.086 309.026 121.704 308.695 121.437 308.278C121.169 307.861 121.027 307.376 121.028 306.88V296.227H140.959Z" fill="#3F3D56"/>
<path d="M322.652 296.227H302.721V309.528H322.652V296.227Z" fill="#3F3D56"/>
<path opacity="0.1" d="M322.652 296.227H302.721V309.528H322.652V296.227Z" fill="black"/>
<path d="M321.807 296.227H301.875V309.528H321.807V296.227Z" fill="#3F3D56"/>
<path opacity="0.1" d="M112.438 204.243V206.663L104.41 206.456V204.243H112.438Z" fill="black"/>
<path d="M165.281 136.083L155.634 205.333C155.573 205.775 155.351 206.179 155.01 206.468C154.67 206.757 154.234 206.911 153.788 206.899L76.5472 204.898L75.081 204.86C74.8257 204.854 74.5746 204.794 74.3439 204.685C74.1133 204.575 73.9084 204.418 73.7425 204.224C73.5767 204.03 73.4536 203.803 73.3814 203.558C73.3091 203.314 73.2893 203.056 73.3232 202.804L84.153 130.311C84.2228 129.862 84.4585 129.456 84.8137 129.172C85.1689 128.888 85.6176 128.748 86.0713 128.778L163.591 134.023C163.841 134.037 164.085 134.103 164.308 134.217C164.532 134.331 164.729 134.489 164.888 134.683C165.046 134.876 165.163 135.101 165.231 135.342C165.299 135.583 165.316 135.835 165.281 136.083Z" fill="#65617D"/>
<path d="M89.3376 133.871L81.1699 197.77L152.157 200.021L160.886 138.372L89.3376 133.871Z" fill="#43A498"/>
<path d="M261.739 132.883H179.761C178.518 132.883 177.509 133.89 177.509 135.133V203.821C177.509 205.064 178.518 206.072 179.761 206.072H261.739C262.982 206.072 263.991 205.064 263.991 203.821V135.133C263.991 133.89 262.982 132.883 261.739 132.883Z" fill="#65617D"/>
<path d="M260.183 137.81H181.591V198.754H260.183V137.81Z" fill="#43A498"/>
<path opacity="0.1" d="M328.496 202.977V204.577L320.467 204.742V202.977H328.496Z" fill="black"/>
<path d="M364.72 201.625C364.731 201.8 364.707 201.976 364.649 202.141C364.591 202.306 364.5 202.458 364.382 202.588C364.263 202.717 364.12 202.821 363.96 202.894C363.801 202.966 363.628 203.006 363.452 203.01L284.353 204.644C284.024 204.651 283.705 204.533 283.46 204.315C283.215 204.096 283.061 203.793 283.03 203.466L276.232 132.832C276.215 132.657 276.234 132.48 276.287 132.312C276.341 132.144 276.428 131.989 276.543 131.856C276.659 131.723 276.8 131.615 276.958 131.538C277.117 131.461 277.289 131.417 277.465 131.409L355.965 127.507L356.81 127.465C357.146 127.447 357.476 127.561 357.729 127.781C357.983 128.002 358.142 128.312 358.171 128.647L364.72 201.625Z" fill="#65617D"/>
<path d="M280.749 135.56L352.441 132.038L358.496 196.221L287.37 197.91L280.749 135.56Z" fill="#43A498"/>
<path opacity="0.1" d="M364.72 201.625C364.731 201.8 364.707 201.976 364.649 202.141C364.591 202.306 364.5 202.458 364.382 202.588C364.263 202.717 364.12 202.821 363.96 202.894C363.8 202.966 363.628 203.006 363.452 203.01L355.965 127.507L356.81 127.465C357.146 127.447 357.476 127.561 357.729 127.781C357.983 128.002 358.141 128.312 358.17 128.647L364.72 201.625Z" fill="black"/>
<path opacity="0.1" d="M86.084 128.774L76.5472 204.898L75.081 204.86C74.8257 204.854 74.5746 204.794 74.3439 204.684C74.1133 204.575 73.9084 204.418 73.7425 204.224C73.5767 204.03 73.4536 203.803 73.3814 203.558C73.3091 203.314 73.2893 203.056 73.3232 202.803L84.1529 130.311C84.2219 129.859 84.4591 129.449 84.8171 129.165C85.1751 128.88 85.6275 128.74 86.084 128.774Z" fill="black"/>
<path opacity="0.1" d="M112.438 221.383H104.41V228.595H112.438V221.383Z" fill="black"/>
<path opacity="0.1" d="M140.959 296.223V298.321L121.028 298.853V296.223H140.959Z" fill="black"/>
<path d="M176.136 223.895V294.918C176.131 295.351 175.959 295.766 175.656 296.077C175.353 296.387 174.943 296.57 174.509 296.586L93.529 298.739H93.5079C93.067 298.734 92.6456 298.556 92.3338 298.245C92.0219 297.933 91.8443 297.512 91.8389 297.071V223.895C91.8443 223.454 92.0219 223.033 92.3338 222.722C92.6456 222.41 93.067 222.233 93.5079 222.227H174.467C174.908 222.233 175.329 222.41 175.641 222.722C175.953 223.033 176.13 223.454 176.136 223.895Z" fill="#65617D"/>
<path opacity="0.1" d="M93.529 222.227V298.739H93.5079C93.067 298.734 92.6456 298.556 92.3338 298.245C92.0219 297.933 91.8443 297.512 91.8389 297.071V223.895C91.8443 223.454 92.0219 223.033 92.3338 222.722C92.6456 222.41 93.067 222.233 93.5079 222.227H93.529Z" fill="black"/>
<path d="M97.2266 226.762H172.228V289.361L97.2266 291.05V226.762Z" fill="#D4DFEC"/>
<path opacity="0.1" d="M328.496 221.383H320.467V228.738H328.496V221.383Z" fill="black"/>
<path opacity="0.1" d="M321.807 296.223V298.929L301.875 298.397V296.223H321.807Z" fill="black"/>
<path d="M348.11 223.895V297.071C348.104 297.516 347.924 297.94 347.607 298.252C347.291 298.564 346.864 298.739 346.419 298.739L265.423 296.586C264.989 296.57 264.578 296.387 264.276 296.077C263.973 295.766 263.801 295.351 263.796 294.918V223.895C263.801 223.454 263.979 223.033 264.291 222.722C264.603 222.41 265.024 222.233 265.465 222.227H346.424C346.868 222.228 347.293 222.404 347.609 222.716C347.924 223.028 348.104 223.451 348.11 223.895Z" fill="#65617D"/>
<path opacity="0.1" d="M348.11 223.895V297.071C348.105 297.516 347.924 297.94 347.608 298.252C347.291 298.564 346.865 298.739 346.42 298.739V222.227C346.865 222.227 347.291 222.402 347.608 222.714C347.924 223.026 348.105 223.451 348.11 223.895Z" fill="black"/>
<path d="M342.723 226.762H267.722V289.361L342.723 291.05V226.762Z" fill="#D4DFEC"/>
<path d="M261.7 223.895V294.918C261.695 295.351 261.523 295.766 261.22 296.077C260.918 296.387 260.507 296.57 260.073 296.586L179.093 298.739C178.649 298.739 178.222 298.564 177.906 298.252C177.589 297.94 177.409 297.516 177.403 297.071V223.895C177.409 223.454 177.586 223.033 177.898 222.722C178.21 222.41 178.631 222.233 179.072 222.227H260.031C260.472 222.233 260.893 222.41 261.205 222.722C261.517 223.033 261.695 223.454 261.7 223.895Z" fill="#65617D"/>
<path d="M182.791 226.762H257.792V289.361L182.791 291.05V226.762Z" fill="#D4DFEC"/>
<path opacity="0.1" d="M379.695 317.335V322.825L315.502 323.416L314.818 323.429L290.42 323.652L289.837 323.661L282.422 323.724H282.202L236.999 324.142L162.796 324.83H162.733L143.866 325.008L143.664 325.012L59.8315 325.781V319.447L145.4 318.885H145.603L162.923 318.767H163.003L282.616 317.977H282.739L282.81 317.973H283.009L285.033 317.96H285.65L317.125 317.749L318.984 317.741L319.398 317.737L379.695 317.335Z" fill="black"/>
<path d="M220.887 228.595C232.866 228.595 242.576 218.891 242.576 206.92C242.576 194.95 232.866 185.246 220.887 185.246C208.909 185.246 199.198 194.95 199.198 206.92C199.198 218.891 208.909 228.595 220.887 228.595Z" fill="#FBBEBE"/>
<path d="M242.581 251.257C242.581 251.257 200.538 256.324 204.552 251.257C206.005 249.425 206.407 243.994 206.327 237.808C206.301 235.929 206.234 233.983 206.136 232.045C205.672 222.755 204.552 213.677 204.552 213.677C204.552 213.677 241.313 196.364 237.088 210.087C235.397 215.632 235.951 223.418 237.235 230.727C237.611 232.86 238.047 234.95 238.503 236.934C239.617 241.775 240.978 246.555 242.581 251.257Z" fill="#FBBEBE"/>
<path opacity="0.1" d="M242.581 251.257C242.581 251.257 200.538 256.324 204.552 251.257C206.005 249.425 206.407 243.994 206.327 237.808C212.737 235.072 220.892 237.112 220.892 237.112C229.478 235.401 234.983 235.735 238.503 236.934C239.617 241.775 240.978 246.555 242.581 251.257Z" fill="black"/>
<path d="M162.78 325.307V324.953L236.986 324.146L282.198 323.724H282.325L282.278 324.349L282.342 323.724H282.422V323.652L283.001 317.973L283.22 315.824L283.288 315.152L283.347 314.591L285.959 305.888L288.57 297.198L290.767 289.88L294.122 278.699C294.122 278.699 292.221 274.266 291.164 272.999C290.108 271.732 289.052 263.076 289.052 263.076C289.052 263.076 280.035 254.491 276.092 253.503C274.44 253.081 271.178 252.519 267.713 251.814C266.416 251.553 265.085 251.274 263.805 250.97C263.082 250.805 262.372 250.632 261.692 250.459C260.368 250.128 259.063 249.725 257.784 249.251C257.113 249.008 256.474 248.683 255.882 248.284C252.776 246.008 244.993 245.751 244.693 245.751C244.692 245.741 244.692 245.731 244.693 245.721V245.683C244.704 245.506 244.704 245.328 244.693 245.151C244.693 244.982 244.693 244.784 244.655 244.56C244.655 244.492 244.655 244.421 244.626 244.349C244.604 244.197 244.579 244.036 244.541 243.868C244.528 243.792 244.511 243.717 244.49 243.644C244.368 243.135 244.191 242.641 243.962 242.17C243.933 242.102 243.895 242.031 243.861 241.963C243.654 241.573 243.413 241.202 243.143 240.853C243.088 240.781 243.028 240.705 242.965 240.633C242.619 240.225 242.234 239.852 241.816 239.518C241.702 239.43 241.583 239.337 241.461 239.252C241.392 239.197 241.32 239.146 241.245 239.1L240.869 238.855L240.519 238.653C240.21 238.484 239.885 238.319 239.53 238.163C239.42 238.112 239.302 238.066 239.183 238.019C239.065 237.973 238.879 237.901 238.723 237.842H238.697L238.38 237.715C238.14 237.635 237.895 237.563 237.637 237.491L237.244 237.39L236.821 237.293L236.399 237.204C235.976 237.12 235.524 237.044 235.051 236.985L234.569 236.926L234.075 236.875L233.563 236.833L232.837 236.791L231.992 236.761C228.265 236.761 224.548 237.156 220.904 237.939C218.373 237.376 215.78 237.138 213.189 237.23H212.821L212.398 237.255H212.128L211.583 237.306C211.401 237.306 211.215 237.344 211.034 237.369C210.852 237.394 210.662 237.415 210.48 237.445L210.201 237.491C209.927 237.538 209.648 237.589 209.356 237.648C209.263 237.665 209.17 237.686 209.077 237.711C208.71 237.791 208.342 237.888 207.979 237.998C207.797 238.049 207.615 238.108 207.434 238.171C207.341 238.197 207.252 238.23 207.163 238.264L206.893 238.361L206.627 238.467L206.31 238.594C206.149 238.661 205.993 238.733 205.836 238.809C205.748 238.847 205.659 238.889 205.574 238.936C205.49 238.982 205.401 239.02 205.321 239.066C204.366 239.56 203.483 240.182 202.697 240.916L202.481 241.123L202.27 241.338C202.198 241.41 202.131 241.486 202.063 241.562C201.788 241.863 201.531 242.18 201.294 242.512C201.226 242.601 201.163 242.689 201.1 242.782C200.832 243.178 200.589 243.589 200.373 244.015C200.318 244.117 200.267 244.222 200.217 244.324C199.872 245.037 199.589 245.779 199.372 246.54C199.293 246.822 199.221 247.103 199.156 247.385C199.156 247.385 190.211 251.329 182.791 254.183C180.818 254.943 178.959 255.631 177.404 256.151C176.952 256.303 176.529 256.442 176.136 256.573C175.283 256.881 174.397 257.085 173.495 257.181C173.07 257.188 172.646 257.228 172.228 257.299C168.818 257.853 162.974 260.255 162.336 262.666C162.284 262.859 162.27 263.059 162.294 263.257C162.294 263.257 162.294 263.287 162.294 263.304C162.716 266.26 159.758 265.837 159.758 265.837C159.758 265.837 158.702 273.649 157.223 275.76C156.154 277.28 155.423 280.671 155.33 283.23C155.277 284.027 155.34 284.828 155.516 285.607C155.516 285.628 155.516 285.649 155.516 285.666C155.685 286.232 155.279 287.778 154.591 289.758C153.843 291.933 152.753 294.635 151.705 297.185C150.124 301.036 148.637 304.533 148.544 305.301C148.506 305.643 148.396 306.255 148.244 307.045C147.627 310.263 146.258 316.389 145.582 318.868C145.079 320.718 144.348 323.251 143.845 324.991C143.845 325.041 143.816 325.092 143.803 325.139L162.746 324.953V325.307H162.805H162.78Z" fill="#43A498"/>
<path opacity="0.1" d="M169.692 275.537C169.692 275.537 193.777 287.993 202.439 286.515L169.692 275.537Z" fill="black"/>
<path opacity="0.1" d="M218.707 270.47C218.707 270.47 242.158 278.07 249.975 279.126C257.792 280.182 218.707 270.47 218.707 270.47Z" fill="black"/>
<path opacity="0.1" d="M244.718 246.013C232.465 248.267 209.394 247.782 199.422 247.44C203.077 234.35 220.9 238.801 220.9 238.801C242.96 234.401 244.651 243.53 244.718 246.013Z" fill="black"/>
<path d="M244.718 245.168C232.465 247.423 209.394 246.937 199.422 246.595C203.077 233.506 220.9 237.956 220.9 237.956C242.96 233.556 244.651 242.685 244.718 245.168Z" fill="#43A498"/>
<path d="M309.764 302.877C309.764 302.877 324.198 300.661 324.481 306.994C324.764 313.328 317.121 317.753 317.121 317.753L309.764 302.877Z" fill="#FBBEBE"/>
<path opacity="0.1" d="M237.235 230.727C236.614 231.004 235.98 231.25 235.334 231.462C230.779 233.033 226.186 234.616 221.39 235.19C216.594 235.765 211.562 235.258 207.379 232.868C206.939 232.62 206.516 232.345 206.111 232.045C205.646 222.755 204.526 213.677 204.526 213.677C204.526 213.677 241.287 196.364 237.062 210.087C235.38 215.632 235.951 223.418 237.235 230.727Z" fill="black"/>
<path d="M214.938 173.043C214.335 173.202 213.703 173.218 213.092 173.09C212.482 172.962 211.91 172.692 211.422 172.304L212.301 173.524C211.783 173.584 211.258 173.53 210.763 173.366C210.269 173.202 209.816 172.932 209.436 172.574C209.356 173.667 209.402 174.765 209.571 175.847C208.117 175.917 206.685 175.468 205.532 174.58C205.509 174.961 205.604 175.34 205.804 175.665C206.003 175.99 206.298 176.247 206.647 176.4C205.187 176.225 203.712 176.588 202.499 177.42C201.286 178.252 200.418 179.497 200.056 180.922L202.261 181.125C200.528 181.495 198.972 182.443 197.85 183.815C197.174 184.659 196.659 185.74 196.954 186.77C197.25 187.801 198.678 188.459 199.456 187.725C198.35 189.044 197.546 190.589 197.101 192.251C196.656 193.913 196.58 195.653 196.878 197.348C197.079 198.07 197.145 198.823 197.073 199.569C196.933 200.266 196.494 200.869 196.274 201.549C195.851 202.782 196.253 204.121 196.629 205.35L198.611 211.861C199.329 214.213 200.043 216.569 200.981 218.845C201.645 220.284 202.21 221.766 202.671 223.283C203.204 225.326 203.225 227.564 204.361 229.35C205.14 230.474 206.182 231.392 207.395 232.023C211.574 234.413 216.624 234.92 221.407 234.346C226.19 233.771 230.779 232.188 235.329 230.617C236.34 230.313 237.311 229.887 238.22 229.35C241.368 227.29 242.069 223.076 242.656 219.364C243.311 215.226 244.186 211.096 245.737 207.203C246.658 204.885 247.849 202.533 247.647 200.05C247.389 196.752 244.777 194.08 244.131 190.837C243.915 189.753 243.925 188.636 244.161 187.556C244.361 186.912 244.473 186.245 244.494 185.571C244.423 184.212 243.307 183.164 242.259 182.29C239.986 180.393 237.639 178.6 235.22 176.911C235.097 176.066 236.246 175.703 236.766 175.036C237.501 174.094 236.741 172.6 235.625 172.16C234.51 171.721 233.259 172.008 232.097 172.3C232.173 171.705 232.054 171.102 231.76 170.581C231.465 170.059 231.01 169.646 230.461 169.404C229.913 169.161 229.301 169.102 228.717 169.235C228.132 169.368 227.606 169.686 227.217 170.142C226.908 169.435 226.415 168.824 225.789 168.372C225.163 167.92 224.428 167.645 223.659 167.575C220.857 167.355 220.803 169.496 219.011 170.674C217.219 171.852 215.74 170.298 214.363 169.167C214.11 169.806 214.03 170.501 214.131 171.182C214.232 171.862 214.51 172.504 214.938 173.043Z" fill="#3F3D56"/>
<path d="M320.467 315.545C320.467 315.545 320.091 316.44 319.398 317.736C318.35 319.731 317.074 321.597 315.595 323.297L315.481 323.42H314.797L290.399 323.644H289.816L289.744 323.559L285.012 317.947L283.229 315.832L283.157 315.743L283.005 315.566L282.92 315.465L282.81 315.334L279.341 311.221L280.609 305.943L282.768 297.05L282.823 296.835L283.246 295.146L283.546 293.879L284.551 289.749L287.999 275.541L294.126 278.707L300.587 290.108L304.056 296.231H305.957C306.316 296.231 307.14 296.923 307.968 297.721C308.264 298.004 308.56 298.304 308.814 298.566C309.566 299.343 310.161 300.01 310.161 300.01C310.161 300.01 313.242 300.078 314.07 302.501C314.113 302.619 314.148 302.739 314.176 302.86C314.45 303.813 314.808 304.74 315.245 305.63C315.79 306.817 316.474 308.164 317.167 309.511C318.456 311.981 319.766 314.333 320.247 315.186L320.307 315.291L320.467 315.545Z" fill="#43A498"/>
<path opacity="0.1" d="M284.171 296.48L284.129 297.084V297.126L284.057 298.097L283.495 305.913L282.815 315.33L282.62 317.981L282.198 323.656V323.728L236.986 324.15L162.792 324.953V325.307H162.733V324.953V324.834L162.923 318.771L163.286 306.922L163.599 296.877L163.629 295.876C163.647 295.272 163.789 294.678 164.045 294.131C164.3 293.583 164.665 293.094 165.117 292.692C165.569 292.29 166.097 291.984 166.671 291.793C167.245 291.603 167.852 291.531 168.454 291.582C170.449 291.751 173.039 291.958 176.136 292.177L177.404 292.27C195.29 293.512 228.345 295.116 261.7 293.115C262.402 293.077 263.107 293.035 263.813 292.984C268.985 292.659 274.153 292.241 279.27 291.717C279.917 291.649 280.57 291.724 281.185 291.936C281.8 292.148 282.361 292.493 282.828 292.945C283.295 293.397 283.658 293.946 283.89 294.553C284.122 295.16 284.218 295.811 284.171 296.459V296.48Z" fill="black"/>
<path d="M162.779 325.308V324.953L236.986 324.146L282.198 323.724H282.324V323.652L282.747 317.977L282.929 315.444L283.622 305.897L284.167 298.338V298.152C284.192 297.804 284.176 297.454 284.12 297.109C284.123 297.095 284.123 297.081 284.12 297.067C284.004 296.355 283.714 295.682 283.275 295.108C282.81 294.512 282.2 294.044 281.504 293.748C280.808 293.453 280.047 293.339 279.295 293.419C274.178 293.943 269.01 294.361 263.838 294.686C263.133 294.736 262.427 294.779 261.726 294.817C228.37 296.797 195.315 295.192 177.429 293.972L176.161 293.879C173.064 293.66 170.474 293.457 168.479 293.284C167.382 293.191 166.29 293.508 165.413 294.173C164.536 294.839 163.936 295.805 163.73 296.886C163.687 297.114 163.662 297.346 163.654 297.578L163.367 306.935L162.974 318.788L162.788 324.851V324.97V325.324L162.779 325.308Z" fill="#3F3D56"/>
<path opacity="0.1" d="M284.298 299.44L283.778 305.914L283.005 315.562L282.81 317.977L282.388 323.386L282.363 323.657V323.728L282.299 324.353L282.346 323.728H282.223L237.011 324.151L162.792 324.953V324.835L162.999 318.771L163.422 306.923L163.692 299.048C163.705 298.6 163.831 298.162 164.056 297.775C164.282 297.388 164.601 297.063 164.985 296.831C165.463 296.538 166.023 296.405 166.582 296.451C167.47 296.523 168.56 296.607 169.832 296.7C171.898 296.852 174.446 297.029 177.412 297.215C182.905 297.561 189.797 297.933 197.694 298.237C219.666 299.081 249.328 299.364 277.503 296.898C278.771 296.789 280.081 296.666 281.361 296.544C281.868 296.493 282.379 296.59 282.832 296.822C282.96 296.886 283.082 296.963 283.195 297.05C283.563 297.317 283.854 297.675 284.04 298.089C284.083 298.172 284.119 298.258 284.146 298.347C284.273 298.697 284.324 299.069 284.298 299.44Z" fill="black"/>
<path opacity="0.1" d="M140.959 305.221V306.568C140.959 307.058 140.82 307.538 140.559 307.952C140.297 308.366 139.923 308.697 139.48 308.907L122.536 309.233C122.086 309.026 121.704 308.695 121.437 308.278C121.169 307.861 121.027 307.376 121.028 306.881V305.614L140.959 305.221Z" fill="black"/>
<path d="M141.171 309.701L119.093 310.123V306.462L141.171 306.04V309.701Z" fill="#3F3D56"/>
<path opacity="0.1" d="M141.171 309.701L119.093 310.123V306.462L141.171 306.04V309.701Z" fill="black"/>
<path d="M142.016 309.701L119.938 310.123V306.462L142.016 306.04V309.701Z" fill="#3F3D56"/>
<g opacity="0.1">
<path opacity="0.1" d="M215.111 171.658C214.698 171.122 214.424 170.493 214.312 169.825C214.21 170.478 214.271 171.145 214.49 171.768C214.699 171.748 214.907 171.712 215.111 171.658Z" fill="black"/>
<path opacity="0.1" d="M209.745 174.462C209.665 173.944 209.613 173.423 209.588 172.899C209.588 173.419 209.588 173.942 209.588 174.466L209.745 174.462Z" fill="black"/>
<path opacity="0.1" d="M244.181 188.552C244.205 188.176 244.256 187.802 244.334 187.433C244.533 186.791 244.647 186.125 244.672 185.453C244.662 185.302 244.639 185.152 244.604 185.005C244.532 185.394 244.418 185.782 244.334 186.167C244.165 186.95 244.113 187.754 244.181 188.552Z" fill="black"/>
<path opacity="0.1" d="M235.393 175.505L235.853 175.838C236.242 175.558 236.605 175.244 236.939 174.901C237.098 174.681 237.197 174.424 237.225 174.154C237.253 173.884 237.21 173.612 237.1 173.364C237.058 173.46 237.004 173.551 236.939 173.634C236.42 174.301 235.27 174.669 235.393 175.505Z" fill="black"/>
<path opacity="0.1" d="M200.673 179.567C200.519 179.875 200.396 180.197 200.305 180.53C200.966 180.161 201.678 179.892 202.418 179.732L200.673 179.567Z" fill="black"/>
<path opacity="0.1" d="M206.5 174.973C206.222 174.82 205.957 174.646 205.705 174.453C205.695 174.62 205.707 174.788 205.743 174.952C205.996 174.94 206.248 174.947 206.5 174.973Z" fill="black"/>
<path opacity="0.1" d="M247.811 199.852C247.638 201.9 246.683 203.872 245.91 205.814C244.359 209.707 243.484 213.837 242.83 217.979C242.242 221.691 241.562 225.905 238.393 227.961C237.487 228.502 236.518 228.927 235.507 229.228C230.952 230.803 226.359 232.382 221.563 232.956C216.767 233.531 211.735 233.028 207.552 230.638C206.339 230.006 205.298 229.089 204.518 227.965C203.39 226.179 203.368 223.941 202.828 221.898C202.366 220.38 201.802 218.896 201.137 217.456C200.204 215.184 199.485 212.811 198.771 210.476C198.109 208.305 197.449 206.134 196.79 203.96C196.572 203.307 196.411 202.636 196.308 201.955C196.143 203.036 196.464 204.167 196.79 205.227C197.449 207.403 198.109 209.575 198.771 211.742C199.485 214.094 200.204 216.451 201.137 218.722C201.802 220.163 202.366 221.647 202.828 223.164C203.36 225.208 203.381 227.446 204.518 229.232C205.298 230.355 206.339 231.273 207.552 231.905C211.735 234.295 216.78 234.797 221.563 234.223C226.346 233.649 230.935 232.07 235.507 230.495C236.518 230.194 237.487 229.769 238.393 229.228C241.541 227.172 242.242 222.958 242.83 219.246C243.484 215.104 244.359 210.974 245.91 207.081C246.831 204.767 248.023 202.415 247.82 199.928C247.82 199.902 247.811 199.877 247.811 199.852Z" fill="black"/>
<path opacity="0.1" d="M197.238 198.218C197.238 198.218 197.238 198.188 197.238 198.171C197.314 197.427 197.248 196.674 197.043 195.954C196.959 195.491 196.904 195.023 196.878 194.552C196.83 195.445 196.885 196.341 197.043 197.221C197.111 197.55 197.187 197.884 197.238 198.218Z" fill="black"/>
<path opacity="0.1" d="M198.526 187.889C198.851 187.344 199.22 186.825 199.629 186.34C198.856 187.079 197.428 186.42 197.128 185.394C197.017 185.809 197.017 186.246 197.128 186.661C197.232 186.97 197.416 187.247 197.662 187.463C197.907 187.679 198.206 187.826 198.526 187.889Z" fill="black"/>
</g>
<path opacity="0.1" d="M304.06 296.227C304.06 296.227 305.4 301.083 304.06 305.305C302.721 309.528 304.06 296.227 304.06 296.227Z" fill="black"/>
<path opacity="0.1" d="M309.764 301.18C309.764 301.18 310.326 307.345 309.059 308.439C307.791 309.532 309.764 301.18 309.764 301.18Z" fill="black"/>
<path d="M99.0811 236.774L142.015 236.352" stroke="#43A498" stroke-width="2" stroke-miterlimit="10"/>
<path d="M99.0811 242.039L142.015 241.621" stroke="#43A498" stroke-width="2" stroke-miterlimit="10"/>
<path d="M99.0811 247.309L142.015 246.887" stroke="#43A498" stroke-width="2" stroke-miterlimit="10"/>
<g filter="url(#filter1_d)">
<path d="M351 161.249V166.754L330.333 176.95V171.189L344.903 164L330.333 156.792V151.05L351 161.249ZM309.667 171.189L295.097 164L309.667 156.792V151.05L289 161.249V166.754L309.667 176.95V171.189ZM327.871 143.333H322.503L312.142 184.667H317.497L327.871 143.333Z" fill="#8E8D89"/>
</g>
</g>
<defs>
<filter id="filter0_d" x="0" y="0" width="384" height="384" filterUnits="userSpaceOnUse" color-interpolation-filters="sRGB">
<feFlood flood-opacity="0" result="BackgroundImageFix"/>
<feColorMatrix in="SourceAlpha" type="matrix" values="0 0 0 0 0 0 0 0 0 0 0 0 0 0 0 0 0 0 127 0"/>
<feOffset dy="4"/>
<feGaussianBlur stdDeviation="2"/>
<feColorMatrix type="matrix" values="0 0 0 0 0 0 0 0 0 0 0 0 0 0 0 0 0 0 0.25 0"/>
<feBlend mode="normal" in2="BackgroundImageFix" result="effect1_dropShadow"/>
<feBlend mode="normal" in="SourceGraphic" in2="effect1_dropShadow" result="shape"/>
</filter>
<filter id="filter1_d" x="285" y="133" width="70" height="70" filterUnits="userSpaceOnUse" color-interpolation-filters="sRGB">
<feFlood flood-opacity="0" result="BackgroundImageFix"/>
<feColorMatrix in="SourceAlpha" type="matrix" values="0 0 0 0 0 0 0 0 0 0 0 0 0 0 0 0 0 0 127 0"/>
<feOffset dy="4"/>
<feGaussianBlur stdDeviation="2"/>
<feColorMatrix type="matrix" values="0 0 0 0 0 0 0 0 0 0 0 0 0 0 0 0 0 0 0.25 0"/>
<feBlend mode="normal" in2="BackgroundImageFix" result="effect1_dropShadow"/>
<feBlend mode="normal" in="SourceGraphic" in2="effect1_dropShadow" result="shape"/>
</filter>
<clipPath id="clip0">
<rect width="440" height="234" fill="white" transform="translate(15 92)"/>
</clipPath>
</defs>
</svg>
