<svg width="400" height="283" viewBox="0 0 400 283" fill="none" xmlns="http://www.w3.org/2000/svg">
<path opacity="0.1" d="M392.262 69.9878C388.173 62.0429 382.813 54.8207 376.393 48.6073L156.265 46.773L337.504 25.2473C325.646 21.2781 313.237 19.1966 300.733 19.0789C283.285 7.16343 260.86 0 236.4 0C214.453 0 194.159 5.76828 177.614 15.5556C163.54 9.41905 147.519 5.95241 130.496 5.95241C81.5858 5.95241 40.8318 34.5991 31.6885 72.5904L392.262 69.9878Z" fill="#43A498"/>
<path opacity="0.1" d="M400 101.839C399.985 91.4293 397.641 81.1548 393.14 71.769L11.6319 105.646C7.76013 111.551 4.75046 117.979 2.69381 124.735L120.835 139.629L0 150.489C3.6354 193.494 47.2319 227.456 100.488 227.456C127.296 227.456 151.653 218.848 169.703 204.815C187.809 219.113 212.389 227.899 239.497 227.899C279.699 227.899 314.4 208.54 330.559 180.548C362.977 171.848 388.159 149.997 396.779 122.667L247.373 103.079H400C400 102.671 400 102.261 400 101.839Z" fill="#43A498"/>
<path d="M100.326 195.842C100.326 195.842 83.9646 172.227 86.7433 149.94C87.9668 140.6 86.1285 131.114 81.5044 122.908C79.2792 119.029 76.7033 115.361 73.8088 111.952" stroke="#615353" stroke-width="2" stroke-miterlimit="10"/>
<path d="M75.4762 97.8979C76.5381 101.102 73.8089 112.324 73.8089 112.324C73.8089 112.324 64.9275 104.948 63.8655 101.74C63.3562 100.2 63.4794 98.5202 64.208 97.0709C64.9365 95.6216 66.2108 94.5211 67.7505 94.0116C69.2902 93.5022 70.9691 93.6254 72.4179 94.3542C73.8668 95.083 74.9668 96.3577 75.4762 97.8979Z" fill="#43A498"/>
<path d="M90.9451 112.483C90.0955 115.752 81.7096 123.687 81.7096 123.687C81.7096 123.687 78.2619 112.668 79.115 109.399C79.3079 108.612 79.6554 107.871 80.1372 107.219C80.619 106.568 81.2254 106.018 81.9214 105.603C82.6173 105.188 83.3888 104.915 84.191 104.801C84.9932 104.687 85.81 104.733 86.5941 104.938C87.3782 105.142 88.1138 105.501 88.7583 105.992C89.4027 106.483 89.943 107.098 90.3479 107.8C90.7527 108.502 91.014 109.278 91.1165 110.082C91.219 110.886 91.1608 111.702 90.9451 112.483Z" fill="#43A498"/>
<path d="M100.57 142.975C98.1841 145.369 86.9417 147.982 86.9417 147.982C86.9417 147.982 89.5293 136.729 91.8974 134.338C93.0423 133.19 94.5964 132.543 96.2178 132.541C97.8393 132.539 99.3952 133.181 100.543 134.326C101.692 135.471 102.338 137.026 102.34 138.648C102.343 140.27 101.701 141.826 100.556 142.975H100.57Z" fill="#43A498"/>
<path d="M102.655 167.702C100.708 170.46 90.0674 174.94 90.0674 174.94C90.0674 174.94 90.7152 163.41 92.6621 160.652C93.5967 159.326 95.0194 158.426 96.6173 158.15C98.2152 157.874 99.8573 158.244 101.182 159.179C102.508 160.114 103.407 161.537 103.683 163.135C103.959 164.734 103.59 166.376 102.655 167.702Z" fill="#43A498"/>
<path d="M69.7345 128.343C72.7717 129.816 84.2478 128.584 84.2478 128.584C84.2478 128.584 78.1027 118.811 75.0443 117.334C73.594 116.695 71.9523 116.645 70.4653 117.193C68.9783 117.741 67.7623 118.846 67.0736 120.273C66.385 121.701 66.2776 123.341 66.774 124.846C67.2704 126.352 68.3318 127.606 69.7345 128.343Z" fill="#43A498"/>
<path d="M72.5344 157.213C75.876 157.709 86.46 153.098 86.46 153.098C86.46 153.098 77.6707 145.609 74.3362 145.113C73.5419 144.995 72.7323 145.035 71.9533 145.23C71.1744 145.425 70.4415 145.771 69.7964 146.249C68.4936 147.215 67.6277 148.659 67.3892 150.264C67.1508 151.868 67.5593 153.502 68.5248 154.805C69.4904 156.108 70.9339 156.974 72.5379 157.213H72.5344Z" fill="#43A498"/>
<path d="M79.1115 184.896C82.3221 185.959 93.5327 183.197 93.5327 183.197C93.5327 183.197 86.1345 174.344 82.9133 173.282C82.1504 173.031 81.3457 172.933 80.5451 172.994C79.7444 173.054 78.9635 173.272 78.2469 173.634C77.5304 173.997 76.8922 174.497 76.3688 175.106C75.8453 175.715 75.447 176.421 75.1964 177.184C74.9459 177.947 74.848 178.752 74.9085 179.553C74.9689 180.354 75.1864 181.135 75.5487 181.852C75.9109 182.569 76.4107 183.207 77.0196 183.731C77.6285 184.254 78.3345 184.653 79.0973 184.904L79.1115 184.896Z" fill="#43A498"/>
<path opacity="0.25" d="M75.4762 97.8979C76.5381 101.102 73.8089 112.324 73.8089 112.324C73.8089 112.324 64.9275 104.948 63.8655 101.74C63.3562 100.2 63.4794 98.5202 64.208 97.0709C64.9365 95.6216 66.2108 94.5211 67.7505 94.0116C69.2902 93.5022 70.9691 93.6254 72.4179 94.3542C73.8668 95.083 74.9668 96.3577 75.4762 97.8979Z" fill="black"/>
<path opacity="0.25" d="M90.9451 112.483C90.0955 115.752 81.7096 123.687 81.7096 123.687C81.7096 123.687 78.2619 112.668 79.115 109.399C79.3079 108.612 79.6554 107.871 80.1372 107.219C80.619 106.568 81.2254 106.018 81.9214 105.603C82.6173 105.188 83.3888 104.915 84.191 104.801C84.9932 104.687 85.81 104.733 86.5941 104.938C87.3782 105.142 88.1138 105.501 88.7583 105.992C89.4027 106.483 89.943 107.098 90.3479 107.8C90.7527 108.502 91.014 109.278 91.1165 110.082C91.219 110.886 91.1608 111.702 90.9451 112.483Z" fill="black"/>
<path opacity="0.25" d="M100.57 142.975C98.1841 145.369 86.9417 147.982 86.9417 147.982C86.9417 147.982 89.5293 136.729 91.8974 134.338C93.0423 133.19 94.5964 132.543 96.2178 132.541C97.8393 132.539 99.3952 133.181 100.543 134.326C101.692 135.471 102.338 137.026 102.34 138.648C102.343 140.27 101.701 141.826 100.556 142.975H100.57Z" fill="black"/>
<path opacity="0.25" d="M102.655 167.702C100.708 170.46 90.0674 174.94 90.0674 174.94C90.0674 174.94 90.7152 163.41 92.6621 160.652C93.5967 159.326 95.0194 158.426 96.6173 158.15C98.2152 157.874 99.8573 158.244 101.182 159.179C102.508 160.114 103.407 161.537 103.683 163.135C103.959 164.734 103.59 166.376 102.655 167.702Z" fill="black"/>
<path opacity="0.25" d="M69.7345 128.343C72.7717 129.816 84.2478 128.584 84.2478 128.584C84.2478 128.584 78.1027 118.811 75.0443 117.334C73.594 116.695 71.9523 116.645 70.4653 117.193C68.9783 117.741 67.7623 118.846 67.0736 120.273C66.385 121.701 66.2776 123.341 66.774 124.846C67.2704 126.352 68.3318 127.606 69.7345 128.343Z" fill="black"/>
<path opacity="0.25" d="M72.5344 157.213C75.876 157.709 86.46 153.098 86.46 153.098C86.46 153.098 77.6707 145.609 74.3362 145.113C73.5419 144.995 72.7323 145.035 71.9533 145.23C71.1744 145.425 70.4415 145.771 69.7964 146.249C68.4936 147.215 67.6277 148.659 67.3892 150.264C67.1508 151.868 67.5593 153.502 68.5248 154.805C69.4904 156.108 70.9339 156.974 72.5379 157.213H72.5344Z" fill="black"/>
<path opacity="0.25" d="M79.1115 184.896C82.3221 185.959 93.5327 183.197 93.5327 183.197C93.5327 183.197 86.1345 174.344 82.9133 173.282C82.1504 173.031 81.3457 172.933 80.5451 172.994C79.7444 173.054 78.9635 173.272 78.2469 173.634C77.5304 173.997 76.8922 174.497 76.3688 175.106C75.8453 175.715 75.447 176.421 75.1964 177.184C74.9459 177.947 74.848 178.752 74.9085 179.553C74.9689 180.354 75.1864 181.135 75.5487 181.852C75.9109 182.569 76.4107 183.207 77.0196 183.731C77.6285 184.254 78.3345 184.653 79.0973 184.904L79.1115 184.896Z" fill="black"/>
<path d="M100.234 194.893C100.234 194.893 75.7097 179.936 69.2177 158.421C66.5513 149.387 61.0293 141.462 53.4796 135.833C49.8741 133.189 46.0338 130.881 42.0071 128.938" stroke="#615353" stroke-width="2" stroke-miterlimit="10"/>
<path d="M37.8371 115.426C40.1061 117.926 42.1557 129.289 42.1557 129.289C42.1557 129.289 31.0512 126.145 28.7822 123.645C27.6927 122.443 27.1248 120.859 27.2035 119.239C27.2822 117.619 28.0009 116.096 29.2017 115.006C30.4024 113.917 31.9868 113.348 33.6063 113.427C35.2257 113.506 36.7476 114.225 37.8371 115.426Z" fill="#43A498"/>
<path d="M57.8902 122.486C58.4354 125.822 53.9964 136.477 53.9964 136.477C53.9964 136.477 46.3717 127.798 45.823 124.462C45.5611 122.862 45.9455 121.222 46.8919 119.905C47.8382 118.588 49.2688 117.701 50.869 117.439C52.4692 117.177 54.108 117.561 55.4247 118.508C56.7414 119.455 57.6283 120.886 57.8902 122.486Z" fill="#43A498"/>
<path d="M79.0407 146.455C77.8266 149.61 68.6089 156.558 68.6089 156.558C68.6089 156.558 66.4142 145.227 67.6248 142.068C68.2064 140.554 69.3655 139.333 70.8472 138.673C72.3289 138.014 74.0118 137.97 75.5257 138.552C77.0395 139.134 78.2603 140.293 78.9195 141.775C79.5787 143.258 79.6223 144.941 79.0407 146.455Z" fill="#43A498"/>
<path d="M90.9735 168.208C90.3116 171.522 82.3966 179.929 82.3966 179.929C82.3966 179.929 78.3187 169.125 78.9806 165.814C79.1378 165.027 79.4484 164.278 79.8949 163.61C80.3415 162.942 80.9151 162.369 81.583 161.923C82.2509 161.477 83.0001 161.168 83.7877 161.011C84.5754 160.855 85.3861 160.856 86.1735 161.013C86.961 161.17 87.7098 161.481 88.3772 161.927C89.0446 162.374 89.6175 162.948 90.0632 163.616C90.509 164.284 90.8188 165.034 90.975 165.821C91.1311 166.609 91.1307 167.42 90.9735 168.208Z" fill="#43A498"/>
<path d="M44.9132 145.588C48.2902 145.705 58.2831 139.923 58.2831 139.923C58.2831 139.923 48.7079 133.478 45.3309 133.354C44.5286 133.327 43.7287 133.458 42.9769 133.739C42.2252 134.021 41.5363 134.448 40.9495 134.997C40.3628 135.545 39.8897 136.203 39.5574 136.934C39.225 137.665 39.0398 138.454 39.0124 139.257C38.9849 140.06 39.1158 140.86 39.3975 141.612C39.6792 142.364 40.1062 143.053 40.6542 143.64C41.2021 144.227 41.8603 144.7 42.591 145.032C43.3218 145.365 44.1109 145.55 44.9132 145.578V145.588Z" fill="#43A498"/>
<path d="M59.1752 170.843C62.4318 169.943 70.2406 161.438 70.2406 161.438C70.2406 161.438 59.1716 158.141 55.9291 159.055C55.1475 159.261 54.4146 159.621 53.7729 160.113C53.1312 160.605 52.5934 161.22 52.1908 161.921C51.7881 162.622 51.5285 163.397 51.427 164.199C51.3255 165.001 51.3842 165.816 51.5995 166.596C51.8149 167.375 52.1827 168.104 52.6817 168.741C53.1807 169.377 53.8009 169.908 54.5065 170.303C55.212 170.698 55.9889 170.949 56.7921 171.042C57.5953 171.134 58.4089 171.067 59.1858 170.843H59.1752Z" fill="#43A498"/>
<path d="M76.4036 193.487C79.7664 193.133 88.8992 186.086 88.8992 186.086C88.8992 186.086 78.5452 180.98 75.1859 181.317C74.387 181.397 73.6118 181.633 72.9043 182.013C72.1969 182.393 71.5711 182.908 71.0628 183.53C70.0361 184.785 69.5501 186.397 69.7116 188.011C69.7915 188.81 70.028 189.586 70.4076 190.293C70.7872 191.001 71.3024 191.627 71.9238 192.135C73.1788 193.162 74.7902 193.649 76.4036 193.487Z" fill="#43A498"/>
<path opacity="0.1" d="M200.251 263.698C235.246 263.698 263.614 262.014 263.614 259.937C263.614 257.86 235.246 256.177 200.251 256.177C165.257 256.177 136.888 257.86 136.888 259.937C136.888 262.014 165.257 263.698 200.251 263.698Z" fill="#43A498"/>
<path opacity="0.1" d="M264.379 279.661C273.54 279.661 280.966 278.309 280.966 276.641C280.966 274.972 273.54 273.62 264.379 273.62C255.218 273.62 247.791 274.972 247.791 276.641C247.791 278.309 255.218 279.661 264.379 279.661Z" fill="#43A498"/>
<path d="M229.381 253.326V255.596H162.259V253.748C166.353 252.23 169.905 249.532 172.465 245.994C175.025 242.456 176.479 238.238 176.641 233.874C176.804 229.509 175.668 225.195 173.378 221.476C171.088 217.757 167.747 214.802 163.777 212.984H228.938C225.06 214.764 221.781 217.63 219.497 221.235C217.213 224.841 216.023 229.031 216.07 233.299C216.116 237.567 217.399 241.73 219.761 245.284C222.123 248.838 225.465 251.632 229.381 253.326Z" fill="#C8CAD7"/>
<path opacity="0.1" d="M228.938 212.987C225.943 214.362 223.292 216.39 221.182 218.923C219.071 221.455 217.553 224.427 216.74 227.622H175.975C175.162 224.427 173.644 221.455 171.533 218.923C169.423 216.39 166.773 214.362 163.777 212.987H228.938Z" fill="black"/>
<path d="M85.384 201.419V214.167C85.384 221.206 90.5345 226.914 96.8885 226.914H294.411C300.765 226.914 305.915 221.206 305.915 214.167V201.419H85.384Z" fill="#C8CAD7"/>
<path opacity="0.1" d="M229.381 253.326V255.596H162.259V253.748C164.099 253.064 165.839 252.138 167.434 250.993H225.274C226.556 251.915 227.933 252.697 229.381 253.326Z" fill="black"/>
<path d="M248.216 251.701H143.437C141.58 251.701 140.074 253.207 140.074 255.065C140.074 256.923 141.58 258.429 143.437 258.429H248.216C250.073 258.429 251.579 256.923 251.579 255.065C251.579 253.207 250.073 251.701 248.216 251.701Z" fill="#C8CAD7"/>
<path d="M305.915 61.7265C305.915 58.6743 304.703 55.7472 302.545 53.5889C300.388 51.4307 297.462 50.2183 294.411 50.2183H96.8885C93.8373 50.2183 90.9111 51.4307 88.7536 53.5889C86.5961 55.7472 85.384 58.6743 85.384 61.7265V203.897H305.915V61.7265Z" fill="#43A498"/>
<path d="M294.234 61.1953H97.0656C93.9376 61.1953 91.4019 63.7319 91.4019 66.8609V189.025C91.4019 192.154 93.9376 194.691 97.0656 194.691H294.234C297.362 194.691 299.897 192.154 299.897 189.025V66.8609C299.897 63.7319 297.362 61.1953 294.234 61.1953Z" fill="#EDEDF4"/>
<path d="M195.65 58.3628C197.116 58.3628 198.304 57.1737 198.304 55.707C198.304 54.2403 197.116 53.0513 195.65 53.0513C194.183 53.0513 192.995 54.2403 192.995 55.707C192.995 57.1737 194.183 58.3628 195.65 58.3628Z" fill="white"/>
<path d="M195.65 221.249C199.266 221.249 202.198 218.316 202.198 214.698C202.198 211.08 199.266 208.147 195.65 208.147C192.033 208.147 189.101 211.08 189.101 214.698C189.101 218.316 192.033 221.249 195.65 221.249Z" fill="white"/>
<path d="M299.897 66.8609H91.4019C91.4019 65.3583 91.9986 63.9172 93.0607 62.8547C94.1229 61.7922 95.5635 61.1953 97.0656 61.1953H294.234C295.736 61.1953 297.176 61.7922 298.239 62.8547C299.301 63.9172 299.897 65.3583 299.897 66.8609Z" fill="#C8CAD7"/>
<path d="M97.0656 65.4446C97.8476 65.4446 98.4815 64.8105 98.4815 64.0282C98.4815 63.246 97.8476 62.6118 97.0656 62.6118C96.2836 62.6118 95.6497 63.246 95.6497 64.0282C95.6497 64.8105 96.2836 65.4446 97.0656 65.4446Z" fill="#EDEDF4"/>
<path d="M101.313 65.4446C102.095 65.4446 102.729 64.8105 102.729 64.0282C102.729 63.246 102.095 62.6118 101.313 62.6118C100.531 62.6118 99.8972 63.246 99.8972 64.0282C99.8972 64.8105 100.531 65.4446 101.313 65.4446Z" fill="#EDEDF4"/>
<path d="M105.561 65.4446C106.343 65.4446 106.977 64.8105 106.977 64.0282C106.977 63.246 106.343 62.6118 105.561 62.6118C104.779 62.6118 104.145 63.246 104.145 64.0282C104.145 64.8105 104.779 65.4446 105.561 65.4446Z" fill="#EDEDF4"/>
<path d="M152.641 71.6416H99.1895V74.8285H152.641V71.6416Z" fill="#43A498"/>
<path d="M152.641 164.77H99.1895V167.956H152.641V164.77Z" fill="#43A498"/>
<path opacity="0.2" d="M198.304 171.852H99.1895V175.038H198.304V171.852Z" fill="#43A498"/>
<path opacity="0.2" d="M198.304 176.458H99.1895V179.645H198.304V176.458Z" fill="#43A498"/>
<path opacity="0.2" d="M198.304 181.062H99.1895V184.249H198.304V181.062Z" fill="#43A498"/>
<path opacity="0.2" d="M197.597 80.1396H99.1895V133.609H197.597V80.1396Z" fill="#43A498"/>
<path opacity="0.2" d="M123.26 138.566H100.251V159.812H123.26V138.566Z" fill="#43A498"/>
<path opacity="0.2" d="M197.597 138.566H174.588V159.812H197.597V138.566Z" fill="#43A498"/>
<path opacity="0.2" d="M159.897 138.566H136.888V159.812H159.897V138.566Z" fill="#43A498"/>
<path opacity="0.2" d="M286.329 95.6919H218.602V145.56H286.329V95.6919Z" fill="#43A498"/>
<path d="M279.189 105.812H225.738V108.999H279.189V105.812Z" fill="#EDEDF4"/>
<path d="M279.189 112.423H225.738V115.61H279.189V112.423Z" fill="#EDEDF4"/>
<path d="M279.189 119.034H225.738V122.221H279.189V119.034Z" fill="#EDEDF4"/>
<path d="M279.189 125.642H225.738V128.828H279.189V125.642Z" fill="#EDEDF4"/>
<path d="M279.189 132.252H225.738V135.439H279.189V132.252Z" fill="#EDEDF4"/>
<path d="M278.071 151.225H226.86V160.194H278.071V151.225Z" fill="#43A498"/>
<path d="M258.464 181.111H224.124V187.127H258.464V181.111Z" fill="#43A498"/>
<path opacity="0.1" d="M91.4796 275.585C97.0709 275.585 101.603 275.125 101.603 274.558C101.603 273.991 97.0709 273.531 91.4796 273.531C85.8883 273.531 81.3557 273.991 81.3557 274.558C81.3557 275.125 85.8883 275.585 91.4796 275.585Z" fill="#43A498"/>
<path opacity="0.1" d="M298.715 260.49C302.066 260.49 304.782 260.214 304.782 259.874C304.782 259.534 302.066 259.258 298.715 259.258C295.364 259.258 292.648 259.534 292.648 259.874C292.648 260.214 295.364 260.49 298.715 260.49Z" fill="#43A498"/>
<path d="M95.0158 257.643C95.0158 257.643 81.8123 264.467 88.6441 272.515C88.6441 272.515 89.2848 274.286 91.1433 274.137C91.1433 274.137 90.7716 273.461 92.2052 272.923C92.705 272.726 93.1801 272.471 93.6211 272.165C94.221 271.75 94.6696 271.151 94.899 270.458C94.899 270.458 97.5999 266.843 95.5079 260.154C95.5079 260.154 95.7769 258.263 95.5397 257.958L93.9185 260.122C93.9185 260.122 95.5787 261.234 95.7663 262.87C95.7663 262.87 94.0388 260.125 93.6636 260.437C93.5893 260.501 92.8672 261.641 92.8672 261.641C92.8672 261.641 95.7415 263.592 95.9574 266.124C95.9574 266.124 94.3362 262.583 92.5875 262.069L91.5999 263.858C91.5999 263.858 94.7433 265.77 95.0972 268.645C95.0972 268.645 93.2742 264.998 91.4123 264.261L90.676 266.149C90.676 266.149 93.7025 268.075 93.9822 270.469C93.9822 270.469 91.4512 266.467 90.5379 266.573C90.5379 266.573 89.968 268.344 90.0424 268.893C90.0424 268.893 92.184 270.309 92.2229 271.726C92.2229 271.726 90.2477 269.229 89.9432 269.396C89.9432 269.396 89.8158 271.903 90.4247 273.209C90.4247 273.209 89.384 271.347 89.5503 269.396C88.9352 269.942 88.4945 270.658 88.2831 271.453C88.2831 271.453 87.7132 270.072 89.5893 268.804C89.5893 268.804 89.7663 266.853 89.9822 266.612C89.9822 266.612 87.9539 267.6 87.0937 268.818C87.0937 268.818 87.4087 267.005 90.1592 266.106L90.8671 264.194C90.8671 264.194 88.1202 265.359 87.2742 266.386C87.2742 266.386 87.8831 264.587 91.0831 263.727L92.0317 261.956C92.0317 261.956 89.5893 262.778 88.3999 263.727C88.3999 263.727 89.3238 262.183 92.3256 261.471L93.0972 260.37C93.0972 260.37 91.3273 261.003 90.8317 261.23C90.3362 261.457 90.2371 261.343 90.2371 261.343C91.1447 260.577 92.2478 260.078 93.4229 259.902C93.4229 259.902 95.1397 257.746 95.0158 257.643Z" fill="#43A498"/>
<path opacity="0.1" d="M59.9292 259.7C64.2146 259.7 67.6885 259.348 67.6885 258.914C67.6885 258.48 64.2146 258.128 59.9292 258.128C55.6439 258.128 52.1699 258.48 52.1699 258.914C52.1699 259.348 55.6439 259.7 59.9292 259.7Z" fill="#43A498"/>
<path d="M62.6548 245.958C62.6548 245.958 52.538 251.184 57.7628 257.345C57.9101 257.728 58.1747 258.054 58.5186 258.278C58.8626 258.501 59.2684 258.61 59.6778 258.588C59.6778 258.588 59.3946 258.071 60.4814 257.657C60.8655 257.505 61.2312 257.31 61.5716 257.076C62.0315 256.757 62.3756 256.297 62.5522 255.766C62.5522 255.766 64.6194 252.997 63.0159 247.873C63.0159 247.873 63.2247 246.421 63.0407 246.188L61.8123 247.877C61.8123 247.877 63.0831 248.73 63.2283 249.98C63.2283 249.98 61.9044 247.88 61.6177 248.118C61.561 248.167 61.0088 249.042 61.0088 249.042C61.0088 249.042 63.2106 250.536 63.3769 252.476C63.3769 252.476 62.1345 249.757 60.7929 249.371L60.0389 250.738C60.0389 250.738 62.4424 252.204 62.715 254.406C62.715 254.406 61.3168 251.612 59.8831 251.049L59.3203 252.494C59.3203 252.494 61.6424 253.971 61.8548 255.805C61.8548 255.805 59.915 252.739 59.2141 252.834C59.2141 252.834 58.7787 254.194 58.8354 254.605C58.8354 254.605 60.4778 255.702 60.5061 256.779C60.5061 256.779 58.9911 254.867 58.7575 255.008C58.7575 255.008 58.6619 256.927 59.1292 257.93C58.6546 257.031 58.4228 256.024 58.4566 255.008C57.9889 255.424 57.6519 255.966 57.4867 256.57C57.4867 256.57 57.0513 255.508 58.4884 254.541C58.4884 254.541 58.623 253.047 58.7893 252.862C58.7893 252.862 57.2353 253.62 56.5769 254.552C56.5769 254.552 56.8177 253.163 58.9238 252.473L59.4584 251.007C59.4584 251.007 57.3522 251.899 56.7008 252.689C56.7008 252.689 57.1681 251.308 59.6212 250.649L60.3504 249.3C60.3504 249.3 58.4778 249.931 57.5646 250.649C57.5646 250.649 58.2725 249.463 60.5734 248.921L61.1645 248.075C61.1645 248.075 59.8088 248.56 59.43 248.737C59.0513 248.914 58.9734 248.822 58.9734 248.822C59.6675 248.236 60.5105 247.853 61.4088 247.717C61.4088 247.717 62.7327 246.028 62.6548 245.958Z" fill="#43A498"/>
<path d="M301.501 249.644C301.501 249.644 293.589 253.748 297.674 258.549C297.79 258.848 297.997 259.103 298.265 259.277C298.534 259.452 298.852 259.536 299.172 259.519C299.172 259.519 298.949 259.116 299.802 258.79C300.103 258.673 300.389 258.521 300.655 258.337C301.013 258.087 301.282 257.728 301.419 257.313C301.419 257.313 303.037 255.146 301.773 251.141C301.773 251.141 301.933 250.008 301.791 249.824L300.832 251.141C300.832 251.141 301.826 251.811 301.94 252.792C301.94 252.792 300.903 251.145 300.68 251.333C300.634 251.372 300.202 252.041 300.202 252.041C300.202 252.041 301.926 253.209 302.053 254.725C302.053 254.725 301.083 252.6 300.035 252.299L299.469 253.393C299.469 253.393 301.349 254.537 301.561 256.262C301.561 256.262 300.471 254.077 299.352 253.634L298.913 254.767C298.913 254.767 300.726 255.918 300.895 257.356C300.895 257.356 299.377 254.955 298.832 255.033C298.676 255.482 298.576 255.948 298.534 256.421C298.534 256.421 299.816 257.278 299.841 258.121C299.841 258.121 298.655 256.626 298.474 256.726C298.474 256.726 298.396 258.227 298.761 259.01C298.392 258.306 298.212 257.519 298.237 256.726C297.871 257.051 297.608 257.475 297.48 257.947C297.48 257.947 297.126 257.119 298.262 256.361C298.262 256.361 298.368 255.192 298.495 255.047C298.495 255.047 297.281 255.638 296.768 256.368C296.768 256.368 296.956 255.281 298.602 254.743L299.019 253.599C299.019 253.599 297.373 254.307 296.864 254.909C296.864 254.909 297.218 253.847 299.15 253.316L299.717 252.253C298.949 252.513 298.217 252.87 297.54 253.316C297.54 253.316 298.095 252.391 299.894 251.966L300.354 251.304C300.354 251.304 299.292 251.687 298.998 251.821C298.704 251.956 298.644 251.889 298.644 251.889C299.187 251.429 299.846 251.13 300.549 251.025C300.549 251.025 301.572 249.714 301.501 249.644Z" fill="#43A498"/>
<path opacity="0.1" d="M331.342 282.997C339.504 282.997 346.12 282.443 346.12 281.761C346.12 281.078 339.504 280.525 331.342 280.525C323.179 280.525 316.563 281.078 316.563 281.761C316.563 282.443 323.179 282.997 331.342 282.997Z" fill="#43A498"/>
<path d="M343.175 242.771C342.836 243.238 342.565 243.75 342.368 244.293C342.319 244.424 342.273 244.576 342.223 244.722C342.132 244.68 342.037 244.646 341.94 244.623C341.528 244.519 341.103 244.483 340.68 244.516C340.68 244.35 340.697 244.18 340.704 243.996C340.754 242.13 340.534 239.527 338.754 240.632C337.048 241.694 338.265 243.465 339.366 244.598C339.462 244.697 339.557 244.789 339.649 244.877C338.648 245.586 338.453 247.261 338.287 248.999C338.12 250.738 336.644 252.639 335.667 253.719L335.388 254.02C334.994 253.706 334.538 253.478 334.05 253.352C333.562 253.225 333.053 253.203 332.556 253.287C332.513 253.135 332.471 252.976 332.421 252.809C331.632 249.945 329.986 244.984 327.883 243.897C327.975 243.787 328.067 243.67 328.163 243.543C329.055 242.374 330.057 240.642 328.573 240.2C327.09 239.757 326.959 241.701 327.041 243.16C327.041 243.344 327.055 243.518 327.083 243.681C326.786 243.694 326.495 243.768 326.228 243.899C325.96 244.029 325.723 244.213 325.529 244.438L325.303 244.166C324.099 242.749 321.89 240.494 321.225 242.197C320.602 243.783 322.541 245.844 323.908 247.037L323.996 247.112C323.076 250.833 327.08 253.868 329.235 255.196L329.515 255.366C326.542 258.871 324.708 265.444 324.708 265.444L333.034 266.931C333.034 266.931 338.552 262.165 337.848 257.689H337.904C343.419 256.584 344.676 250.699 343.816 247.204L343.911 247.165C344.917 246.754 345.798 246.087 346.467 245.232C347.996 243.079 344.779 240.646 343.175 242.771Z" fill="#43A498"/>
<path opacity="0.1" d="M343.175 242.771C342.836 243.238 342.565 243.75 342.368 244.293C342.319 244.424 342.273 244.576 342.223 244.722C342.132 244.68 342.037 244.646 341.94 244.623C341.528 244.519 341.103 244.483 340.68 244.516C340.68 244.35 340.697 244.18 340.704 243.996C340.754 242.13 340.534 239.527 338.754 240.632C337.048 241.694 338.265 243.465 339.366 244.598C339.462 244.697 339.557 244.789 339.649 244.877C338.648 245.586 338.453 247.261 338.287 248.999C338.12 250.738 336.644 252.639 335.667 253.719L335.388 254.02C334.994 253.706 334.538 253.478 334.05 253.352C333.562 253.225 333.053 253.203 332.556 253.287C332.513 253.135 332.471 252.976 332.421 252.809C331.632 249.945 329.986 244.984 327.883 243.897C327.975 243.787 328.067 243.67 328.163 243.543C329.055 242.374 330.057 240.642 328.573 240.2C327.09 239.757 326.959 241.701 327.041 243.16C327.041 243.344 327.055 243.518 327.083 243.681C326.786 243.694 326.495 243.768 326.228 243.899C325.96 244.029 325.723 244.213 325.529 244.438L325.303 244.166C324.099 242.749 321.89 240.494 321.225 242.197C320.602 243.783 322.541 245.844 323.908 247.037L323.996 247.112C323.076 250.833 327.08 253.868 329.235 255.196L329.515 255.366C326.542 258.871 324.708 265.444 324.708 265.444L333.034 266.931C333.034 266.931 338.552 262.165 337.848 257.689H337.904C343.419 256.584 344.676 250.699 343.816 247.204L343.911 247.165C344.917 246.754 345.798 246.087 346.467 245.232C347.996 243.079 344.779 240.646 343.175 242.771Z" fill="black"/>
<path d="M326.602 245.164L325.628 247.997C325.628 247.997 325.087 247.615 324.404 247.013C323.041 245.82 321.097 243.759 321.72 242.172C322.386 240.469 324.595 242.718 325.798 244.141C326.28 244.725 326.602 245.164 326.602 245.164Z" fill="#43A498"/>
<path d="M328.658 243.535C328.362 243.924 328.045 244.298 327.71 244.654C327.625 244.158 327.567 243.656 327.536 243.153C327.455 241.694 327.607 239.757 329.069 240.193C330.531 240.628 329.558 242.367 328.658 243.535Z" fill="#43A498"/>
<path d="M341.214 243.985C341.182 244.924 341.09 245.674 341.09 245.674C340.662 245.339 340.257 244.976 339.876 244.587C338.775 243.444 337.558 241.68 339.264 240.621C341.044 239.517 341.264 242.119 341.214 243.985Z" fill="#43A498"/>
<path d="M346.963 245.214C346.294 246.069 345.414 246.735 344.411 247.147C344.131 247.268 343.845 247.372 343.554 247.459L342.407 245.848C342.526 245.316 342.684 244.793 342.878 244.283C343.074 243.74 343.346 243.227 343.685 242.76C345.271 240.646 348.506 243.079 346.963 245.214Z" fill="#43A498"/>
<path opacity="0.1" d="M325.798 244.159C326.28 244.725 326.602 245.164 326.602 245.164L325.628 247.997C325.628 247.997 325.087 247.615 324.404 247.013C324.557 246.1 324.934 245.24 325.501 244.509C325.594 244.388 325.693 244.271 325.798 244.159Z" fill="black"/>
<path opacity="0.1" d="M328.658 243.536C328.362 243.925 328.045 244.298 327.71 244.655C327.625 244.158 327.567 243.657 327.536 243.153C327.941 243.162 328.333 243.296 328.658 243.536Z" fill="black"/>
<path d="M333.451 254.852L331.03 255.915C331.03 255.915 330.499 255.66 329.738 255.185C327.197 253.62 322.078 249.679 325.49 245.033C328.903 240.387 331.781 248.719 332.924 252.795C333.26 254.017 333.451 254.852 333.451 254.852Z" fill="#43A498"/>
<path opacity="0.1" d="M339.876 244.587C340.229 244.223 340.708 244.007 341.214 243.985C341.182 244.924 341.09 245.674 341.09 245.674C340.662 245.339 340.257 244.976 339.876 244.587Z" fill="black"/>
<path opacity="0.1" d="M344.425 247.147C344.146 247.268 343.86 247.372 343.568 247.459L342.421 245.848C342.541 245.316 342.698 244.793 342.892 244.283C343.618 244.715 344.163 245.791 344.425 247.147Z" fill="black"/>
<path d="M338.407 257.671C338.273 257.699 338.135 257.724 337.997 257.742C329.883 258.978 335.32 254.597 335.32 254.597C335.32 254.597 335.674 254.261 336.184 253.709C337.161 252.646 338.634 250.738 338.804 248.989C339.059 246.358 339.352 243.889 342.457 244.612C345.561 245.334 346.082 256.131 338.407 257.671Z" fill="#43A498"/>
<path d="M338.248 277.887H322.74V281.966H338.248V277.887Z" fill="#ECD4D4"/>
<path d="M340.534 264.629H320.272V278.864H340.534V264.629Z" fill="#ECD4D4"/>
<path opacity="0.1" d="M338.248 277.887H322.74V281.966H338.248V277.887Z" fill="black"/>
<path opacity="0.1" d="M340.534 264.629H320.272V278.864H340.534V264.629Z" fill="black"/>
<path d="M339.267 277.887H323.759V281.966H339.267V277.887Z" fill="#ECD4D4"/>
<path opacity="0.1" d="M332.917 252.799C333.271 254.017 333.444 254.853 333.444 254.853L331.023 255.915C331.023 255.915 330.492 255.66 329.731 255.185C330.68 253.985 331.752 253.079 332.917 252.799Z" fill="black"/>
<path opacity="0.1" d="M338.407 257.671C338.273 257.7 338.135 257.724 337.997 257.742C329.883 258.978 335.32 254.598 335.32 254.598C335.32 254.598 335.674 254.261 336.184 253.709C337.699 254.924 338.319 256.29 338.407 257.671Z" fill="black"/>
<path d="M325.204 265.433C325.204 265.433 329.749 249.145 336.12 254.169C342.492 259.194 333.529 266.917 333.529 266.917L325.204 265.433Z" fill="#43A498"/>
<path opacity="0.1" d="M327.497 248.1C327.779 248.1 328.007 247.872 328.007 247.59C328.007 247.308 327.779 247.08 327.497 247.08C327.216 247.08 326.988 247.308 326.988 247.59C326.988 247.872 327.216 248.1 327.497 248.1Z" fill="black"/>
<path opacity="0.1" d="M327.455 250.479C327.736 250.479 327.965 250.251 327.965 249.969C327.965 249.688 327.736 249.459 327.455 249.459C327.173 249.459 326.945 249.688 326.945 249.969C326.945 250.251 327.173 250.479 327.455 250.479Z" fill="black"/>
<path opacity="0.1" d="M342.237 248.567C342.519 248.567 342.747 248.339 342.747 248.057C342.747 247.776 342.519 247.547 342.237 247.547C341.956 247.547 341.728 247.776 341.728 248.057C341.728 248.339 341.956 248.567 342.237 248.567Z" fill="black"/>
<path opacity="0.1" d="M330.343 260.762C330.625 260.762 330.853 260.534 330.853 260.253C330.853 259.971 330.625 259.743 330.343 259.743C330.062 259.743 329.833 259.971 329.833 260.253C329.833 260.534 330.062 260.762 330.343 260.762Z" fill="black"/>
<path opacity="0.1" d="M341.175 252.519C341.457 252.519 341.685 252.291 341.685 252.009C341.685 251.728 341.457 251.5 341.175 251.5C340.894 251.5 340.666 251.728 340.666 252.009C340.666 252.291 340.894 252.519 341.175 252.519Z" fill="black"/>
<path opacity="0.1" d="M335.908 257.788C336.189 257.788 336.418 257.56 336.418 257.278C336.418 256.997 336.189 256.769 335.908 256.769C335.626 256.769 335.398 256.997 335.398 257.278C335.398 257.56 335.626 257.788 335.908 257.788Z" fill="black"/>
<path opacity="0.1" d="M329.239 249.12C329.521 249.12 329.749 248.892 329.749 248.61C329.749 248.328 329.521 248.1 329.239 248.1C328.957 248.1 328.729 248.328 328.729 248.61C328.729 248.892 328.957 249.12 329.239 249.12Z" fill="black"/>
<path opacity="0.1" d="M340.835 250.097C341.117 250.097 341.345 249.869 341.345 249.587C341.345 249.305 341.117 249.077 340.835 249.077C340.554 249.077 340.326 249.305 340.326 249.587C340.326 249.869 340.554 250.097 340.835 250.097Z" fill="black"/>
<path opacity="0.1" d="M339.094 254.049C339.375 254.049 339.603 253.82 339.603 253.539C339.603 253.257 339.375 253.029 339.094 253.029C338.812 253.029 338.584 253.257 338.584 253.539C338.584 253.82 338.812 254.049 339.094 254.049Z" fill="black"/>
<path opacity="0.1" d="M333.742 260.38C334.023 260.38 334.251 260.152 334.251 259.87C334.251 259.589 334.023 259.36 333.742 259.36C333.46 259.36 333.232 259.589 333.232 259.87C333.232 260.152 333.46 260.38 333.742 260.38Z" fill="black"/>
<path opacity="0.1" d="M332.637 257.873C332.919 257.873 333.147 257.645 333.147 257.363C333.147 257.082 332.919 256.854 332.637 256.854C332.356 256.854 332.127 257.082 332.127 257.363C332.127 257.645 332.356 257.873 332.637 257.873Z" fill="black"/>
<path opacity="0.1" d="M330.004 252.221C330.285 252.221 330.513 251.993 330.513 251.712C330.513 251.43 330.285 251.202 330.004 251.202C329.722 251.202 329.494 251.43 329.494 251.712C329.494 251.993 329.722 252.221 330.004 252.221Z" fill="black"/>
<path opacity="0.1" d="M339.267 277.887H323.759V279.377H339.267V277.887Z" fill="black"/>
<path d="M341.558 264.629H321.296V278.864H341.558V264.629Z" fill="#ECD4D4"/>
<path opacity="0.1" d="M334.421 262.675C334.703 262.675 334.931 262.446 334.931 262.165C334.931 261.883 334.703 261.655 334.421 261.655C334.14 261.655 333.912 261.883 333.912 262.165C333.912 262.446 334.14 262.675 334.421 262.675Z" fill="black"/>
<path opacity="0.1" d="M331.363 263.312C331.644 263.312 331.872 263.084 331.872 262.802C331.872 262.52 331.644 262.292 331.363 262.292C331.081 262.292 330.853 262.52 330.853 262.802C330.853 263.084 331.081 263.312 331.363 263.312Z" fill="black"/>
<path d="M296.382 203.158C295.958 202.853 295.781 202.12 295.717 201.387C295.717 201.221 295.692 201.058 295.685 200.902C295.876 200.786 296.043 200.634 296.177 200.456C297.016 199.266 295.012 194.95 295.012 194.95C295.012 194.95 295.788 192.698 295.012 190.757C294.237 188.817 293.883 188.441 293.883 188.441C293.883 188.441 291.264 183.059 291.653 182.422C292.043 181.784 291.005 176.756 290.237 175.747C289.916 175.31 289.571 174.892 289.204 174.493C289.204 174.493 289.335 172.305 288.234 170.598C287.133 168.891 285.908 164.154 285.908 164.154C285.908 164.154 284.552 159.71 283.582 158.134C283.187 157.58 282.709 157.089 282.166 156.678C282.319 155.97 282.669 155.032 281.664 149.48C281.253 147.199 281.894 145.84 282.421 143.584C282.949 141.328 282.835 138.719 281.218 137.015C279.6 135.312 277.09 134.993 275.083 133.828C273.313 132.805 271.738 131.074 269.671 131.105C268.152 131.13 268.156 131.367 266.758 131.938C264.34 132.922 261.621 132.625 259.165 133.439C256.956 134.172 254.149 136.58 254.818 139.133C254.923 139.711 255.208 140.241 255.632 140.648C256.11 141.084 256.694 141.087 257.349 140.956C257.349 140.999 257.349 141.038 257.324 141.08C257.267 141.432 257.238 141.787 257.239 142.143C257.239 145.928 260.393 149.002 264.294 149.026C264.315 149.108 264.333 149.193 264.354 149.278C264.407 149.504 264.457 149.731 264.506 149.965C264.322 150.209 264.131 150.453 263.951 150.698C263.502 151.269 263.144 151.905 262.889 152.585C260.843 153.003 257.412 153.679 256.871 154.565C256.163 155.754 253.253 161.647 253.575 164.327C253.593 164.476 253.607 164.681 253.621 164.894C253.621 164.894 251.83 168.081 251.572 169.083C251.313 170.085 250.733 173.838 249.632 174.713C248.531 175.587 246.273 178.406 246.595 178.962C246.917 179.518 243.558 180.212 243.558 180.212C243.558 180.212 241.299 181.087 241.434 181.777C241.473 181.986 241.313 182.184 241.08 182.376C238.51 181.529 235.235 180.959 232.697 182.248C229.158 184.043 235.366 185.279 239.069 185.821C239.678 185.913 240.216 185.984 240.634 186.033C240.662 186.154 240.779 186.26 241.076 186.363C241.31 186.444 241.657 186.572 242.06 186.717L242.209 186.256C243.437 186.692 246.789 188.048 246.789 188.048C246.789 188.048 249.699 188.523 250.538 186.834C250.892 186.15 251.858 185.063 252.91 184.001L252.793 184.38L250.343 192.464C250.343 192.464 246.467 198.483 246.662 199.783C246.857 201.083 245.434 204.415 245.112 204.74C244.789 205.066 241.572 214.563 239.876 215.19C238.181 215.817 235.933 218.005 236.69 218.696C237.448 219.386 240.584 221.635 242 220.884C243.416 220.133 245.894 221.511 245.894 221.511C245.894 221.511 248.605 221.064 250.814 222.127C250.839 222.371 250.867 222.637 250.896 222.916C251.126 225.041 251.501 227.976 251.901 228.83C252.549 230.207 253.129 232.647 252.609 233.585C252.089 234.524 253.062 252.42 254.025 255.486C254.782 257.887 255.82 261.75 255.643 264.272C255.536 265.805 255.473 267.338 255.462 268.875C255.462 268.96 255.462 269.045 255.462 269.13C255.462 269.215 255.402 269.264 255.374 269.335V269.473C255.149 270.004 254.961 270.55 254.811 271.106C254.811 271.106 253.143 275.298 253.706 276.393C253.772 276.513 253.863 276.618 253.972 276.701C254.775 277.345 256.804 277.483 257.512 277.511L257.48 278.574H258.432C258.432 278.574 258.457 277.511 258.52 276.187C258.798 275.442 258.937 274.652 258.931 273.857C258.918 272.469 259.208 271.095 259.781 269.831C259.781 269.831 259.802 269.721 259.823 269.544C259.872 269.179 259.892 268.811 259.883 268.443C259.922 267.799 259.801 267.155 259.529 266.57C259.501 266.187 259.525 265.802 259.6 265.426C259.858 264.488 259.211 257.919 259.211 257.919L260.308 245.841C260.308 245.841 260.956 236.517 260.697 234.078C260.63 233.424 260.645 232.765 260.743 232.116C261.149 229.464 261.385 226.788 261.451 224.106C261.451 223.855 261.451 223.607 261.451 223.355C263.802 224.163 267.788 223.501 267.788 223.501C267.788 223.501 268.715 223.479 269.947 223.501C269.979 223.756 270.014 224.007 270.05 224.251C270.237 225.565 270.46 226.73 270.69 227.229C271.335 228.607 271.919 231.047 271.398 231.985C270.878 232.923 271.848 250.819 272.814 253.886C273.575 256.287 274.612 260.146 274.435 262.671C274.329 264.201 274.266 265.734 274.255 267.274V267.558C274.223 267.625 274.191 267.692 274.163 267.763C274.135 267.834 274.163 267.859 274.163 267.901C273.948 268.435 273.77 268.983 273.628 269.541C273.628 269.541 271.958 273.737 272.524 274.831C272.589 274.951 272.68 275.055 272.789 275.135C273.593 275.783 275.621 275.918 276.329 275.946L276.297 277.009H277.25C277.25 277.009 277.274 275.946 277.338 274.622C277.616 273.877 277.755 273.087 277.749 272.292C277.732 270.905 278.017 269.531 278.584 268.266C278.662 267.81 278.696 267.347 278.687 266.885C278.723 266.236 278.595 265.588 278.315 265.001C278.289 264.62 278.312 264.236 278.386 263.861C278.644 262.923 278 256.35 278 256.35L279.097 244.276C279.097 244.276 279.745 234.952 279.483 232.512C279.418 231.859 279.435 231.2 279.533 230.551C279.922 228.031 280.159 225.49 280.241 222.941C280.241 222.686 280.241 222.435 280.241 222.18C280.474 221.893 280.949 221.666 282.258 221.227C284.52 220.477 289.044 216.72 290.853 216.472C292.662 216.224 294.276 215.031 293.759 214.092C293.243 213.154 290.4 212.527 290.658 211.089C290.917 209.652 288.913 208.774 288.011 206.398C287.108 204.022 283.161 202.148 283.097 200.378C283.034 198.607 279.374 193.197 279.374 193.197C279.374 193.197 275.696 187.078 274.881 183.339C274.881 183.254 274.85 183.176 274.835 183.098H274.881C274.819 182.818 274.774 182.534 274.747 182.248C274.747 182.167 274.765 182.082 274.779 182.007H274.729V181.873C274.729 181.873 274.729 181.873 274.729 181.848C274.754 181.829 274.78 181.813 274.807 181.798L275.02 181.674L274.949 181.703C275.373 181.427 275.765 181.107 276.12 180.747C276.706 180.228 277.167 179.584 277.469 178.863C277.754 178.064 277.931 177.23 277.997 176.384L278.457 175.676C278.903 177.542 279.554 180.219 279.759 180.817C280.736 183.345 281.515 185.945 282.089 188.593C282.663 191.162 283.617 193.63 284.92 195.916C284.92 195.916 288.216 200.233 290.736 200.42C293.257 200.608 291.837 201.295 292.223 201.423L292.333 201.447L292.372 201.954L292.481 203.423C292.481 203.423 295.066 213.936 297.975 212.435C300.885 210.934 297.345 203.845 296.382 203.158Z" fill="url(#paint0_linear)"/>
<path d="M296.722 212.481C293.926 213.975 291.441 203.537 291.441 203.537L291.335 202.074L291.133 199.309L294.549 199.744C294.497 200.341 294.497 200.942 294.549 201.539C294.609 202.248 294.782 202.988 295.189 203.285C296.099 203.972 299.515 210.99 296.722 212.481Z" fill="#A1616A"/>
<path d="M254.588 273.436L254.825 273.255C254.753 273.325 254.673 273.385 254.588 273.436Z" fill="#A1616A"/>
<path d="M261.628 216.086V223.218C261.628 223.527 261.628 223.835 261.628 224.142C261.555 226.806 261.319 229.463 260.92 232.098C260.825 232.742 260.81 233.395 260.874 234.042C261.122 236.468 260.52 245.728 260.52 245.728L259.458 257.721C259.458 257.721 260.078 264.243 259.812 265.157C259.742 265.532 259.719 265.914 259.745 266.294C259.78 267.356 259.964 268.719 260.025 269.127V269.25L259.986 269.279L254.793 273.241C255.621 272.487 255.833 270.731 255.83 269.102C255.83 268.925 255.83 268.748 255.83 268.571C255.83 267.048 255.889 265.525 256.007 264.003C256.177 261.499 255.179 257.664 254.449 255.278C253.518 252.236 252.584 234.464 253.083 233.532C253.582 232.601 253.019 230.176 252.4 228.809C252.035 227.977 251.681 225.066 251.469 222.941C251.334 221.652 251.253 220.675 251.253 220.675L261.628 216.086Z" fill="#A1616A"/>
<path d="M272.658 271.842L272.913 271.651C272.835 271.723 272.75 271.788 272.658 271.842Z" fill="#A1616A"/>
<path d="M279.699 214.492V221.624C279.699 222.063 279.699 222.505 279.699 222.945C279.618 225.476 279.39 228 279.016 230.505C278.921 231.148 278.906 231.801 278.97 232.449C279.218 234.874 278.616 244.134 278.616 244.134L277.554 256.127C277.554 256.127 278.177 262.65 277.929 263.563C277.857 263.936 277.835 264.317 277.862 264.696C277.897 265.759 278.085 267.143 278.142 267.529C278.142 267.607 278.159 267.646 278.159 267.646L278.12 267.674L272.92 271.637C273.724 270.865 273.933 269.13 273.929 267.522C273.929 267.345 273.929 267.168 273.929 266.987C273.929 265.465 274 263.942 274.103 262.42C274.269 259.916 273.274 256.085 272.545 253.698C271.611 250.656 270.68 232.884 271.179 231.953C271.678 231.022 271.115 228.596 270.496 227.229C270.273 226.748 270.06 225.576 269.876 224.272C269.547 221.907 269.313 219.092 269.313 219.092L279.699 214.492Z" fill="#A1616A"/>
<path opacity="0.1" d="M270 146.87L269.947 146.951C269.4 147.726 268.697 148.379 267.883 148.866C267.069 149.354 266.163 149.667 265.221 149.784C264.946 149.823 264.668 149.842 264.389 149.841C264.368 149.756 264.35 149.671 264.329 149.589C263.922 147.819 263.49 146.402 263.49 146.402C263.49 146.402 263.954 145.733 264.63 144.88C266.467 142.557 269.851 138.885 269.586 143.793C269.529 144.787 269.649 145.783 269.94 146.735C269.965 146.76 269.979 146.81 270 146.87Z" fill="black"/>
<path d="M271.214 142.738C271.215 144.405 270.606 146.015 269.502 147.264C268.398 148.513 266.875 149.315 265.221 149.519C264.942 149.554 264.661 149.572 264.379 149.572H264.329C262.98 149.561 261.665 149.152 260.548 148.394C259.432 147.637 258.564 146.566 258.055 145.316C257.547 144.067 257.419 142.694 257.688 141.372C257.958 140.05 258.613 138.837 259.57 137.887C260.528 136.936 261.745 136.291 263.069 136.031C264.393 135.772 265.764 135.91 267.009 136.429C268.254 136.948 269.318 137.824 270.066 138.946C270.815 140.069 271.214 141.388 271.214 142.738Z" fill="#A1616A"/>
<path d="M277.841 162.652L271.214 168.318C271.214 168.318 263.989 158.006 264.842 155.892C265.115 155.23 265.083 154.055 264.91 152.744C264.814 152.036 264.676 151.254 264.52 150.517C264.474 150.287 264.425 150.06 264.375 149.837C264.354 149.752 264.336 149.667 264.315 149.586C263.908 147.815 263.476 146.399 263.476 146.399C263.476 146.399 263.94 145.73 264.616 144.876C266.453 142.553 269.837 138.881 269.572 143.789C269.515 144.783 269.635 145.78 269.926 146.732C269.926 146.788 269.957 146.845 269.979 146.898C270.92 149.795 273.214 152.107 274.977 153.541C275.699 154.135 276.462 154.677 277.26 155.163L277.841 162.652Z" fill="#A1616A"/>
<path opacity="0.1" d="M251.253 220.685L261.628 216.082V223.214C261.628 223.523 261.628 223.831 261.628 224.138C261.394 224.056 261.168 223.951 260.956 223.823C258.906 222.555 256.354 223.539 256.173 223.539C255.993 223.539 253.936 224.41 251.763 223.104C251.667 223.047 251.572 222.994 251.479 222.948C251.327 221.663 251.253 220.685 251.253 220.685Z" fill="black"/>
<path opacity="0.1" d="M279.699 214.492V221.624C279.699 222.063 279.699 222.505 279.699 222.945C279.552 223.191 279.433 223.454 279.345 223.727C278.97 224.598 276.425 224.91 274.188 224.542C272.766 224.356 271.334 224.266 269.901 224.272C269.572 221.907 269.338 219.092 269.338 219.092L279.699 214.492Z" fill="black"/>
<path d="M289.89 216.521C288.149 216.769 283.802 220.498 281.628 221.245C279.455 221.992 279.703 222.112 279.331 222.983C278.959 223.855 276.411 224.163 274.173 223.794C271.936 223.426 267.713 223.543 267.713 223.543C267.713 223.543 263.009 224.357 260.945 223.079C258.881 221.801 256.343 222.796 256.163 222.796C255.982 222.796 253.926 223.667 251.752 222.36C249.579 221.054 246.658 221.553 246.658 221.553C246.658 221.553 244.297 220.186 242.931 220.933C241.565 221.68 238.584 219.442 237.837 218.759C237.09 218.076 239.253 215.901 240.881 215.278C242.51 214.655 245.603 205.211 245.911 204.903C246.219 204.595 247.589 201.298 247.402 199.995C247.214 198.692 250.942 192.722 250.942 192.722L253.299 184.698L254.007 182.219L254.035 180.743C254.035 180.077 254.067 179.224 254.085 178.264C254.149 174.298 254.216 168.417 254.085 165.757C254.064 165.347 254.042 165.014 254.014 164.773C253.703 162.103 256.492 156.275 257.182 155.081C257.692 154.2 260.991 153.53 262.956 153.116C263.424 153.031 263.887 152.92 264.343 152.783C264.521 152.738 264.706 152.724 264.888 152.741C266.743 152.815 272.212 153.962 272.212 153.962C271.717 168.937 272.711 166.327 272.711 166.327C274.326 165.085 273.331 154.086 273.331 154.086C274.138 154.458 274.963 153.523 274.963 153.523L278.113 154.83C279.073 155.406 280 156.034 280.892 156.71C281.64 157.237 282.296 157.883 282.835 158.622C283.766 160.177 285.073 164.589 285.073 164.589L283.954 166.359C282.977 167.928 281.476 170.339 279.936 172.783L277.204 177.135C275.982 179.075 274.988 180.651 274.573 181.292C274.48 181.446 274.414 181.615 274.379 181.791C274.355 181.908 274.34 182.026 274.333 182.145C274.315 182.64 274.364 183.136 274.478 183.618C275.26 187.329 278.796 193.409 278.796 193.409C278.796 193.409 282.336 198.813 282.4 200.551C282.464 202.29 286.251 204.156 287.122 206.518C287.993 208.88 289.915 209.747 289.667 211.178C289.419 212.608 292.145 213.228 292.648 214.159C293.15 215.091 291.628 216.273 289.89 216.521Z" fill="#43A498"/>
<path opacity="0.1" d="M294.542 201.539C293.582 202.187 291.894 202.163 291.335 202.074L291.133 199.309L294.549 199.744C294.495 200.341 294.492 200.942 294.542 201.539Z" fill="black"/>
<path d="M282.559 162.776L285.108 164.578C285.108 164.578 286.287 169.298 287.342 170.977C288.396 172.655 288.273 174.829 288.273 174.829C288.628 175.224 288.96 175.639 289.267 176.072C290.014 177.067 291.005 182.057 290.634 182.701C290.262 183.346 292.779 188.685 292.779 188.685C292.779 188.685 293.133 189.039 293.865 190.983C294.598 192.927 293.865 195.148 293.865 195.148C293.865 195.148 295.791 199.436 294.984 200.615C294.177 201.794 291.565 201.677 291.193 201.546C290.821 201.415 292.188 200.739 289.777 200.551C287.366 200.364 284.184 196.079 284.184 196.079C282.924 193.802 282.003 191.353 281.451 188.809C280.901 186.189 280.154 183.613 279.218 181.104C278.906 180.173 277.54 174.146 277.54 174.146L282.559 162.776Z" fill="#43A498"/>
<path opacity="0.1" d="M263.49 162.776C263.49 162.776 263.303 177.191 261.565 180.049L263.49 162.776Z" fill="black"/>
<path opacity="0.1" d="M273.554 167.872C273.554 167.872 271.94 182.287 270.666 183.031C269.391 183.774 273.554 167.872 273.554 167.872Z" fill="black"/>
<path opacity="0.1" d="M271.214 165.821C271.214 165.821 270.821 179.415 268.772 180.757C266.722 182.099 271.214 165.821 271.214 165.821Z" fill="black"/>
<path opacity="0.1" d="M253.366 191.543C253.366 191.543 250.797 199.061 251.087 202.166C251.377 205.271 253.366 191.543 253.366 191.543Z" fill="black"/>
<path opacity="0.1" d="M274.513 184.114C271.151 184.868 262.053 186.221 254.053 181.242C254.053 180.577 254.085 179.723 254.103 178.764C257.14 180.435 265.671 184.783 270.014 183.565C272.181 182.946 273.554 182.553 274.414 182.298C274.328 182.904 274.362 183.521 274.513 184.114Z" fill="black"/>
<path opacity="0.1" d="M274.513 183.37C271.151 184.121 262.053 185.474 254.053 180.499C254.053 179.833 254.085 178.976 254.103 178.02C257.14 179.691 265.671 184.04 270.014 182.822C272.181 182.205 273.554 181.809 274.414 181.557C274.329 182.162 274.362 182.778 274.513 183.37Z" fill="black"/>
<path d="M274.513 183.636C271.151 184.387 262.053 185.739 254.053 180.764C254.053 180.099 254.085 179.245 254.103 178.286C257.14 179.957 265.671 184.305 270.014 183.087C272.181 182.471 273.554 182.075 274.414 181.823C274.329 182.428 274.362 183.044 274.513 183.636Z" fill="#825D5D"/>
<path opacity="0.1" d="M274.513 183.636C271.151 184.387 262.053 185.739 254.053 180.764C254.053 180.099 254.085 179.245 254.103 178.286C257.14 179.957 265.671 184.305 270.014 183.087C272.181 182.471 273.554 182.075 274.414 181.823C274.329 182.428 274.362 183.044 274.513 183.636Z" fill="black"/>
<path opacity="0.1" d="M260.039 269.141C260.039 269.222 260.021 269.275 260.018 269.293L254.825 273.255C255.653 272.501 255.866 270.745 255.862 269.116C255.862 268.939 255.862 268.762 255.862 268.585C256.319 267.459 256.968 266.421 257.781 265.518C258.666 265.288 259.221 265.518 259.551 265.918C259.551 265.957 259.551 265.996 259.551 266.032C259.621 266.117 259.683 266.21 259.735 266.308C260.255 267.204 260.106 268.666 260.039 269.141Z" fill="black"/>
<path opacity="0.1" d="M259.635 267.129L255.717 269.82C255.717 269.82 255.742 269.505 255.777 269.041C256.244 267.837 256.923 266.728 257.784 265.766C258.669 265.539 259.225 265.766 259.554 266.166C259.586 266.747 259.635 267.129 259.635 267.129Z" fill="black"/>
<path d="M260.014 269.548C259.464 270.809 259.187 272.173 259.2 273.549C259.223 274.68 258.936 275.796 258.368 276.775C258.289 276.913 258.198 277.045 258.096 277.168C258.096 277.168 255.373 277.147 254.421 276.357C254.313 276.277 254.224 276.174 254.159 276.056C253.614 274.969 255.221 270.805 255.221 270.805C256.064 267.593 257.777 265.879 257.777 265.879C260.832 265.079 260.014 269.548 260.014 269.548Z" fill="#43A498"/>
<path opacity="0.1" d="M258.368 276.764C258.289 276.903 258.197 277.034 258.095 277.157C258.095 277.157 255.373 277.136 254.421 276.346C254.888 274.796 256.386 270.104 257.083 270.9C257.78 271.697 258.202 275.266 258.368 276.764Z" fill="black"/>
<path d="M257.993 271.201L257.805 278.234H258.719C258.719 278.234 258.864 272.065 259.274 271.201C259.685 270.337 257.993 271.201 257.993 271.201Z" fill="#43A498"/>
<path opacity="0.1" d="M278.11 267.558L278.089 267.703L272.92 271.637C273.724 270.865 273.933 269.13 273.929 267.522C273.929 267.345 273.929 267.168 273.929 266.988C274.385 265.863 275.033 264.827 275.844 263.925C276.729 263.694 277.289 263.925 277.632 264.321C277.632 264.364 277.632 264.399 277.632 264.438C277.703 264.522 277.765 264.613 277.816 264.711C278.329 265.621 278.177 267.087 278.11 267.558Z" fill="black"/>
<path opacity="0.1" d="M277.706 265.532L273.788 268.227C273.788 268.227 273.812 267.912 273.851 267.448C274.315 266.243 274.994 265.133 275.855 264.172C276.74 263.946 277.296 264.155 277.642 264.573C277.657 265.153 277.706 265.532 277.706 265.532Z" fill="black"/>
<path d="M278.089 267.954C277.536 269.215 277.257 270.579 277.271 271.955C277.294 273.087 277.006 274.203 276.439 275.181C276.358 275.319 276.267 275.451 276.166 275.574C276.166 275.574 273.444 275.553 272.492 274.763C272.387 274.68 272.3 274.577 272.237 274.459C271.696 273.372 273.299 269.208 273.299 269.208C274.142 265.996 275.855 264.282 275.855 264.282C278.903 263.493 278.089 267.954 278.089 267.954Z" fill="#43A498"/>
<path opacity="0.1" d="M276.439 275.181C276.358 275.319 276.267 275.451 276.166 275.574C276.166 275.574 273.444 275.553 272.492 274.764C272.959 273.213 274.457 268.517 275.154 269.314C275.851 270.111 276.272 273.673 276.439 275.181Z" fill="black"/>
<path d="M276.067 269.608L275.876 276.637H276.789C276.789 276.637 276.934 270.472 277.345 269.608C277.756 268.744 276.067 269.608 276.067 269.608Z" fill="#43A498"/>
<path opacity="0.1" d="M284.205 168.307C284.163 170.078 283.196 171.965 281.501 172.493C281.005 172.645 280.478 172.68 279.972 172.783C279.728 172.828 279.491 172.901 279.264 172.999C278.177 173.498 277.635 174.738 277.416 175.913C277.338 176.317 277.288 176.724 277.239 177.135C277.18 177.917 277.017 178.687 276.754 179.426C276.269 180.564 275.433 181.517 274.368 182.146C273.132 182.881 271.798 183.439 270.407 183.803C271.11 182.72 271.569 181.497 271.752 180.219C271.935 178.941 271.839 177.639 271.469 176.402C271.242 175.676 270.761 174.865 269.993 174.886C269.395 174.904 268.966 175.435 268.52 175.839C266.326 177.815 262.892 176.933 260.113 175.938C265.069 170.899 266.446 162.716 263.458 156.325C263.187 155.826 262.982 155.294 262.85 154.742C262.762 154.192 262.814 153.63 263.002 153.106C263.243 152.435 263.582 151.804 264.007 151.233C264.181 150.988 264.361 150.748 264.545 150.503C264.782 150.181 265.019 149.855 265.232 149.519C265.547 149.048 265.785 148.531 265.94 147.986C266.255 146.782 265.812 145.259 264.648 144.848L264.584 144.823C263.296 144.42 262.896 144.299 262.018 143.265C261.43 142.578 261.097 141.495 260.092 141.293C259.32 141.134 258.457 141.477 257.646 141.686C257.804 140.666 258.19 139.695 258.777 138.845C259.363 137.996 260.134 137.29 261.032 136.782C261.93 136.273 262.932 135.974 263.962 135.908C264.992 135.841 266.023 136.009 266.979 136.398C267.935 136.788 268.79 137.388 269.48 138.156C270.171 138.923 270.679 139.836 270.966 140.828C271.254 141.819 271.313 142.863 271.139 143.881C270.966 144.898 270.564 145.863 269.965 146.704C270.871 149.678 273.218 152.051 275.016 153.513L278.166 154.82C279.126 155.396 280.053 156.024 280.945 156.7C281.432 158.911 282.102 161.077 282.949 163.176C283.38 164.211 283.735 165.276 284.011 166.363C284.156 167.001 284.222 167.654 284.205 168.307Z" fill="black"/>
<path d="M264.814 144.575C266.025 144.954 266.492 146.512 266.17 147.737C265.848 148.963 264.98 149.954 264.248 150.985C263.515 152.015 262.864 153.247 263.087 154.494C263.219 155.046 263.424 155.578 263.696 156.076C266.683 162.468 265.288 170.648 260.35 175.69C263.129 176.685 266.566 177.567 268.757 175.591C269.203 175.187 269.632 174.656 270.23 174.638C270.991 174.614 271.483 175.428 271.706 176.154C272.076 177.39 272.172 178.692 271.989 179.969C271.806 181.247 271.347 182.469 270.644 183.551C273.204 182.807 276.014 181.657 276.995 179.178C277.434 178.07 277.434 176.837 277.653 175.662C277.873 174.486 278.414 173.25 279.501 172.751C280.209 172.432 281.005 172.471 281.738 172.245C283.434 171.717 284.4 169.833 284.442 168.059C284.485 166.285 283.805 164.582 283.168 162.928C279.628 153.722 282.956 161.098 281.016 150.018C280.619 147.755 281.239 146.402 281.745 144.165C282.251 141.927 282.142 139.335 280.588 137.642C279.034 135.949 276.619 135.634 274.69 134.487C272.98 133.467 271.476 131.75 269.487 131.782C268.028 131.803 268.032 132.04 266.687 132.607C264.361 133.584 261.752 133.29 259.388 134.098C257.264 134.827 254.566 137.214 255.211 139.763C256.078 143.194 258.457 140.67 260.311 141.056C261.317 141.268 261.649 142.337 262.237 143.028C263.129 144.048 263.526 144.172 264.814 144.575Z" fill="#4A4347"/>
<path d="M242.478 186.43C242.478 186.43 241.473 186.324 240.12 186.115C236.581 185.577 230.595 184.344 234 182.574C237.126 180.938 241.434 182.326 243.954 183.438C244.671 183.755 245.371 184.109 246.05 184.5L242.478 186.43Z" fill="#A1616A"/>
<path opacity="0.1" d="M261.317 164.826C261.317 164.826 259.703 172.971 258.896 174.766C258.089 176.561 256.772 181.292 256.772 181.292C256.772 181.292 254.864 183.02 253.289 184.698L253.997 182.22L254.025 180.743C254.025 180.077 254.057 179.224 254.074 178.264C254.138 174.299 254.205 168.417 254.074 165.758C254.212 165.499 254.301 165.34 254.301 165.34L255.558 163.346C255.558 163.346 257.607 157.879 258.786 156.324C259.965 154.77 261.317 164.826 261.317 164.826Z" fill="black"/>
<path opacity="0.1" d="M243.465 185.35C243.465 185.35 243.285 186.058 242.981 187.014C242.595 186.859 242.273 186.735 242.035 186.66C240.973 186.306 242.223 185.853 241.912 184.922C241.646 184.121 241.154 184.373 240.588 184.15C240.958 183.645 241.359 183.164 241.788 182.708L243.465 185.35Z" fill="black"/>
<path d="M255.352 163.336L254.096 165.329C254.096 165.329 252.389 168.491 252.124 169.472C251.858 170.453 251.327 174.207 250.266 175.078C249.204 175.949 247.034 178.743 247.345 179.302C247.657 179.862 244.425 180.545 244.425 180.545C244.425 180.545 242.251 181.416 242.375 182.099C242.499 182.783 240.574 183.342 241.257 183.838C241.94 184.334 242.563 183.838 242.874 184.769C243.186 185.701 241.94 186.14 242.998 186.512C244.057 186.883 247.533 188.339 247.533 188.339C247.533 188.339 250.326 188.81 251.133 187.131C251.94 185.453 256.538 181.292 256.538 181.292C256.538 181.292 257.841 176.568 258.662 174.766C259.483 172.964 261.087 164.826 261.087 164.826C261.087 164.826 259.781 154.759 258.609 156.328C257.437 157.897 255.352 163.336 255.352 163.336Z" fill="#43A498"/>
<path opacity="0.1" d="M251.812 179.366C251.812 179.366 245.664 180.173 248.956 181.54C252.248 182.907 253.366 181.54 253.366 181.54L251.812 179.366Z" fill="black"/>
<path opacity="0.1" d="M244.173 183.031C244.173 183.031 247.777 182.287 248.708 183.031C249.639 183.774 244.173 183.031 244.173 183.031Z" fill="black"/>
<path opacity="0.1" d="M243.802 184.897C243.802 184.897 244.05 184.273 245.292 184.897C246.535 185.52 243.802 184.897 243.802 184.897Z" fill="black"/>
<path opacity="0.1" d="M284.453 190.832C284.453 190.832 284.828 196.497 286.354 196.681C287.88 196.865 284.453 190.832 284.453 190.832Z" fill="black"/>
<path opacity="0.1" d="M287.717 178.006C287.717 178.006 287.975 179.737 286.354 180.049C284.733 180.361 287.717 178.006 287.717 178.006Z" fill="black"/>
<path opacity="0.1" d="M269.327 194.857C269.327 194.857 269.246 212.339 272.807 214.492L269.327 194.857Z" fill="black"/>
<path opacity="0.1" d="M274.046 195.604C274.046 195.604 273.982 213.083 277.522 215.239L274.046 195.604Z" fill="black"/>
<path opacity="0.1" d="M255.122 233.454C255.929 233.379 256.74 233.379 257.547 233.454C258.896 233.564 255.122 233.454 255.122 233.454Z" fill="black"/>
<path opacity="0.1" d="M255.122 234.676C255.929 234.601 256.74 234.601 257.547 234.676C258.896 234.8 255.122 234.676 255.122 234.676Z" fill="black"/>
<path opacity="0.1" d="M273.547 232.02C274.353 231.945 275.165 231.945 275.972 232.02C277.32 232.148 273.547 232.02 273.547 232.02Z" fill="black"/>
<path opacity="0.1" d="M273.961 232.998C274.768 232.923 275.579 232.923 276.386 232.998C277.731 233.122 273.961 232.998 273.961 232.998Z" fill="black"/>
<g opacity="0.1">
<path opacity="0.1" d="M261.657 175.078C266.612 170.039 267.989 161.859 265.002 155.464C264.73 154.965 264.525 154.433 264.393 153.881C264.17 152.635 264.818 151.403 265.554 150.372C266.29 149.342 267.157 148.35 267.476 147.125C267.795 145.9 267.331 144.342 266.12 143.966C264.832 143.563 264.432 143.439 263.554 142.405C262.966 141.718 262.634 140.634 261.628 140.436C259.773 140.05 257.38 142.561 256.527 139.14C256.039 137.221 257.465 135.387 259.111 134.292C257.055 135.146 254.676 137.412 255.285 139.809C256.152 143.241 258.531 140.719 260.386 141.105C261.391 141.314 261.724 142.387 262.311 143.074C263.193 144.108 263.589 144.232 264.878 144.636C266.088 145.011 266.556 146.569 266.234 147.794C265.911 149.019 265.044 150.011 264.311 151.041C263.579 152.072 262.927 153.304 263.15 154.554C263.284 155.105 263.488 155.636 263.759 156.133C266.747 162.528 265.352 170.708 260.414 175.747C263.09 176.707 266.372 177.556 268.556 175.857C266.485 176.586 263.865 175.867 261.657 175.078Z" fill="black"/>
<path opacity="0.1" d="M280.818 172.142C280.555 172.262 280.315 172.427 280.11 172.631C280.669 172.493 281.26 172.475 281.809 172.302C282.234 172.17 282.627 171.95 282.963 171.657C282.258 171.856 281.487 171.834 280.818 172.142Z" fill="black"/>
<path opacity="0.1" d="M274.651 181.969C273.779 182.358 272.88 182.684 271.961 182.942C272.664 181.86 273.122 180.638 273.306 179.361C273.489 178.084 273.393 176.782 273.023 175.545C272.8 174.837 272.315 174.005 271.547 174.026C271.085 174.097 270.667 174.337 270.372 174.699C271.08 174.724 271.564 175.51 271.787 176.215C272.157 177.451 272.254 178.753 272.07 180.03C271.887 181.307 271.428 182.53 270.726 183.612C272.103 183.247 273.424 182.694 274.651 181.969Z" fill="black"/>
</g>
<defs>
<linearGradient id="paint0_linear" x1="265.384" y1="278.63" x2="265.384" y2="131.144" gradientUnits="userSpaceOnUse">
<stop stop-color="#808080" stop-opacity="0.25"/>
<stop offset="0.54" stop-color="#808080" stop-opacity="0.12"/>
<stop offset="1" stop-color="#808080" stop-opacity="0.1"/>
</linearGradient>
</defs>
</svg>
