<svg width="403" height="183" viewBox="0 0 403 183" fill="none" xmlns="http://www.w3.org/2000/svg">
<g clip-path="url(#clip0)">
<path d="M197.255 152.14C203.279 158.603 203.59 168.102 203.59 168.102C203.59 168.102 194.136 167.123 188.112 160.66C182.089 154.197 181.778 144.697 181.778 144.697C181.778 144.697 191.232 145.677 197.255 152.14Z" fill="#43A498"/>
<path d="M216.217 162.228C209.754 168.251 200.254 168.562 200.254 168.562C200.254 168.562 201.233 159.108 207.697 153.085C214.16 147.062 223.66 146.751 223.66 146.751C223.66 146.751 222.681 156.205 216.217 162.228Z" fill="#43A498"/>
<path d="M214.611 181.41H190.838C190.382 181.41 189.935 181.281 189.549 181.04C189.162 180.798 188.851 180.452 188.652 180.042L183.476 169.403C183.295 169.033 183.212 168.622 183.234 168.211C183.256 167.799 183.382 167.4 183.601 167.05C183.819 166.701 184.123 166.413 184.484 166.213C184.845 166.013 185.25 165.908 185.662 165.908H219.787C220.199 165.908 220.605 166.013 220.965 166.213C221.326 166.413 221.63 166.701 221.848 167.05C222.067 167.4 222.193 167.799 222.215 168.211C222.237 168.622 222.154 169.033 221.974 169.403L216.798 180.042C216.598 180.452 216.287 180.798 215.901 181.04C215.514 181.281 215.067 181.41 214.611 181.41Z" fill="#EAE8DC"/>
<path d="M321.374 51.6635C332.306 51.6635 341.168 42.8018 341.168 31.8703C341.168 20.9389 332.306 12.0771 321.374 12.0771C310.442 12.0771 301.58 20.9389 301.58 31.8703C301.58 42.8018 310.442 51.6635 321.374 51.6635Z" fill="#D8C3A4"/>
<path d="M306.6 41.7671C306.6 41.7671 310.329 69.8791 304.592 73.0345C298.854 76.1899 338.73 76.4768 338.73 76.4768C338.73 76.4768 329.837 52.0939 333.853 44.6356L306.6 41.7671Z" fill="#D8C3A4"/>
<path d="M367.847 76.6189L364.531 91.7189L357.519 123.666L357.309 125.415L354.889 145.67L353.279 159.125L352.2 168.164C345.637 171.536 340.881 173.865 340.881 173.865C340.881 173.865 340.472 171.814 339.812 169.189C335.207 170.57 326.684 172.861 319.462 173.318C322.092 176.25 323.301 179.003 321.662 181.035C316.714 187.161 296.289 174.328 289.145 169.542C288.978 170.688 288.915 171.846 288.956 173.003L283.489 168.799L284.03 159.125L284.943 142.758L286.09 122.231C285.728 121.352 285.425 120.45 285.182 119.532C283.508 113.578 281.476 101.689 279.917 91.7189C278.663 83.6952 277.721 76.915 277.522 75.4723C277.495 75.2839 277.481 75.187 277.481 75.187L307.745 61.8149C309.896 66.8025 319.939 68.3018 319.939 68.3018C328.259 67.7285 334.781 63.3411 334.781 63.3411L367.847 76.6189Z" fill="#43A498"/>
<path d="M343.177 168.129C343.177 168.129 341.896 168.568 339.812 169.189C335.207 170.57 326.684 172.861 319.462 173.318C313.244 173.717 307.99 172.758 307.029 168.702C306.617 166.958 307.201 165.523 308.475 164.344C312.275 160.821 322.203 159.559 330.076 159.125C332.3 159.004 334.356 158.948 336.068 158.926C338.975 158.888 340.881 158.948 340.881 158.948L340.927 159.125L343.177 168.129Z" fill="#D8C3A4"/>
<path d="M304.907 13.1477L301.206 11.6661C301.206 11.6661 308.944 3.14691 319.711 3.88774L316.683 0.554103C316.683 0.554103 324.085 -2.40907 330.814 5.36931C334.352 9.45822 338.444 14.2645 340.996 19.6788H344.959L343.305 23.3211L349.095 26.9633L343.152 26.3091C343.506 28.3036 343.561 30.3399 343.314 32.3505C343.059 34.3617 342.032 36.1951 340.451 37.464C340.451 37.464 335.861 27.9637 335.861 26.4821V30.1861C335.861 30.1861 332.16 26.8525 332.16 24.6301L330.141 27.223L329.132 23.1485L316.683 27.223L318.702 23.8894L310.963 25.0006L313.991 20.9261C313.991 20.9261 305.243 25.7413 304.907 29.8158C304.57 33.8901 302.01 37.7509 302.01 37.7509C302.01 37.7509 295.149 18.7037 304.907 13.1477Z" fill="#3A3932"/>
<path d="M389.363 146.038C387.347 148.224 382.351 151.516 376.294 155.08C374.041 156.404 371.643 157.769 369.196 159.125C363.357 162.363 357.244 165.572 352.2 168.164C345.637 171.536 340.881 173.864 340.881 173.864C340.881 173.864 340.472 171.813 339.812 169.189C338.929 165.677 337.6 161.136 336.213 159.125C336.165 159.055 336.116 158.991 336.068 158.926C335.664 158.396 335.258 158.086 334.857 158.086L354.889 145.67L363.546 140.303L357.309 125.415L349.487 106.741L354.208 91.7187L358.954 76.6187H367.847C367.847 76.6187 370.792 83.0463 374.558 92.0094C375.12 93.3498 375.702 94.7468 376.294 96.1895C384.041 115.031 393.699 141.342 389.363 146.038Z" fill="#43A498"/>
<path d="M321.662 181.035C316.714 187.161 296.289 174.327 289.145 169.542C287.589 168.5 286.663 167.841 286.663 167.841L293.199 159.125L295.269 156.366C295.269 156.366 297.12 157.349 299.858 158.947C299.958 159.007 300.057 159.066 300.16 159.125C302.52 160.511 305.484 162.323 308.474 164.344C312.601 167.135 316.773 170.32 319.462 173.318C322.092 176.249 323.301 179.003 321.662 181.035Z" fill="#D8C3A4"/>
<path d="M299.858 158.948C299.128 158.945 298.398 159.004 297.678 159.125C291.489 160.188 289.664 165.79 289.145 169.542C288.978 170.688 288.915 171.846 288.956 173.003L283.489 168.799L281.497 167.267C276.703 165.596 272.431 162.627 268.728 159.125C265.514 156.034 262.632 152.616 260.127 148.927C257.633 145.291 255.408 141.476 253.473 137.514C252.933 136.409 252.643 135.198 252.623 133.967C252.603 132.737 252.854 131.517 253.357 130.395L260.127 115.308L270.022 93.2584C270.095 92.7336 270.175 92.2204 270.262 91.7188C272.224 80.4678 277.481 75.4722 277.481 75.4722H281.497L284.184 91.7188L287.522 111.903L285.182 119.531L279.777 137.148L284.943 142.757L299.858 158.948Z" fill="#43A498"/>
<path d="M304.403 111.92L307.837 115.925C309.112 115.682 310.444 115.396 311.816 115.075L310.83 111.92L313.242 114.733C327.777 111.158 345.793 104.208 345.793 104.208C345.793 104.208 326.342 105.634 311.82 102.461C305.394 101.058 298.783 104.243 296.147 110.268C294.614 113.77 294.855 116.804 300.29 116.804C302.127 116.772 303.958 116.6 305.769 116.289L304.403 111.92Z" fill="#43A498"/>
<path d="M382.674 177.751V179.385C382.675 179.834 382.592 180.278 382.429 180.696C382.357 180.882 382.269 181.062 382.168 181.234C381.847 181.773 381.392 182.219 380.847 182.528C380.302 182.838 379.686 183 379.059 183H258.857C258.23 183 257.614 182.838 257.069 182.528C256.524 182.219 256.069 181.773 255.748 181.234C255.646 181.062 255.559 180.882 255.487 180.696C255.324 180.278 255.241 179.834 255.242 179.385V177.751C255.242 177.277 255.335 176.807 255.517 176.368C255.698 175.929 255.965 175.531 256.3 175.195C256.636 174.859 257.035 174.593 257.473 174.411C257.912 174.23 258.382 174.136 258.857 174.137H265.785V173.375C265.785 173.355 265.789 173.335 265.797 173.317C265.804 173.299 265.816 173.282 265.83 173.268C265.844 173.254 265.86 173.243 265.878 173.236C265.897 173.228 265.916 173.224 265.936 173.224H269.551C269.571 173.224 269.591 173.228 269.609 173.236C269.627 173.243 269.644 173.254 269.658 173.268C269.672 173.282 269.683 173.299 269.691 173.317C269.698 173.335 269.702 173.355 269.702 173.375V174.137H271.96V173.375C271.96 173.355 271.964 173.335 271.972 173.317C271.979 173.299 271.991 173.282 272.005 173.268C272.019 173.254 272.035 173.243 272.053 173.236C272.072 173.228 272.091 173.224 272.111 173.224H275.726C275.746 173.224 275.766 173.228 275.784 173.236C275.802 173.243 275.819 173.254 275.833 173.268C275.847 173.282 275.858 173.299 275.866 173.317C275.873 173.335 275.877 173.355 275.877 173.375V174.137H278.138V173.375C278.138 173.355 278.142 173.335 278.15 173.317C278.157 173.299 278.168 173.282 278.182 173.268C278.196 173.254 278.213 173.243 278.231 173.236C278.249 173.228 278.269 173.224 278.289 173.224H281.904C281.924 173.224 281.943 173.228 281.962 173.236C281.98 173.243 281.997 173.254 282.011 173.268C282.025 173.282 282.036 173.299 282.043 173.317C282.051 173.335 282.055 173.355 282.055 173.375V174.137H284.313V173.375C284.313 173.355 284.317 173.335 284.324 173.317C284.332 173.299 284.343 173.282 284.357 173.268C284.371 173.254 284.388 173.243 284.406 173.236C284.424 173.228 284.444 173.224 284.464 173.224H288.079C288.099 173.224 288.118 173.228 288.137 173.236C288.155 173.243 288.172 173.254 288.186 173.268C288.2 173.282 288.211 173.299 288.218 173.317C288.226 173.335 288.23 173.355 288.23 173.375V174.137H290.488V173.375C290.488 173.355 290.492 173.335 290.499 173.317C290.507 173.299 290.518 173.282 290.532 173.268C290.546 173.254 290.563 173.243 290.581 173.236C290.599 173.228 290.619 173.224 290.639 173.224H294.254C294.274 173.224 294.293 173.228 294.312 173.236C294.33 173.243 294.347 173.254 294.361 173.268C294.375 173.282 294.386 173.299 294.393 173.317C294.401 173.335 294.405 173.355 294.405 173.375V174.137H296.666V173.375C296.666 173.355 296.67 173.335 296.677 173.317C296.685 173.299 296.696 173.282 296.71 173.268C296.724 173.254 296.74 173.243 296.759 173.236C296.777 173.228 296.797 173.224 296.816 173.224H300.432C300.451 173.224 300.471 173.228 300.489 173.236C300.508 173.243 300.524 173.254 300.538 173.268C300.552 173.282 300.563 173.299 300.571 173.317C300.578 173.335 300.582 173.355 300.582 173.375V174.137H302.841V173.375C302.841 173.355 302.845 173.335 302.852 173.317C302.86 173.299 302.871 173.282 302.885 173.268C302.899 173.254 302.915 173.243 302.934 173.236C302.952 173.228 302.972 173.224 302.991 173.224H331.309C331.329 173.224 331.349 173.228 331.367 173.236C331.385 173.243 331.402 173.254 331.416 173.268C331.43 173.282 331.441 173.299 331.448 173.317C331.456 173.335 331.46 173.355 331.46 173.375V174.137H333.721V173.375C333.721 173.355 333.725 173.335 333.732 173.317C333.74 173.299 333.751 173.282 333.765 173.268C333.779 173.254 333.796 173.243 333.814 173.236C333.832 173.228 333.852 173.224 333.872 173.224H337.487C337.527 173.225 337.565 173.241 337.593 173.269C337.621 173.297 337.637 173.335 337.638 173.375V174.137H339.896V173.375C339.896 173.355 339.9 173.335 339.907 173.317C339.915 173.299 339.926 173.282 339.94 173.268C339.954 173.254 339.971 173.243 339.989 173.236C340.007 173.228 340.027 173.224 340.047 173.224H343.662C343.682 173.224 343.701 173.228 343.719 173.236C343.738 173.243 343.754 173.254 343.768 173.268C343.782 173.282 343.794 173.299 343.801 173.317C343.809 173.335 343.813 173.355 343.812 173.375V174.137H346.071V173.375C346.071 173.355 346.075 173.335 346.082 173.317C346.09 173.299 346.101 173.282 346.115 173.268C346.129 173.254 346.146 173.243 346.164 173.236C346.182 173.228 346.202 173.224 346.222 173.224H349.837C349.857 173.224 349.876 173.228 349.894 173.236C349.913 173.243 349.929 173.254 349.943 173.268C349.957 173.282 349.968 173.299 349.976 173.317C349.984 173.335 349.987 173.355 349.987 173.375V174.137H352.249V173.375C352.249 173.355 352.252 173.335 352.26 173.317C352.268 173.299 352.279 173.282 352.293 173.268C352.307 173.254 352.323 173.243 352.342 173.236C352.36 173.228 352.38 173.224 352.399 173.224H356.014C356.054 173.225 356.092 173.241 356.119 173.269C356.147 173.297 356.163 173.335 356.162 173.375V174.137H358.424V173.375C358.424 173.355 358.427 173.335 358.435 173.317C358.443 173.299 358.454 173.282 358.468 173.268C358.482 173.254 358.498 173.243 358.517 173.236C358.535 173.228 358.554 173.224 358.574 173.224H362.189C362.209 173.224 362.229 173.228 362.247 173.236C362.265 173.243 362.282 173.254 362.296 173.268C362.31 173.282 362.321 173.299 362.329 173.317C362.336 173.335 362.34 173.355 362.34 173.375V174.137H364.599V173.375C364.598 173.355 364.602 173.335 364.61 173.317C364.617 173.299 364.629 173.282 364.643 173.268C364.657 173.254 364.673 173.243 364.692 173.236C364.71 173.228 364.729 173.224 364.749 173.224H368.364C368.384 173.224 368.404 173.228 368.422 173.236C368.44 173.243 368.457 173.254 368.471 173.268C368.485 173.282 368.496 173.299 368.504 173.317C368.511 173.335 368.515 173.355 368.515 173.375V174.137H379.059C379.534 174.136 380.004 174.23 380.442 174.411C380.881 174.593 381.28 174.859 381.615 175.195C381.951 175.531 382.217 175.929 382.399 176.368C382.581 176.807 382.674 177.277 382.674 177.751Z" fill="#EAE8DC"/>
<path d="M372.995 108.945H328.192V108.022H307.877V108.945H262.889C262.491 108.945 262.097 109.024 261.729 109.176C261.362 109.328 261.028 109.552 260.746 109.833C260.465 110.114 260.242 110.448 260.089 110.816C259.937 111.184 259.859 111.578 259.859 111.976V173.321C259.859 174.125 260.178 174.896 260.746 175.464C261.315 176.032 262.085 176.351 262.889 176.351H372.995C373.799 176.351 374.57 176.032 375.138 175.464C375.707 174.896 376.026 174.125 376.026 173.321V111.976C376.026 111.578 375.947 111.184 375.795 110.816C375.643 110.448 375.42 110.114 375.138 109.833C374.857 109.552 374.523 109.328 374.155 109.176C373.787 109.024 373.393 108.945 372.995 108.945Z" fill="#EAE8DC"/>
<path d="M318.03 137.091C321.747 137.091 324.76 134.079 324.76 130.362C324.76 126.646 321.747 123.633 318.03 123.633C314.314 123.633 311.301 126.646 311.301 130.362C311.301 134.079 314.314 137.091 318.03 137.091Z" stroke="#43A498" stroke-width="2" stroke-miterlimit="10"/>
<path d="M315.877 139.514C319.594 139.514 322.606 136.502 322.606 132.785C322.606 129.069 319.594 126.056 315.877 126.056C312.16 126.056 309.147 129.069 309.147 132.785C309.147 136.502 312.16 139.514 315.877 139.514Z" fill="#43A498"/>
<path d="M118.285 79.2202C123.695 79.2202 128.082 74.8342 128.082 69.4238C128.082 64.0134 123.695 59.6274 118.285 59.6274C112.874 59.6274 108.488 64.0134 108.488 69.4238C108.488 74.8342 112.874 79.2202 118.285 79.2202Z" fill="#3A3932"/>
<path d="M121.014 59.8973C122.709 59.8975 124.376 60.3377 125.85 61.1747C127.325 62.0118 128.557 63.2171 129.426 64.6728C130.295 66.1285 130.771 67.7848 130.809 69.4798C130.846 71.1748 130.443 72.8504 129.638 74.3429C130.488 73.2803 131.106 72.0524 131.455 70.7374C131.803 69.4225 131.874 68.0493 131.663 66.7055C131.451 65.3617 130.962 64.0767 130.226 62.9324C129.491 61.788 128.525 60.8095 127.39 60.0591C126.256 59.3086 124.977 58.8028 123.636 58.5738C122.295 58.3448 120.921 58.3977 119.601 58.7291C118.282 59.0604 117.046 59.663 115.972 60.4984C114.899 61.3338 114.011 62.3837 113.365 63.5811C114.281 62.4314 115.444 61.5031 116.769 60.8653C118.093 60.2275 119.544 59.8966 121.014 59.8973Z" fill="#3A3932"/>
<path d="M99.9776 69.4031C115.872 69.4031 128.756 56.5193 128.756 40.6262C128.756 24.7332 115.872 11.8494 99.9776 11.8494C84.0836 11.8494 71.199 24.7332 71.199 40.6262C71.199 56.5193 84.0836 69.4031 99.9776 69.4031Z" fill="#3A3932"/>
<path d="M77.3911 22.7716C82.3499 17.1951 89.2814 13.7632 96.7228 13.2002C104.164 12.6373 111.533 14.9873 117.275 19.7543C117.039 19.5306 116.806 19.3051 116.562 19.0877C110.858 14.0169 103.372 11.4197 95.7529 11.8675C88.1334 12.3153 81.004 15.7713 75.9329 21.4753C70.8618 27.1794 68.2644 34.6641 68.7122 42.2831C69.16 49.9021 72.6163 57.0311 78.3207 62.1019C78.5652 62.3192 78.8164 62.5241 79.0662 62.7315C73.6592 57.5884 70.462 50.5458 70.1495 43.0902C69.837 35.6346 72.4335 28.3492 77.3911 22.7716Z" fill="#3A3932"/>
<path d="M99.7336 69.1593C109.97 69.1593 118.269 60.8613 118.269 50.6251C118.269 40.3889 109.97 32.0908 99.7336 32.0908C89.4968 32.0908 81.1982 40.3889 81.1982 50.6251C81.1982 60.8613 89.4968 69.1593 99.7336 69.1593Z" fill="#D8C3A4"/>
<path d="M86.5638 56.478C86.5638 56.478 89.0026 78.9142 85.1004 81.353C81.1983 83.7917 107.538 87.2059 107.538 87.2059C107.538 87.2059 103.636 62.8187 113.391 56.478L86.5638 56.478Z" fill="#D8C3A4"/>
<path d="M109.977 77.451C109.977 77.451 117.24 74.0595 106.78 75.2675C96.3193 76.4755 87.2944 71.8419 87.2944 71.8419C87.2944 71.8419 84.125 68.6716 83.6372 72.0858C83.1494 75.5 85.1005 81.8406 74.3695 82.8161C63.6385 83.7916 53.883 80.8652 49.9809 88.1813C46.0787 95.4975 48.0298 127.201 48.0298 127.201C48.0298 127.201 55.3464 153.539 61.1996 157.441C67.0529 161.343 118.269 155.978 118.269 155.978L132.902 129.64V98.9117C132.902 98.9117 130.951 88.1813 117.294 91.1078C117.294 91.1078 108.514 89.1568 109.001 84.7671C109.489 80.3774 109.977 77.451 109.977 77.451Z" fill="#43A498"/>
<path d="M63.1353 176.08C63.4368 174.766 63.6387 174.023 63.6387 174.023L63.4826 172.955L61.8756 162.043L61.2 157.44C67.0519 155.001 68.5162 143.783 68.5162 143.783L68.737 143.651L69.7356 143.053V143.051L73.3211 140.9L73.3938 140.857L74.842 141.821L77.7841 143.783C81.6412 146.661 86.0564 148.702 90.7475 149.777C95.4385 150.852 100.302 150.936 105.028 150.025C107.227 149.648 109.378 149.027 111.44 148.173L118.535 145.807L118.756 145.734L118.974 145.766L123.135 146.396L123.211 146.41L123.555 146.461L122.592 153.123L121.195 162.804C124.885 164.759 128.166 168.43 131.036 172.955C131.671 173.956 132.287 174.998 132.882 176.08C133.658 177.479 134.398 178.935 135.103 180.427C135.189 180.604 135.273 180.785 135.356 180.965C135.628 181.549 135.897 182.138 136.158 182.731H61.8433C61.9402 182.136 62.0371 181.568 62.1313 181.021C62.1362 181.003 62.1398 180.984 62.1421 180.965C62.1771 180.782 62.2094 180.604 62.239 180.427C62.5674 178.65 62.885 177.167 63.1353 176.08Z" fill="#3A3932"/>
<path d="M60.2241 82.3285C60.2241 82.3285 65.5896 92.0833 63.6385 104.277C61.6874 116.471 69.4918 146.711 69.4918 146.711L75.3451 145.247C75.3451 145.247 71.4429 119.885 72.4184 114.032C73.394 108.179 73.394 85.2549 68.5163 82.3285C63.6385 79.402 60.2241 82.3285 60.2241 82.3285Z" fill="#3A3932"/>
<path d="M116.95 92.4657L119.001 146.467L122.903 148.905C122.903 148.905 128.512 89.6445 125.586 89.6445H119.631C119.267 89.6445 118.906 89.7186 118.572 89.8622C118.237 90.0058 117.936 90.2159 117.685 90.4798C117.434 90.7437 117.24 91.0558 117.113 91.3972C116.987 91.7386 116.932 92.1021 116.95 92.4657Z" fill="#3A3932"/>
<path d="M72.1745 145.491C73.5214 145.491 74.6133 144.399 74.6133 143.052C74.6133 141.706 73.5214 140.614 72.1745 140.614C70.8275 140.614 69.7356 141.706 69.7356 143.052C69.7356 144.399 70.8275 145.491 72.1745 145.491Z" fill="#43A498"/>
<path d="M120.952 147.93C122.299 147.93 123.391 146.838 123.391 145.491C123.391 144.144 122.299 143.052 120.952 143.052C119.605 143.052 118.513 144.144 118.513 145.491C118.513 146.838 119.605 147.93 120.952 147.93Z" fill="#43A498"/>
<path d="M83.8811 27.457V45.9914H88.1736L93.6364 40.1386L92.9048 45.9914H111.879L110.709 40.1386L113.05 45.9914H116.074V27.457H83.8811Z" fill="#3A3932"/>
<path d="M80.9543 49.4057C81.7625 49.4057 82.4176 48.2047 82.4176 46.7231C82.4176 45.2416 81.7625 44.0405 80.9543 44.0405C80.1461 44.0405 79.491 45.2416 79.491 46.7231C79.491 48.2047 80.1461 49.4057 80.9543 49.4057Z" fill="#D8C3A4"/>
<path d="M118.513 49.4057C119.321 49.4057 119.976 48.2047 119.976 46.7231C119.976 45.2416 119.321 44.0405 118.513 44.0405C117.705 44.0405 117.05 45.2416 117.05 46.7231C117.05 48.2047 117.705 49.4057 118.513 49.4057Z" fill="#D8C3A4"/>
<path d="M128.512 145.247C128.512 145.247 106.319 141.101 104.855 148.418C103.392 155.734 129.488 152.563 129.488 152.563L128.512 145.247Z" fill="#D8C3A4"/>
<path d="M128.025 95.0098C128.025 95.0098 181.192 137.443 171.436 147.686C161.681 157.929 124.61 155.002 124.61 155.002L127.049 142.809L148.511 140.37L137.78 129.64L128.025 130.615V95.0098Z" fill="#43A498"/>
<path d="M49.4929 165.733L56.3217 171.098C56.3217 171.098 61.1995 186.218 68.5161 181.828C75.8327 177.439 61.6872 161.831 61.6872 161.831L53.3951 158.904L49.4929 165.733Z" fill="#D8C3A4"/>
<path d="M56.3218 87.2056L49.5114 89.2549C49.5114 89.2549 2.17898 124.274 0.227888 134.029C-1.72321 143.784 9.49558 149.149 9.49558 149.149L51.9319 169.146L56.3218 157.441L36.3231 147.198C36.3231 147.198 37.7864 144.272 31.9332 143.784C26.0799 143.296 25.1043 136.955 25.1043 136.955C25.1043 136.955 36.8109 118.909 43.1519 122.811C49.493 126.713 51.4441 129.639 51.4441 129.639L56.3218 87.2056Z" fill="#43A498"/>
<path d="M153.458 177.751V179.385C153.459 179.834 153.376 180.278 153.213 180.696C153.141 180.882 153.054 181.062 152.952 181.234C152.631 181.773 152.176 182.219 151.631 182.528C151.086 182.838 150.47 183 149.843 183H29.6412C29.0144 183 28.3983 182.838 27.8533 182.528C27.3082 182.219 26.853 181.773 26.5322 181.234C26.4307 181.062 26.3434 180.882 26.2711 180.696C26.1083 180.278 26.0252 179.834 26.0261 179.385V177.751C26.026 177.277 26.1194 176.807 26.3011 176.368C26.4827 175.929 26.749 175.531 27.0847 175.195C27.4204 174.859 27.819 174.593 28.2576 174.411C28.6963 174.23 29.1664 174.136 29.6412 174.137H36.5699V173.375C36.5698 173.355 36.5737 173.335 36.5813 173.317C36.5888 173.299 36.5999 173.282 36.614 173.268C36.628 173.254 36.6446 173.243 36.6629 173.236C36.6812 173.228 36.7008 173.224 36.7206 173.224H40.3357C40.3555 173.224 40.3751 173.228 40.3934 173.236C40.4117 173.243 40.4284 173.254 40.4424 173.268C40.4564 173.282 40.4675 173.299 40.475 173.317C40.4826 173.335 40.4865 173.355 40.4864 173.375V174.137H42.7449V173.375C42.7448 173.355 42.7487 173.335 42.7563 173.317C42.7638 173.299 42.7749 173.282 42.7889 173.268C42.8029 173.254 42.8196 173.243 42.8379 173.236C42.8562 173.228 42.8758 173.224 42.8956 173.224H46.5107C46.5305 173.224 46.5501 173.228 46.5684 173.236C46.5867 173.243 46.6033 173.254 46.6173 173.268C46.6313 173.282 46.6424 173.299 46.65 173.317C46.6576 173.335 46.6614 173.355 46.6614 173.375V174.137H48.9225V173.375C48.9225 173.355 48.9264 173.335 48.9339 173.317C48.9415 173.299 48.9526 173.282 48.9666 173.268C48.9806 173.254 48.9973 173.243 49.0156 173.236C49.0339 173.228 49.0535 173.224 49.0733 173.224H52.6884C52.7082 173.224 52.7278 173.228 52.7461 173.236C52.7644 173.243 52.781 173.254 52.795 173.268C52.809 173.282 52.8201 173.299 52.8277 173.317C52.8352 173.335 52.8391 173.355 52.8391 173.375V174.137H55.0975V173.375C55.0975 173.355 55.1014 173.335 55.1089 173.317C55.1165 173.299 55.1276 173.282 55.1416 173.268C55.1556 173.254 55.1722 173.243 55.1905 173.236C55.2088 173.228 55.2284 173.224 55.2482 173.224H58.8633C58.8831 173.224 58.9028 173.228 58.9211 173.236C58.9394 173.243 58.956 173.254 58.97 173.268C58.984 173.282 58.9951 173.299 59.0027 173.317C59.0102 173.335 59.0141 173.355 59.0141 173.375V174.137H61.2725V173.375C61.2724 173.355 61.2763 173.335 61.2839 173.317C61.2915 173.299 61.3026 173.282 61.3166 173.268C61.3306 173.254 61.3472 173.243 61.3655 173.236C61.3838 173.228 61.4034 173.224 61.4232 173.224H65.0383C65.0581 173.224 65.0777 173.228 65.096 173.236C65.1143 173.243 65.131 173.254 65.145 173.268C65.159 173.282 65.1701 173.299 65.1776 173.317C65.1852 173.335 65.1891 173.355 65.189 173.375V174.137H67.4501V173.375C67.4501 173.355 67.454 173.335 67.4615 173.317C67.4691 173.299 67.4802 173.282 67.4942 173.268C67.5082 173.254 67.5248 173.243 67.5431 173.236C67.5614 173.228 67.581 173.224 67.6009 173.224H71.216C71.2358 173.224 71.2554 173.228 71.2737 173.236C71.292 173.243 71.3086 173.254 71.3226 173.268C71.3366 173.282 71.3477 173.299 71.3553 173.317C71.3629 173.335 71.3667 173.355 71.3667 173.375V174.137H73.6251V173.375C73.6251 173.355 73.629 173.335 73.6365 173.317C73.6441 173.299 73.6552 173.282 73.6692 173.268C73.6832 173.254 73.6998 173.243 73.7181 173.236C73.7364 173.228 73.756 173.224 73.7758 173.224H102.094C102.113 173.224 102.133 173.228 102.151 173.236C102.17 173.243 102.186 173.254 102.2 173.268C102.214 173.282 102.225 173.299 102.233 173.317C102.24 173.335 102.244 173.355 102.244 173.375V174.137H104.505V173.375C104.505 173.355 104.509 173.335 104.517 173.317C104.524 173.299 104.535 173.282 104.549 173.268C104.563 173.254 104.58 173.243 104.598 173.236C104.617 173.228 104.636 173.224 104.656 173.224H108.271C108.311 173.225 108.349 173.241 108.377 173.269C108.406 173.297 108.422 173.335 108.422 173.375V174.137H110.68V173.375C110.68 173.355 110.684 173.335 110.692 173.317C110.699 173.299 110.71 173.282 110.724 173.268C110.738 173.254 110.755 173.243 110.773 173.236C110.792 173.228 110.811 173.224 110.831 173.224H114.446C114.466 173.224 114.486 173.228 114.504 173.236C114.522 173.243 114.539 173.254 114.553 173.268C114.567 173.282 114.578 173.299 114.585 173.317C114.593 173.335 114.597 173.355 114.597 173.375V174.137H116.855V173.375C116.855 173.355 116.859 173.335 116.867 173.317C116.874 173.299 116.885 173.282 116.899 173.268C116.913 173.254 116.93 173.243 116.948 173.236C116.967 173.228 116.986 173.224 117.006 173.224H120.621C120.641 173.224 120.661 173.228 120.679 173.236C120.697 173.243 120.714 173.254 120.728 173.268C120.742 173.282 120.753 173.299 120.76 173.317C120.768 173.335 120.772 173.355 120.772 173.375V174.137H123.033V173.375C123.033 173.355 123.037 173.335 123.044 173.317C123.052 173.299 123.063 173.282 123.077 173.268C123.091 173.254 123.108 173.243 123.126 173.236C123.144 173.228 123.164 173.224 123.184 173.224H126.799C126.838 173.225 126.876 173.241 126.904 173.269C126.932 173.297 126.947 173.335 126.947 173.375V174.137H129.208V173.375C129.208 173.355 129.212 173.335 129.219 173.317C129.227 173.299 129.238 173.282 129.252 173.268C129.266 173.254 129.283 173.243 129.301 173.236C129.319 173.228 129.339 173.224 129.359 173.224H132.974C132.994 173.224 133.013 173.228 133.031 173.236C133.05 173.243 133.066 173.254 133.08 173.268C133.094 173.282 133.106 173.299 133.113 173.317C133.121 173.335 133.125 173.355 133.124 173.375V174.137H135.383V173.375C135.383 173.355 135.387 173.335 135.394 173.317C135.402 173.299 135.413 173.282 135.427 173.268C135.441 173.254 135.458 173.243 135.476 173.236C135.494 173.228 135.514 173.224 135.534 173.224H139.149C139.169 173.224 139.188 173.228 139.206 173.236C139.225 173.243 139.241 173.254 139.255 173.268C139.269 173.282 139.28 173.299 139.288 173.317C139.296 173.335 139.299 173.355 139.299 173.375V174.137H149.843C150.318 174.136 150.788 174.23 151.227 174.411C151.665 174.593 152.064 174.859 152.4 175.195C152.735 175.531 153.002 175.929 153.183 176.368C153.365 176.807 153.458 177.277 153.458 177.751Z" fill="#EAE8DC"/>
<path d="M143.779 108.944H98.9765V108.021H78.6611V108.944H33.6734C32.8696 108.944 32.0988 109.263 31.5305 109.831C30.9621 110.4 30.6428 111.171 30.6428 111.974V173.32C30.6428 174.123 30.9621 174.894 31.5305 175.462C32.0988 176.031 32.8696 176.35 33.6734 176.35H143.779C144.583 176.35 145.354 176.031 145.922 175.462C146.491 174.894 146.81 174.123 146.81 173.32V111.974C146.81 111.171 146.491 110.4 145.922 109.831C145.354 109.263 144.583 108.944 143.779 108.944Z" fill="#EAE8DC"/>
<path d="M88.8147 137.09C92.5313 137.09 95.5442 134.078 95.5442 130.361C95.5442 126.645 92.5313 123.632 88.8147 123.632C85.0981 123.632 82.0852 126.645 82.0852 130.361C82.0852 134.078 85.0981 137.09 88.8147 137.09Z" stroke="#43A498" stroke-width="2" stroke-miterlimit="10"/>
<path d="M86.6611 139.513C90.3777 139.513 93.3906 136.5 93.3906 132.784C93.3906 129.067 90.3777 126.055 86.6611 126.055C82.9445 126.055 79.9316 129.067 79.9316 132.784C79.9316 136.5 82.9445 139.513 86.6611 139.513Z" fill="#43A498"/>
<path d="M403 180.991H4.96289V181.829H403V180.991Z" fill="#EAE8DC"/>
</g>
<defs>
<clipPath id="clip0">
<rect width="403" height="183" fill="white"/>
</clipPath>
</defs>
</svg>
