<svg width="342" height="240" viewBox="0 0 342 240" fill="none" xmlns="http://www.w3.org/2000/svg">
<g clip-path="url(#clip0)">
<path d="M279.336 150.515H59.0681C57.5645 150.513 56.1229 149.915 55.0597 148.851C53.9965 147.787 53.3984 146.344 53.3967 144.839V8.90739C53.398 7.80492 53.8361 6.74797 54.615 5.96839C55.3939 5.18882 56.45 4.75029 57.5516 4.74902H280.781C281.901 4.7503 282.976 5.1964 283.768 5.98945C284.561 6.7825 285.006 7.85774 285.008 8.97928V144.839C285.006 146.344 284.408 147.787 283.345 148.851C282.281 149.915 280.84 150.513 279.336 150.515Z" fill="#F2F2F2"/>
<path d="M271.301 142.477H66.0167C63.0075 142.477 60.5593 140.183 60.5593 137.362V18.9914C60.5593 16.8999 62.3735 15.1982 64.6034 15.1982H272.647C274.914 15.1982 276.758 16.928 276.758 19.0539V137.362C276.758 140.183 274.31 142.477 271.301 142.477Z" fill="#D8C3A4"/>
<path d="M284.929 8.58279H53.3171V5.69308C53.3193 4.18324 53.9198 2.73592 54.9869 1.66863C56.054 0.60134 57.5005 0.00124738 59.0091 0H279.237C280.745 0.00124011 282.192 0.60133 283.259 1.66862C284.326 2.73591 284.926 4.18324 284.929 5.69308V8.58279Z" fill="#CCCCCC"/>
<path d="M63.6615 5.77363C64.4746 5.77363 65.1338 5.11392 65.1338 4.30014C65.1338 3.48636 64.4746 2.82666 63.6615 2.82666C62.8484 2.82666 62.1892 3.48636 62.1892 4.30014C62.1892 5.11392 62.8484 5.77363 63.6615 5.77363Z" fill="#D8C3A4"/>
<path d="M69.2499 5.77363C70.063 5.77363 70.7222 5.11392 70.7222 4.30014C70.7222 3.48636 70.063 2.82666 69.2499 2.82666C68.4368 2.82666 67.7776 3.48636 67.7776 4.30014C67.7776 5.11392 68.4368 5.77363 69.2499 5.77363Z" fill="#D8C3A4"/>
<path d="M74.8383 5.77363C75.6514 5.77363 76.3105 5.11392 76.3105 4.30014C76.3105 3.48636 75.6514 2.82666 74.8383 2.82666C74.0251 2.82666 73.366 3.48636 73.366 4.30014C73.366 5.11392 74.0251 5.77363 74.8383 5.77363Z" fill="#D8C3A4"/>
<path d="M248.705 122.624H89.6191C88.0243 122.623 86.4954 121.988 85.3678 120.859C84.2401 119.731 83.6058 118.2 83.604 116.604V39.8403C83.6053 38.6466 84.0797 37.5022 84.9231 36.6581C85.7664 35.8141 86.9099 35.3393 88.1026 35.3379H250.15C251.362 35.3393 252.523 35.8217 253.38 36.6792C254.237 37.5367 254.719 38.6994 254.72 39.9121V116.604C254.719 118.2 254.084 119.731 252.957 120.859C251.829 121.988 250.3 122.623 248.705 122.624ZM88.1026 36.0259C87.0921 36.027 86.1234 36.4293 85.4089 37.1444C84.6944 37.8595 84.2926 38.829 84.2914 39.8403V116.604C84.293 118.018 84.8548 119.373 85.8536 120.373C86.8524 121.373 88.2066 121.935 89.6191 121.936H248.705C250.118 121.935 251.472 121.373 252.471 120.373C253.47 119.373 254.031 118.018 254.033 116.604V39.9121C254.032 38.8818 253.622 37.894 252.894 37.1654C252.166 36.4369 251.179 36.0271 250.15 36.0259H88.1026Z" fill="#CCCCCC"/>
<path d="M95.1186 116.604H243.206C244.664 116.604 246.063 116.024 247.095 114.992C248.126 113.96 248.705 112.56 248.705 111.1V46.9283C248.705 45.4685 248.126 44.0686 247.095 43.0364C246.063 42.0042 244.664 41.4243 243.206 41.4243H95.1186C93.6601 41.4243 92.2613 42.0042 91.2299 43.0364C90.1986 44.0686 89.6191 45.4685 89.6191 46.9283V111.1C89.6191 112.56 90.1986 113.96 91.2299 114.992C92.2613 116.024 93.6601 116.604 95.1186 116.604Z" fill="#F2F2F2"/>
<path d="M111.933 60.0948C113.642 60.0948 115.027 58.7087 115.027 56.9988C115.027 55.2889 113.642 53.9028 111.933 53.9028C110.225 53.9028 108.84 55.2889 108.84 56.9988C108.84 58.7087 110.225 60.0948 111.933 60.0948Z" fill="#CCCCCC"/>
<path d="M111.933 71.7906C113.642 71.7906 115.027 70.4045 115.027 68.6946C115.027 66.9847 113.642 65.5986 111.933 65.5986C110.225 65.5986 108.84 66.9847 108.84 68.6946C108.84 70.4045 110.225 71.7906 111.933 71.7906Z" fill="#CCCCCC"/>
<path d="M111.933 83.4864C113.642 83.4864 115.027 82.1003 115.027 80.3904C115.027 78.6805 113.642 77.2944 111.933 77.2944C110.225 77.2944 108.84 78.6805 108.84 80.3904C108.84 82.1003 110.225 83.4864 111.933 83.4864Z" fill="#CCCCCC"/>
<path d="M111.933 95.1822C113.642 95.1822 115.027 93.7961 115.027 92.0862C115.027 90.3763 113.642 88.9902 111.933 88.9902C110.225 88.9902 108.84 90.3763 108.84 92.0862C108.84 93.7961 110.225 95.1822 111.933 95.1822Z" fill="#CCCCCC"/>
<path d="M229.141 57.3428H127.401C127.309 57.3428 127.222 57.3065 127.158 57.242C127.093 57.1775 127.057 57.09 127.057 56.9988C127.057 56.9075 127.093 56.8201 127.158 56.7555C127.222 56.691 127.309 56.6548 127.401 56.6548H229.141C229.232 56.6548 229.32 56.691 229.384 56.7555C229.449 56.8201 229.485 56.9075 229.485 56.9988C229.485 57.09 229.449 57.1775 229.384 57.242C229.32 57.3065 229.232 57.3428 229.141 57.3428Z" fill="#CCCCCC"/>
<path d="M229.141 69.0386H127.401C127.309 69.0386 127.222 69.0023 127.158 68.9378C127.093 68.8733 127.057 68.7858 127.057 68.6946C127.057 68.6033 127.093 68.5159 127.158 68.4513C127.222 68.3868 127.309 68.3506 127.401 68.3506H229.141C229.232 68.3506 229.32 68.3868 229.384 68.4513C229.449 68.5159 229.485 68.6033 229.485 68.6946C229.485 68.7858 229.449 68.8733 229.384 68.9378C229.32 69.0023 229.232 69.0386 229.141 69.0386Z" fill="#CCCCCC"/>
<path d="M229.141 80.7344H127.401C127.309 80.7344 127.222 80.6982 127.158 80.6336C127.093 80.5691 127.057 80.4816 127.057 80.3904C127.057 80.2992 127.093 80.2117 127.158 80.1471C127.222 80.0826 127.309 80.0464 127.401 80.0464H229.141C229.232 80.0464 229.32 80.0826 229.384 80.1471C229.449 80.2117 229.485 80.2992 229.485 80.3904C229.485 80.4816 229.449 80.5691 229.384 80.6336C229.32 80.6982 229.232 80.7344 229.141 80.7344Z" fill="#CCCCCC"/>
<path d="M229.141 92.4302H127.401C127.309 92.4302 127.222 92.3939 127.158 92.3294C127.093 92.2649 127.057 92.1774 127.057 92.0862C127.057 91.9949 127.093 91.9075 127.158 91.8429C127.222 91.7784 127.309 91.7422 127.401 91.7422H229.141C229.232 91.7422 229.32 91.7784 229.384 91.8429C229.449 91.9075 229.485 91.9949 229.485 92.0862C229.485 92.1774 229.449 92.2649 229.384 92.3294C229.32 92.3939 229.232 92.4302 229.141 92.4302Z" fill="#CCCCCC"/>
<path d="M146.649 104.126H136.681C136.225 104.126 135.789 103.944 135.466 103.622C135.144 103.3 134.963 102.862 134.962 102.406V93.1184C134.963 92.6624 135.144 92.2252 135.466 91.9028C135.789 91.5803 136.225 91.399 136.681 91.3984H146.649C147.104 91.399 147.541 91.5803 147.863 91.9028C148.186 92.2252 148.367 92.6624 148.367 93.1184V102.406C148.367 102.862 148.186 103.3 147.863 103.622C147.541 103.944 147.104 104.126 146.649 104.126Z" fill="#43A498"/>
<path d="M168.99 104.126H159.023C158.567 104.125 158.13 103.944 157.808 103.622C157.486 103.299 157.304 102.862 157.304 102.406V81.4221C157.304 80.9661 157.486 80.5289 157.808 80.2065C158.13 79.8841 158.567 79.7027 159.023 79.7021H168.99C169.446 79.7027 169.883 79.8841 170.205 80.2065C170.527 80.5289 170.708 80.9661 170.709 81.4221V102.406C170.708 102.862 170.527 103.299 170.205 103.622C169.883 103.944 169.446 104.125 168.99 104.126Z" fill="#43A498"/>
<path d="M191.676 104.126H181.708C181.252 104.125 180.816 103.944 180.493 103.622C180.171 103.299 179.99 102.862 179.99 102.406V69.7263C179.99 69.2703 180.171 68.8331 180.493 68.5107C180.816 68.1883 181.252 68.0069 181.708 68.0063H191.676C192.132 68.0069 192.568 68.1883 192.891 68.5107C193.213 68.8331 193.394 69.2703 193.395 69.7263V102.406C193.394 102.862 193.213 103.299 192.891 103.622C192.568 103.944 192.132 104.125 191.676 104.126Z" fill="#43A498"/>
<path d="M215.049 104.126H205.081C204.625 104.126 204.188 103.944 203.866 103.622C203.544 103.3 203.363 102.862 203.362 102.406V58.3748C203.363 57.9188 203.544 57.4816 203.866 57.1591C204.188 56.8367 204.625 56.6553 205.081 56.6548H215.049C215.504 56.6553 215.941 56.8367 216.263 57.1591C216.586 57.4816 216.767 57.9188 216.767 58.3748V102.406C216.767 102.862 216.586 103.3 216.263 103.622C215.941 103.944 215.504 104.126 215.049 104.126Z" fill="#43A498"/>
<path d="M229.141 104.126H127.401C127.309 104.126 127.222 104.09 127.158 104.025C127.093 103.961 127.057 103.873 127.057 103.782C127.057 103.691 127.093 103.603 127.158 103.539C127.222 103.474 127.309 103.438 127.401 103.438H229.141C229.232 103.438 229.32 103.474 229.384 103.539C229.449 103.603 229.485 103.691 229.485 103.782C229.485 103.873 229.449 103.961 229.384 104.025C229.32 104.09 229.232 104.126 229.141 104.126Z" fill="#2F2E41"/>
<path d="M273.841 168.298C274.12 167.876 274.487 167.52 274.918 167.256C275.349 166.991 275.832 166.825 276.334 166.768C276.836 166.71 277.345 166.764 277.824 166.925C278.303 167.086 278.741 167.35 279.107 167.698L290.022 162.061L289.343 168.412L279.082 172.792C278.456 173.369 277.641 173.696 276.79 173.711C275.94 173.726 275.113 173.429 274.467 172.875C273.821 172.321 273.4 171.549 273.285 170.705C273.17 169.862 273.367 169.005 273.841 168.298Z" fill="#D6AB78"/>
<path d="M283.232 170.667C282.985 170.472 282.802 170.207 282.709 169.906L281.841 167.099C281.747 166.795 281.75 166.47 281.847 166.167C281.945 165.864 282.133 165.599 282.386 165.406L291.232 158.719L300.814 140.93C301.215 140.413 301.714 139.98 302.283 139.655C302.851 139.331 303.478 139.122 304.127 139.04C304.777 138.959 305.436 139.006 306.067 139.179C306.698 139.352 307.289 139.648 307.805 140.049C308.322 140.451 308.755 140.951 309.079 141.52C309.403 142.089 309.612 142.716 309.693 143.366C309.775 144.016 309.728 144.675 309.555 145.307C309.382 145.938 309.086 146.53 308.685 147.047L303.234 158.561C301.58 162.055 298.714 164.83 295.169 166.368L284.802 170.868C284.602 170.955 284.387 170.998 284.17 170.996C283.953 170.994 283.738 170.946 283.541 170.855C283.431 170.805 283.327 170.741 283.232 170.667Z" fill="#2F2E41"/>
<path d="M308.926 133.506C313.588 133.506 317.368 129.723 317.368 125.057C317.368 120.391 313.588 116.608 308.926 116.608C304.263 116.608 300.484 120.391 300.484 125.057C300.484 129.723 304.263 133.506 308.926 133.506Z" fill="#D6AB78"/>
<path d="M305.501 235.891L301.288 235.891L299.283 219.624L305.503 219.624L305.501 235.891Z" fill="#D6AB78"/>
<path d="M298.277 234.686H306.404V239.807H293.16C293.16 239.135 293.293 238.469 293.55 237.847C293.807 237.226 294.184 236.661 294.659 236.186C295.134 235.71 295.698 235.333 296.319 235.076C296.94 234.818 297.605 234.686 298.277 234.686Z" fill="#2F2E41"/>
<path d="M319.25 235.892L315.036 235.892L313.032 219.625L319.252 219.625L319.25 235.892Z" fill="#D6AB78"/>
<path d="M312.026 234.687H320.153V239.808H306.909C306.909 239.135 307.042 238.469 307.299 237.848C307.556 237.227 307.933 236.662 308.408 236.186C308.883 235.711 309.447 235.334 310.068 235.076C310.689 234.819 311.354 234.687 312.026 234.687Z" fill="#2F2E41"/>
<path d="M319.558 231.764L314.62 231.764C314.28 231.763 313.949 231.651 313.68 231.444C313.41 231.237 313.215 230.947 313.127 230.619L306.019 204.234C306.007 204.193 305.982 204.157 305.946 204.134C305.91 204.111 305.867 204.102 305.825 204.109C305.783 204.116 305.745 204.138 305.718 204.171C305.692 204.204 305.678 204.246 305.681 204.289L307.117 229.312C307.13 229.533 307.095 229.755 307.015 229.961C306.934 230.168 306.811 230.355 306.652 230.509C306.494 230.664 306.304 230.783 306.095 230.858C305.887 230.932 305.665 230.962 305.444 230.943L299.894 230.48C299.538 230.449 299.204 230.297 298.948 230.049C298.691 229.8 298.528 229.471 298.486 229.116L293.43 176.573L295.386 177.747L313.716 174.633L321.091 230.012C321.12 230.23 321.102 230.453 321.039 230.664C320.975 230.875 320.867 231.07 320.722 231.236C320.577 231.402 320.398 231.535 320.197 231.626C319.996 231.717 319.778 231.764 319.558 231.764H319.558Z" fill="#2F2E41"/>
<path d="M299.56 182.119C297.538 182.103 295.557 181.545 293.823 180.503C293.556 180.344 293.343 180.109 293.211 179.827C293.08 179.545 293.038 179.231 293.088 178.924C293.733 174.973 297.104 154.704 300.172 143.654C301.421 139.154 304.183 136.73 308.382 136.45C314.524 136.047 319.983 140.856 320.551 147.183C321.554 158.345 317.481 174.204 315.683 180.504C315.613 180.747 315.485 180.97 315.309 181.152C315.133 181.334 314.916 181.47 314.675 181.549C314.435 181.627 314.179 181.645 313.93 181.601C313.681 181.557 313.446 181.453 313.247 181.297L309.582 178.444C309.357 178.272 309.078 178.184 308.794 178.196C308.511 178.208 308.24 178.319 308.03 178.509C304.941 181.266 302.007 182.119 299.56 182.119Z" fill="#2F2E41"/>
<path opacity="0.2" d="M311.68 152.645L314.773 165.717L310.304 176.724L313.398 166.061L311.68 152.645Z" fill="black"/>
<path d="M313.743 132.005C314.494 132.019 315.24 131.884 315.939 131.608C316.246 131.489 316.565 131.392 316.872 131.273C319.581 130.226 321.366 127.338 321.43 124.432C321.494 121.526 319.99 118.706 317.757 116.847C315.525 114.988 312.633 114.034 309.737 113.813C306.618 113.575 303.105 114.367 301.362 116.967C300.898 117.659 300.573 118.498 300.848 119.334C300.931 119.586 301.078 119.812 301.275 119.989C302.053 120.683 302.829 120.161 303.623 120.115C304.713 120.052 305.693 120.936 306.045 121.971C306.397 123.006 306.242 124.146 305.958 125.201C305.741 125.837 305.605 126.496 305.551 127.165C305.528 127.501 305.591 127.837 305.734 128.141C305.877 128.445 306.096 128.708 306.369 128.904C307.05 129.317 307.945 129.078 308.627 128.666C309.309 128.255 309.899 127.683 310.635 127.38C311.372 127.077 312.362 127.144 312.79 127.816C312.927 128.06 313.019 128.327 313.063 128.603C313.447 130.356 313.359 130.252 313.743 132.005Z" fill="#2F2E41"/>
<path d="M300.658 224.09L247.795 205.666C246.888 205.348 246.144 204.684 245.726 203.818C245.308 202.952 245.25 201.956 245.565 201.047L259.302 161.571C259.534 160.906 260.02 160.36 260.654 160.053C261.288 159.747 262.017 159.704 262.682 159.935L317.332 178.983C318.008 179.219 318.563 179.714 318.874 180.36C319.186 181.005 319.229 181.748 318.994 182.425L305.273 221.858C304.956 222.766 304.292 223.511 303.427 223.929C302.561 224.348 301.566 224.406 300.658 224.09Z" fill="#E6E6E6"/>
<path d="M252.306 203.397L298.531 219.508C299.411 219.815 300.377 219.759 301.216 219.353C302.056 218.947 302.699 218.224 303.006 217.343L314.098 185.466C314.405 184.585 314.349 183.619 313.943 182.779C313.538 181.939 312.815 181.295 311.935 180.988L265.711 164.877C264.83 164.57 263.864 164.626 263.025 165.032C262.186 165.438 261.542 166.161 261.236 167.042L250.143 198.919C249.991 199.355 249.927 199.817 249.954 200.278C249.98 200.739 250.097 201.19 250.298 201.606C250.499 202.022 250.78 202.394 251.124 202.702C251.469 203.009 251.871 203.245 252.306 203.397Z" fill="#D8C3A4"/>
<path d="M263.914 181.001L261.625 180.203C261.501 180.159 261.399 180.068 261.342 179.95C261.285 179.831 261.277 179.695 261.32 179.571L262.117 177.28C262.16 177.155 262.251 177.054 262.369 176.996C262.488 176.939 262.624 176.931 262.748 176.974L265.038 177.772C265.162 177.816 265.263 177.906 265.321 178.025C265.378 178.143 265.386 178.28 265.343 178.404L264.545 180.695C264.502 180.819 264.411 180.921 264.293 180.978C264.175 181.036 264.038 181.044 263.914 181.001Z" fill="#43A498"/>
<path d="M261.848 186.937L259.559 186.139C259.435 186.095 259.333 186.004 259.276 185.886C259.219 185.767 259.211 185.631 259.254 185.507L260.051 183.216C260.095 183.091 260.185 182.99 260.304 182.932C260.422 182.875 260.558 182.867 260.683 182.91L262.972 183.708C263.096 183.752 263.198 183.842 263.255 183.961C263.312 184.079 263.32 184.216 263.277 184.34L262.48 186.631C262.436 186.755 262.346 186.857 262.227 186.915C262.109 186.972 261.973 186.98 261.848 186.937Z" fill="#2F2E41"/>
<path d="M259.783 192.873L257.494 192.075C257.369 192.031 257.268 191.94 257.21 191.822C257.153 191.703 257.145 191.567 257.188 191.443L257.986 189.152C258.029 189.028 258.12 188.926 258.238 188.868C258.356 188.811 258.493 188.803 258.617 188.846L260.906 189.644C261.03 189.688 261.132 189.779 261.189 189.897C261.247 190.015 261.254 190.152 261.211 190.276L260.414 192.567C260.371 192.691 260.28 192.793 260.162 192.851C260.043 192.908 259.907 192.916 259.783 192.873Z" fill="#CCCCCC"/>
<path d="M279.297 185.078L268.267 181.233C268.205 181.212 268.148 181.179 268.1 181.135C268.051 181.092 268.011 181.04 267.983 180.981C267.954 180.922 267.937 180.858 267.934 180.793C267.93 180.728 267.939 180.663 267.96 180.601C267.982 180.539 268.015 180.483 268.059 180.434C268.102 180.385 268.155 180.346 268.213 180.317C268.272 180.289 268.336 180.272 268.401 180.269C268.466 180.265 268.531 180.274 268.593 180.296L279.623 184.141C279.685 184.162 279.742 184.195 279.79 184.238C279.839 184.282 279.879 184.334 279.907 184.393C279.936 184.452 279.952 184.516 279.956 184.581C279.96 184.646 279.951 184.711 279.93 184.773C279.908 184.834 279.875 184.891 279.831 184.94C279.788 184.989 279.735 185.028 279.676 185.057C279.618 185.085 279.554 185.101 279.489 185.105C279.424 185.109 279.358 185.099 279.297 185.078Z" fill="#CCCCCC"/>
<path d="M277.231 191.014L266.201 187.169C266.077 187.126 265.975 187.035 265.918 186.917C265.861 186.798 265.853 186.662 265.896 186.538C265.939 186.413 266.03 186.311 266.148 186.254C266.267 186.197 266.403 186.189 266.527 186.232L277.557 190.077C277.619 190.098 277.676 190.131 277.725 190.175C277.773 190.218 277.813 190.27 277.842 190.329C277.87 190.388 277.887 190.452 277.89 190.517C277.894 190.582 277.885 190.647 277.864 190.709C277.842 190.77 277.809 190.827 277.765 190.876C277.722 190.925 277.669 190.964 277.611 190.993C277.552 191.021 277.488 191.037 277.423 191.041C277.358 191.045 277.293 191.035 277.231 191.014Z" fill="#CCCCCC"/>
<path d="M275.166 196.95L264.135 193.106C264.011 193.062 263.909 192.971 263.852 192.853C263.795 192.734 263.787 192.598 263.83 192.474C263.874 192.349 263.964 192.247 264.083 192.19C264.201 192.133 264.337 192.125 264.462 192.168L275.492 196.013C275.616 196.056 275.718 196.147 275.775 196.265C275.832 196.384 275.84 196.52 275.797 196.644C275.754 196.769 275.663 196.871 275.544 196.928C275.426 196.985 275.29 196.993 275.166 196.95Z" fill="#CCCCCC"/>
<path d="M304.519 200.166C304.599 199.973 304.675 199.777 304.744 199.577C305.651 196.972 305.486 194.113 304.287 191.629C303.087 189.145 300.951 187.24 298.347 186.333L294.722 196.751L304.519 200.166Z" fill="#43A498"/>
<path d="M293.667 197.385L297.293 186.967C295.377 186.299 293.308 186.207 291.34 186.702C289.372 187.197 287.593 188.257 286.22 189.753C284.848 191.248 283.942 193.113 283.616 195.117C283.29 197.121 283.557 199.177 284.384 201.031C285.211 202.885 286.562 204.456 288.271 205.551C289.98 206.645 291.971 207.215 294 207.191C296.029 207.166 298.006 206.548 299.688 205.412C301.369 204.277 302.682 202.673 303.464 200.8L293.667 197.385Z" fill="#2F2E41"/>
<path d="M306.647 182.44C306.606 181.936 306.676 181.429 306.851 180.955C307.027 180.481 307.305 180.051 307.665 179.696C308.025 179.341 308.458 179.069 308.934 178.9C309.41 178.73 309.917 178.667 310.42 178.715L315.533 167.538L318.915 172.955L313.542 182.739C313.405 183.579 312.965 184.34 312.305 184.878C311.645 185.415 310.811 185.691 309.961 185.654C309.112 185.618 308.305 185.27 307.694 184.677C307.083 184.085 306.71 183.289 306.647 182.44Z" fill="#D6AB78"/>
<path d="M315.497 178.503C315.183 178.503 314.875 178.407 314.616 178.228L312.202 176.556C311.941 176.374 311.743 176.117 311.633 175.818C311.523 175.52 311.507 175.194 311.588 174.887L314.425 164.161L310.995 144.246C310.991 143.59 311.116 142.941 311.364 142.334C311.611 141.727 311.975 141.175 312.435 140.709C312.896 140.243 313.444 139.872 314.047 139.618C314.651 139.365 315.299 139.232 315.954 139.229C316.609 139.226 317.258 139.352 317.864 139.6C318.47 139.848 319.021 140.213 319.486 140.675C319.951 141.136 320.321 141.685 320.574 142.289C320.827 142.894 320.958 143.542 320.961 144.198L323.771 156.624C324.625 160.395 324.08 164.349 322.24 167.748L316.857 177.693C316.753 177.884 316.61 178.051 316.438 178.183C316.266 178.316 316.067 178.41 315.856 178.461C315.739 178.489 315.618 178.503 315.497 178.503Z" fill="#2F2E41"/>
<path d="M341.656 240H276.35C276.259 240 276.171 239.964 276.107 239.899C276.042 239.835 276.006 239.747 276.006 239.656C276.006 239.565 276.042 239.477 276.107 239.413C276.171 239.348 276.259 239.312 276.35 239.312H341.656C341.748 239.312 341.835 239.348 341.899 239.413C341.964 239.477 342 239.565 342 239.656C342 239.747 341.964 239.835 341.899 239.899C341.835 239.964 341.748 240 341.656 240Z" fill="#CCCCCC"/>
<path d="M168.608 235.72L172.822 235.72L174.827 219.453H168.607L168.608 235.72Z" fill="#A0616A"/>
<path d="M167.533 234.343L175.832 234.343H175.832C176.527 234.343 177.214 234.48 177.856 234.746C178.498 235.012 179.081 235.401 179.572 235.893C180.063 236.384 180.453 236.968 180.718 237.61C180.984 238.252 181.121 238.941 181.121 239.636V239.808L167.533 239.808L167.533 234.343Z" fill="#2F2E41"/>
<path d="M151.766 235.72L155.98 235.72L157.984 219.453H151.765L151.766 235.72Z" fill="#A0616A"/>
<path d="M150.691 234.343L158.99 234.343H158.99C159.684 234.343 160.372 234.48 161.014 234.746C161.655 235.012 162.238 235.401 162.73 235.893C163.221 236.384 163.61 236.968 163.876 237.61C164.142 238.252 164.279 238.941 164.279 239.636V239.808L150.691 239.808L150.691 234.343Z" fill="#2F2E41"/>
<path d="M169.449 123.102C174.112 123.102 177.891 119.319 177.891 114.653C177.891 109.987 174.112 106.204 169.449 106.204C164.787 106.204 161.007 109.987 161.007 114.653C161.007 119.319 164.787 123.102 169.449 123.102Z" fill="#A0616A"/>
<path d="M175.126 232.209H167.306C167.102 232.209 166.899 232.168 166.71 232.089C166.521 232.01 166.35 231.895 166.206 231.749C166.062 231.603 165.949 231.43 165.872 231.24C165.796 231.05 165.757 230.847 165.76 230.642L166.214 193.48C166.216 193.348 166.167 193.22 166.077 193.123C165.988 193.026 165.865 192.967 165.733 192.958C165.602 192.95 165.472 192.992 165.37 193.076C165.268 193.16 165.203 193.28 165.187 193.411L160.636 230.848C160.59 231.223 160.408 231.569 160.126 231.819C159.843 232.07 159.478 232.209 159.1 232.209H151.205C150.992 232.209 150.781 232.165 150.586 232.079C150.39 231.994 150.215 231.869 150.07 231.712C149.925 231.555 149.814 231.37 149.744 231.169C149.674 230.967 149.647 230.753 149.663 230.54L154.877 163.779L155.018 163.764L179.982 161.065L176.671 230.735C176.653 231.132 176.482 231.507 176.194 231.782C175.906 232.056 175.524 232.209 175.126 232.209Z" fill="#2F2E41"/>
<path d="M155.18 167.878C154.779 167.877 154.394 167.72 154.107 167.44C153.819 167.16 153.652 166.78 153.639 166.378C153.503 162.157 153.269 147.551 155.984 136.827C156.725 133.898 158.388 131.285 160.727 129.374C163.067 127.464 165.958 126.358 168.974 126.219C171.943 126.057 174.887 126.834 177.39 128.441C179.892 130.048 181.825 132.402 182.915 135.171C187.478 146.765 191.789 161.055 186.414 163.297C179.37 166.234 160.799 167.543 155.275 167.875C155.244 167.877 155.212 167.878 155.18 167.878Z" fill="#2F2E41"/>
<path d="M187.446 106.114C187.578 106.25 187.722 106.376 187.874 106.49L186.988 123.526L183.302 125.415L185.423 131.355L192.273 128.646C192.826 128.427 193.294 128.035 193.605 127.527C193.917 127.02 194.056 126.425 194 125.832L192.206 106.507C192.793 106.068 193.233 105.461 193.467 104.766C193.701 104.071 193.718 103.322 193.516 102.617C193.314 101.912 192.903 101.285 192.336 100.82C191.77 100.355 191.075 100.074 190.345 100.014C189.615 99.9534 188.883 100.117 188.248 100.483C187.613 100.849 187.105 101.399 186.79 102.061C186.475 102.724 186.369 103.466 186.487 104.19C186.604 104.914 186.938 105.585 187.446 106.114Z" fill="#A0616A"/>
<path d="M187.058 124.161L189.651 131.535C189.725 131.745 189.753 131.969 189.732 132.19C189.712 132.412 189.644 132.626 189.534 132.819C189.423 133.012 189.272 133.179 189.092 133.308C188.911 133.438 188.704 133.527 188.486 133.569L180.84 135.051C179.765 135.423 178.587 135.353 177.563 134.856C176.54 134.36 175.755 133.478 175.381 132.403C175.006 131.328 175.073 130.149 175.566 129.123C176.06 128.097 176.939 127.31 178.012 126.932L184.877 123.305C185.074 123.201 185.291 123.141 185.512 123.129C185.734 123.116 185.956 123.152 186.163 123.233C186.37 123.314 186.557 123.439 186.712 123.599C186.866 123.759 186.984 123.951 187.058 124.161V124.161Z" fill="#2F2E41"/>
<path d="M150.879 106.114C150.746 106.25 150.603 106.376 150.45 106.49L151.337 123.526L155.023 125.415L152.902 131.355L146.052 128.646C145.498 128.427 145.031 128.035 144.719 127.527C144.408 127.02 144.269 126.425 144.324 125.832L146.119 106.507C145.531 106.068 145.091 105.461 144.857 104.766C144.623 104.071 144.606 103.322 144.808 102.617C145.01 101.912 145.422 101.285 145.988 100.82C146.555 100.355 147.249 100.074 147.98 100.014C148.71 99.9534 149.441 100.117 150.076 100.483C150.711 100.849 151.22 101.399 151.534 102.061C151.849 102.724 151.955 103.466 151.838 104.19C151.721 104.914 151.386 105.585 150.879 106.114H150.879Z" fill="#A0616A"/>
<path d="M152.161 123.233C152.368 123.152 152.59 123.116 152.812 123.129C153.034 123.141 153.251 123.202 153.447 123.305L160.313 126.932C161.386 127.31 162.265 128.098 162.758 129.123C163.252 130.149 163.318 131.328 162.944 132.403C162.57 133.478 161.785 134.36 160.761 134.857C159.738 135.353 158.56 135.423 157.485 135.051L149.839 133.569C149.62 133.527 149.414 133.438 149.233 133.309C149.052 133.179 148.901 133.012 148.791 132.819C148.68 132.626 148.613 132.412 148.592 132.19C148.572 131.969 148.6 131.745 148.674 131.536L151.267 124.161C151.34 123.951 151.458 123.759 151.613 123.599C151.767 123.439 151.954 123.314 152.161 123.233Z" fill="#2F2E41"/>
<path d="M172.728 116.093C172.684 115.016 172.954 113.948 173.506 113.022C174.058 112.095 174.867 111.35 175.835 110.876C178.402 109.55 180.014 106.722 179.307 104.14C178.403 100.834 173.908 98.6905 170.266 99.8277C169.28 100.178 168.329 100.62 167.426 101.148L165.047 102.425C164.03 102.934 163.05 103.513 162.113 104.158C160.71 105.193 159.611 106.586 158.929 108.191C158.248 109.796 158.01 111.555 158.24 113.284C158.708 116.645 160.907 119.726 163.917 121.836C165.068 122.697 166.398 123.289 167.807 123.567C169.25 123.805 170.856 123.535 171.911 122.637C173.56 121.233 173.39 118.883 172.856 116.921C172.786 116.65 172.743 116.373 172.728 116.093Z" fill="#2F2E41"/>
<path d="M201.419 240H136.113C136.021 240 135.934 239.964 135.869 239.899C135.805 239.835 135.769 239.747 135.769 239.656C135.769 239.565 135.805 239.477 135.869 239.413C135.934 239.348 136.021 239.312 136.113 239.312H201.419C201.51 239.312 201.598 239.348 201.662 239.413C201.727 239.477 201.763 239.565 201.763 239.656C201.763 239.747 201.727 239.835 201.662 239.899C201.598 239.964 201.51 240 201.419 240Z" fill="#CCCCCC"/>
<path d="M94.8353 177.246L40.9481 199.371C40.0226 199.749 38.9848 199.745 38.0624 199.359C37.14 198.973 36.4082 198.237 36.0277 197.311L19.532 157.069C19.2547 156.391 19.2577 155.63 19.5403 154.954C19.8229 154.277 20.362 153.741 21.0394 153.462L76.7483 130.589C77.438 130.307 78.2115 130.31 78.899 130.597C79.5864 130.885 80.1318 131.434 80.4154 132.124L96.893 172.321C97.2714 173.247 97.2673 174.286 96.8816 175.209C96.4958 176.132 95.7599 176.865 94.8353 177.246Z" fill="#E6E6E6"/>
<path d="M42.9 194.49L90.0206 175.143C90.9179 174.775 91.6323 174.064 92.0065 173.169C92.3806 172.273 92.3841 171.266 92.0159 170.368L78.6958 137.873C78.5135 137.428 78.2455 137.024 77.9071 136.683C77.5686 136.342 77.1664 136.071 76.7234 135.885C76.2803 135.7 75.8051 135.604 75.3249 135.602C74.8446 135.6 74.3688 135.694 73.9245 135.876L26.8039 155.223C26.3596 155.405 25.9555 155.673 25.6148 156.012C25.2741 156.351 25.0033 156.753 24.818 157.197C24.6328 157.64 24.5366 158.116 24.5349 158.596C24.5333 159.077 24.6263 159.553 24.8086 159.998L38.1287 192.493C38.311 192.937 38.579 193.342 38.9174 193.683C39.2558 194.024 39.6581 194.295 40.1011 194.48C40.5442 194.666 41.0194 194.762 41.4996 194.764C41.9799 194.765 42.4557 194.672 42.9 194.49Z" fill="#D8C3A4"/>
<path d="M78.4354 146.735L77.7427 147.019L77.79 147.135L78.4828 146.85L78.4354 146.735Z" fill="#E6E6E6"/>
<path d="M76.3906 147.709L74.9911 148.284L74.9437 148.168L76.3432 147.594L76.3906 147.709ZM73.5915 148.859L72.192 149.433L72.1446 149.318L73.5441 148.743L73.5915 148.859ZM70.7924 150.008L69.3929 150.582L69.3455 150.467L70.7451 149.892L70.7924 150.008ZM67.9934 151.157L66.5938 151.732L66.5465 151.616L67.946 151.041L67.9934 151.157ZM65.1943 152.306L63.7948 152.881L63.7474 152.765L65.1469 152.191L65.1943 152.306ZM62.3952 153.456L60.9957 154.03L60.9483 153.915L62.3478 153.34L62.3952 153.456ZM59.5961 154.605L58.1966 155.179L58.1492 155.064L59.5488 154.489L59.5961 154.605ZM56.7971 155.754L55.3975 156.329L55.3502 156.213L56.7497 155.638L56.7971 155.754ZM53.998 156.903L52.5985 157.478L52.5511 157.362L53.9506 156.788L53.998 156.903ZM51.1989 158.052L49.7994 158.627L49.752 158.512L51.1515 157.937L51.1989 158.052ZM48.3998 159.202L47.0003 159.776L46.9529 159.661L48.3525 159.086L48.3998 159.202ZM45.6007 160.351L44.2012 160.926L44.1538 160.81L45.5534 160.235L45.6007 160.351ZM42.8017 161.5L41.4021 162.075L41.3548 161.959L42.7543 161.385L42.8017 161.5ZM40.0026 162.649L38.603 163.224L38.5557 163.109L39.9552 162.534L40.0026 162.649ZM37.2035 163.799L35.804 164.373L35.7566 164.258L37.1561 163.683L37.2035 163.799ZM34.4044 164.948L33.0049 165.523L32.9575 165.407L34.3571 164.832L34.4044 164.948Z" fill="#E6E6E6"/>
<path d="M31.5578 165.982L30.865 166.266L30.9124 166.382L31.6051 166.097L31.5578 165.982Z" fill="#E6E6E6"/>
<path d="M60.0946 166.82L59.4019 167.104L59.4492 167.22L60.142 166.936L60.0946 166.82Z" fill="#E6E6E6"/>
<path d="M58.0704 167.786L56.6917 168.353L56.6443 168.237L58.0231 167.671L58.0704 167.786ZM55.3129 168.919L53.9342 169.485L53.8868 169.369L55.2656 168.803L55.3129 168.919ZM52.5554 170.051L51.1767 170.617L51.1293 170.501L52.5081 169.935L52.5554 170.051ZM49.7979 171.183L48.4192 171.749L48.3718 171.634L49.7506 171.067L49.7979 171.183ZM47.0404 172.315L45.6617 172.881L45.6143 172.766L46.9931 172.2L47.0404 172.315ZM44.2829 173.447L42.9042 174.013L42.8568 173.898L44.2355 173.332L44.2829 173.447ZM41.5254 174.58L40.1467 175.146L40.0993 175.03L41.478 174.464L41.5254 174.58ZM38.7679 175.712L37.3892 176.278L37.3418 176.162L38.7205 175.596L38.7679 175.712Z" fill="#E6E6E6"/>
<path d="M35.963 176.728L35.2703 177.013L35.3176 177.128L36.0104 176.844L35.963 176.728Z" fill="#E6E6E6"/>
<path d="M48.6698 177.451L47.9771 177.736L48.0244 177.851L48.7172 177.567L48.6698 177.451Z" fill="#E6E6E6"/>
<path d="M46.6058 178.433L45.1873 179.016L45.1399 178.9L46.5585 178.318L46.6058 178.433ZM43.7688 179.598L42.3502 180.181L42.3029 180.065L43.7214 179.483L43.7688 179.598ZM40.9317 180.763L39.5132 181.346L39.4658 181.23L40.8843 180.648L40.9317 180.763Z" fill="#E6E6E6"/>
<path d="M38.0473 181.813L37.3545 182.097L37.4019 182.213L38.0946 181.928L38.0473 181.813Z" fill="#E6E6E6"/>
<path d="M52.2265 186.128L51.5337 186.412L51.5811 186.528L52.2738 186.243L52.2265 186.128Z" fill="#E6E6E6"/>
<path d="M50.1625 187.11L48.744 187.693L48.6966 187.577L50.1151 186.995L50.1625 187.11ZM47.3254 188.275L45.9069 188.857L45.8595 188.742L47.278 188.159L47.3254 188.275ZM44.4884 189.44L43.0698 190.022L43.0225 189.907L44.441 189.324L44.4884 189.44Z" fill="#E6E6E6"/>
<path d="M41.6039 190.489L40.9111 190.774L40.9585 190.889L41.6513 190.605L41.6039 190.489Z" fill="#E6E6E6"/>
<path d="M44.9009 189.374L84.8324 172.979C85.7988 172.581 86.568 171.815 86.9712 170.851C87.3744 169.886 87.3787 168.8 86.9831 167.832L78.9151 148.15L78.8371 148.185L69.0379 171.634L61.7701 168.593C61.636 168.536 61.4907 168.512 61.3454 168.521C61.2002 168.53 61.059 168.572 60.933 168.645C60.7438 168.759 60.5973 168.932 60.5164 169.138L55.3808 181.426L50.067 179.203C49.9523 179.155 49.8293 179.13 49.705 179.13C49.5807 179.129 49.4576 179.153 49.3426 179.201C49.2276 179.248 49.123 179.317 49.0348 179.405C48.9466 179.493 48.8766 179.597 48.8287 179.712C48.7947 179.795 45.5182 187.84 44.9009 189.374Z" fill="#43A498"/>
<path d="M44.778 189.56L44.6628 189.511L48.7719 179.678C48.8806 179.418 49.0879 179.213 49.3481 179.106C49.6083 178.999 49.9002 179 50.1598 179.108L55.3686 181.288L60.475 169.068C60.5838 168.808 60.791 168.602 61.0512 168.495C61.3114 168.389 61.6033 168.389 61.8629 168.498L69.0257 171.496L78.8753 147.924L78.9904 147.972L69.0927 171.659L61.8148 168.613C61.7014 168.566 61.5797 168.541 61.4568 168.54C61.3339 168.54 61.2121 168.564 61.0984 168.611C60.9847 168.657 60.8812 168.726 60.794 168.813C60.7068 168.899 60.6375 169.002 60.5901 169.116L55.4356 181.452L50.1116 179.223C49.8826 179.128 49.625 179.127 49.3954 179.221C49.1659 179.316 48.983 179.497 48.887 179.726L44.778 189.56Z" fill="#2F2E41"/>
<path d="M48.6934 178.383C49.1759 178.383 49.567 177.992 49.567 177.509C49.567 177.026 49.1759 176.635 48.6934 176.635C48.211 176.635 47.8198 177.026 47.8198 177.509C47.8198 177.992 48.211 178.383 48.6934 178.383Z" fill="#2F2E41"/>
<path d="M60.1182 167.753C60.6007 167.753 60.9918 167.361 60.9918 166.878C60.9918 166.395 60.6007 166.004 60.1182 166.004C59.6358 166.004 59.2446 166.395 59.2446 166.878C59.2446 167.361 59.6358 167.753 60.1182 167.753Z" fill="#2F2E41"/>
<path d="M77.908 147.636C78.3905 147.636 78.7816 147.244 78.7816 146.762C78.7816 146.279 78.3905 145.887 77.908 145.887C77.4255 145.887 77.0344 146.279 77.0344 146.762C77.0344 147.244 77.4255 147.636 77.908 147.636Z" fill="#2F2E41"/>
<path d="M29.0103 176.517C29.4645 176.291 29.8635 175.968 30.1794 175.571C30.4953 175.173 30.7203 174.712 30.8386 174.218C30.9569 173.724 30.9656 173.211 30.8641 172.713C30.7626 172.216 30.5534 171.747 30.2511 171.339L32.8457 145.951H27.2385L25.1765 170.741C24.5258 171.295 24.1006 172.068 23.9814 172.914C23.8622 173.761 24.0574 174.621 24.53 175.333C25.0026 176.045 25.7197 176.559 26.5454 176.777C27.3712 176.995 28.2482 176.903 29.0103 176.517Z" fill="#D6AB78"/>
<path d="M34.1586 131.939C38.5399 131.939 42.0917 128.384 42.0917 124C42.0917 119.615 38.5399 116.06 34.1586 116.06C29.7773 116.06 26.2256 119.615 26.2256 124C26.2256 128.384 29.7773 131.939 34.1586 131.939Z" fill="#D6AB78"/>
<path d="M35.6522 160.736C35.3346 160.736 35.0259 160.631 34.7733 160.439C34.5207 160.246 34.3383 159.976 34.2539 159.669C33.6183 157.358 31.9647 153.451 29.3392 148.055C28.7467 146.835 28.4187 145.504 28.3765 144.148C28.3343 142.793 28.579 141.444 29.0945 140.189C29.6099 138.935 30.3846 137.804 31.3675 136.87C32.3505 135.937 33.5195 135.222 34.798 134.772C36.0096 134.344 37.2947 134.164 38.5772 134.241C39.8597 134.319 41.1137 134.653 42.2649 135.224C43.416 135.795 44.4411 136.592 45.2793 137.566C46.1175 138.541 46.752 139.674 47.145 140.898C49.1801 147.284 49.0819 154.124 48.9451 156.768C48.9282 157.086 48.8073 157.391 48.6012 157.634C48.395 157.877 48.1149 158.046 47.8037 158.114L35.9639 160.702C35.8615 160.724 35.757 160.736 35.6522 160.736Z" fill="#43A498"/>
<path d="M47.1176 236.128H51.0773L52.9612 220.842L47.1169 220.842L47.1176 236.128Z" fill="#D6AB78"/>
<path d="M58.7144 239.808L46.2692 239.808L46.269 234.996L53.9058 234.996C54.5372 234.996 55.1625 235.12 55.7459 235.362C56.3293 235.604 56.8593 235.958 57.3059 236.405C57.7524 236.852 58.1066 237.382 58.3483 237.966C58.5899 238.55 58.7143 239.176 58.7144 239.808Z" fill="#2F2E41"/>
<path d="M7.52124 230.992L10.9914 232.901L20.001 220.415L14.8799 217.597L7.52124 230.992Z" fill="#D6AB78"/>
<path d="M15.9121 239.808L5.00643 233.808L7.32294 229.591L14.0151 233.273C15.1326 233.888 15.9602 234.922 16.316 236.147C16.6718 237.373 16.5265 238.69 15.9121 239.808Z" fill="#2F2E41"/>
<path d="M46.9326 227.644C46.5797 227.643 46.239 227.515 45.9741 227.281C45.7091 227.048 45.538 226.726 45.4926 226.376L40.5404 188.184C40.5185 188.015 40.4438 187.858 40.327 187.734C40.2102 187.61 40.0573 187.526 39.8901 187.494C39.7229 187.462 39.5499 187.484 39.3959 187.557C39.2418 187.629 39.1147 187.749 39.0325 187.898L18.3936 225.373C18.2233 225.679 17.949 225.914 17.6204 226.034C17.2919 226.155 16.931 226.154 16.6034 226.031L12.1047 224.315C11.9238 224.246 11.7584 224.142 11.6184 224.008C11.4784 223.874 11.3664 223.714 11.2892 223.536C11.212 223.358 11.1711 223.167 11.1688 222.973C11.1665 222.779 11.203 222.587 11.276 222.407L25.573 187.258C25.6092 187.168 25.6337 187.075 25.646 186.979C27.5825 171.979 32.5095 164.351 33.9733 162.371C34.0803 162.225 34.1506 162.056 34.1785 161.877C34.2064 161.699 34.191 161.516 34.1335 161.345L33.9323 160.741C33.8519 160.501 33.8354 160.244 33.8845 159.996C33.9335 159.748 34.0464 159.517 34.212 159.326C39.4869 153.313 48.6808 156.594 48.7731 156.628L48.8191 156.645L48.848 156.684C59.1571 170.834 55.3455 216.792 54.4767 225.861C54.4443 226.202 54.2925 226.52 54.0481 226.759C53.8038 226.999 53.4826 227.144 53.1415 227.17L47.0455 227.64C47.0076 227.642 46.9699 227.644 46.9326 227.644Z" fill="#2F2E41"/>
<path d="M64.9994 133.222C64.9598 133.397 64.9339 133.574 64.9221 133.753L51.0471 141.763L47.6746 139.82L44.0793 144.531L49.7157 148.551C50.171 148.876 50.7194 149.044 51.2784 149.031C51.8374 149.017 52.3768 148.822 52.8158 148.476L67.1233 137.179C67.769 137.419 68.4722 137.455 69.1393 137.285C69.8064 137.114 70.4058 136.745 70.8578 136.225C71.3098 135.705 71.593 135.06 71.6697 134.375C71.7464 133.69 71.613 132.999 71.2871 132.391C70.9613 131.784 70.4586 131.291 69.8457 130.977C69.2329 130.663 68.5391 130.543 67.8565 130.633C67.1739 130.723 66.5349 131.019 66.0246 131.482C65.5142 131.944 65.1566 132.552 64.9994 133.222Z" fill="#D6AB78"/>
<path d="M50.5831 142.143L46.0988 147.959C45.9712 148.125 45.8095 148.261 45.6246 148.358C45.4397 148.455 45.2361 148.512 45.0276 148.523C44.819 148.535 44.6104 148.501 44.4161 148.424C44.2217 148.348 44.0461 148.23 43.9012 148.08L38.8246 142.804C37.9822 142.146 37.435 141.18 37.3029 140.119C37.1709 139.057 37.4647 137.987 38.1199 137.142C38.7752 136.297 39.7385 135.747 40.7986 135.612C41.8587 135.477 42.929 135.768 43.775 136.421L50.1421 139.985C50.3244 140.087 50.4826 140.227 50.6058 140.396C50.7291 140.564 50.8145 140.758 50.8564 140.963C50.8982 141.167 50.8955 141.379 50.8483 141.582C50.8012 141.786 50.7107 141.977 50.5831 142.143Z" fill="#43A498"/>
<path d="M33.2024 152.248L25.9784 150.943C25.7729 150.906 25.5777 150.824 25.4063 150.705C25.2349 150.586 25.0912 150.431 24.985 150.251C24.8788 150.071 24.8127 149.87 24.791 149.662C24.7694 149.454 24.7928 149.244 24.8596 149.046L27.2015 142.106C27.3973 141.055 28.0017 140.124 28.8822 139.518C29.7628 138.912 30.8475 138.68 31.8987 138.873C32.9498 139.066 33.8815 139.669 34.4895 140.548C35.0974 141.428 35.3321 142.513 35.1419 143.565L34.9134 150.863C34.9068 151.072 34.8553 151.277 34.7624 151.464C34.6694 151.651 34.5373 151.816 34.3749 151.947C34.2125 152.079 34.0237 152.174 33.8214 152.226C33.6191 152.278 33.408 152.285 33.2024 152.248H33.2024Z" fill="#43A498"/>
<path d="M35.4143 122.174C37.4533 123.57 40.1305 125.006 42.213 123.519C42.8644 123.022 43.3376 122.328 43.5618 121.54C43.786 120.752 43.7491 119.912 43.4567 119.147C42.4595 116.293 39.7198 115.036 37.1 114.073C33.6942 112.821 29.9859 111.825 26.47 112.722C22.954 113.619 19.8468 117.025 20.4815 120.601C20.9919 123.476 23.7017 125.868 23.317 128.763C22.9298 131.676 19.6563 133.209 16.7662 133.73C13.8762 134.251 10.6422 134.418 8.5652 136.496C5.91565 139.146 6.57729 143.883 9.0704 146.681C11.5635 149.479 15.3258 150.748 18.9714 151.61C23.8016 152.752 29.0258 153.353 33.6133 151.457C38.2008 149.561 41.7707 144.457 40.4418 139.671C39.8805 137.649 38.5581 135.941 37.2802 134.278C36.0022 132.614 34.7081 130.875 34.2207 128.834C33.8144 127.134 34.1151 125.159 35.2419 123.884C35.4469 123.661 35.5758 123.378 35.6103 123.077C35.6448 122.776 35.583 122.471 35.4339 122.207L35.4143 122.174Z" fill="#2F2E41"/>
<path d="M65.6503 240H0.343719C0.252559 240 0.165132 239.964 0.100673 239.899C0.0362128 239.835 0 239.747 0 239.656C0 239.565 0.0362128 239.477 0.100673 239.413C0.165132 239.348 0.252559 239.312 0.343719 239.312H65.6503C65.7414 239.312 65.8288 239.348 65.8933 239.413C65.9578 239.477 65.994 239.565 65.994 239.656C65.994 239.747 65.9578 239.835 65.8933 239.899C65.8288 239.964 65.7414 240 65.6503 240Z" fill="#CCCCCC"/>
</g>
<defs>
<clipPath id="clip0">
<rect width="342" height="240" fill="white"/>
</clipPath>
</defs>
</svg>
